G04 #@! TF.GenerationSoftware,KiCad,Pcbnew,(5.0.0-rc2)*
G04 #@! TF.CreationDate,2020-07-08T21:08:46+03:00*
G04 #@! TF.ProjectId,SWAMPNL2,5357414D504E4C322E6B696361645F70,rev?*
G04 #@! TF.SameCoordinates,PX2549e60PY82a7440*
G04 #@! TF.FileFunction,Copper,L2,Bot,Signal*
G04 #@! TF.FilePolarity,Positive*
%FSLAX46Y46*%
G04 Gerber Fmt 4.6, Leading zero omitted, Abs format (unit mm)*
G04 Created by KiCad (PCBNEW (5.0.0-rc2)) date Wed Jul  8 21:08:46 2020*
%MOMM*%
%LPD*%
G01*
G04 APERTURE LIST*
G04 #@! TA.AperFunction,NonConductor*
%ADD10C,0.254000*%
G04 #@! TD*
G04 APERTURE END LIST*
D10*
G36*
X70393000Y407000D02*
X407000Y407000D01*
X407000Y3063669D01*
X4598011Y3063669D01*
X4598011Y2936331D01*
X4676321Y2441905D01*
X4676321Y2441904D01*
X4715670Y2320799D01*
X4942933Y1874770D01*
X5017781Y1771752D01*
X5371752Y1417780D01*
X5474770Y1342933D01*
X5920799Y1115670D01*
X6041904Y1076321D01*
X6528449Y999259D01*
X6559917Y993000D01*
X8440083Y993000D01*
X8471551Y999259D01*
X8958096Y1076321D01*
X9079201Y1115670D01*
X9525230Y1342933D01*
X9628248Y1417781D01*
X9982220Y1771752D01*
X10057067Y1874770D01*
X10284330Y2320799D01*
X10323679Y2441904D01*
X10323679Y2441905D01*
X10401989Y2936331D01*
X10401989Y3063669D01*
X60498011Y3063669D01*
X60498011Y2936331D01*
X60576321Y2441905D01*
X60576321Y2441904D01*
X60615670Y2320799D01*
X60842933Y1874770D01*
X60917781Y1771752D01*
X61271752Y1417780D01*
X61374770Y1342933D01*
X61820799Y1115670D01*
X61941904Y1076321D01*
X62428449Y999259D01*
X62459917Y993000D01*
X64340083Y993000D01*
X64371551Y999259D01*
X64858096Y1076321D01*
X64979201Y1115670D01*
X65425230Y1342933D01*
X65528248Y1417781D01*
X65882220Y1771752D01*
X65957067Y1874770D01*
X66184330Y2320799D01*
X66223679Y2441904D01*
X66223679Y2441905D01*
X66301989Y2936331D01*
X66301989Y3063669D01*
X66223679Y3558096D01*
X66217272Y3577816D01*
X66184330Y3679201D01*
X65957067Y4125230D01*
X65904188Y4198011D01*
X65882220Y4228248D01*
X65528248Y4582219D01*
X65425230Y4657067D01*
X64979201Y4884330D01*
X64858096Y4923679D01*
X64371551Y5000741D01*
X64340083Y5007000D01*
X62459917Y5007000D01*
X62428449Y5000741D01*
X61941904Y4923679D01*
X61820799Y4884330D01*
X61374770Y4657067D01*
X61271752Y4582220D01*
X60917781Y4228248D01*
X60842933Y4125230D01*
X60615670Y3679201D01*
X60576321Y3558096D01*
X60498011Y3063669D01*
X10401989Y3063669D01*
X10323679Y3558096D01*
X10317272Y3577816D01*
X10284330Y3679201D01*
X10057067Y4125230D01*
X10004188Y4198011D01*
X9982220Y4228248D01*
X9628248Y4582219D01*
X9525230Y4657067D01*
X9079201Y4884330D01*
X8958096Y4923679D01*
X8471551Y5000741D01*
X8440083Y5007000D01*
X6559917Y5007000D01*
X6528449Y5000741D01*
X6041904Y4923679D01*
X5920799Y4884330D01*
X5474770Y4657067D01*
X5371752Y4582220D01*
X5017781Y4228248D01*
X4942933Y4125230D01*
X4715670Y3679201D01*
X4676321Y3558096D01*
X4598011Y3063669D01*
X407000Y3063669D01*
X407000Y18948661D01*
X4223358Y18948661D01*
X4303000Y18318229D01*
X4303000Y18284512D01*
X4309129Y18269716D01*
X4326099Y18135382D01*
X4606468Y17365076D01*
X4823044Y17029016D01*
X4850611Y16962463D01*
X4893709Y16919365D01*
X5050529Y16676028D01*
X5636213Y16102484D01*
X5829502Y15983572D01*
X5862463Y15950611D01*
X5925567Y15924472D01*
X6334410Y15672951D01*
X7110418Y15408776D01*
X7925670Y15323090D01*
X8595821Y15403000D01*
X8615488Y15403000D01*
X8623438Y15406293D01*
X8739646Y15420150D01*
X9511891Y15695134D01*
X9871085Y15923086D01*
X9937537Y15950611D01*
X9977622Y15990696D01*
X10204022Y16134374D01*
X10781641Y16716040D01*
X10912693Y16925767D01*
X10949389Y16962463D01*
X10976457Y17027811D01*
X11216038Y17411221D01*
X11485624Y18185366D01*
X11496650Y18283668D01*
X11497000Y18284512D01*
X11497000Y18286785D01*
X11571241Y18948661D01*
X15223358Y18948661D01*
X15303000Y18318229D01*
X15303000Y18284512D01*
X15309129Y18269716D01*
X15326099Y18135382D01*
X15606468Y17365076D01*
X15823044Y17029016D01*
X15850611Y16962463D01*
X15893709Y16919365D01*
X16050529Y16676028D01*
X16636213Y16102484D01*
X16829502Y15983572D01*
X16862463Y15950611D01*
X16925567Y15924472D01*
X17334410Y15672951D01*
X18110418Y15408776D01*
X18925670Y15323090D01*
X19595821Y15403000D01*
X19615488Y15403000D01*
X19623438Y15406293D01*
X19739646Y15420150D01*
X20511891Y15695134D01*
X20871085Y15923086D01*
X20937537Y15950611D01*
X20977622Y15990696D01*
X21204022Y16134374D01*
X21781641Y16716040D01*
X21912693Y16925767D01*
X21949389Y16962463D01*
X21976457Y17027811D01*
X22216038Y17411221D01*
X22485624Y18185366D01*
X22496650Y18283668D01*
X22497000Y18284512D01*
X22497000Y18286785D01*
X22571241Y18948661D01*
X26223358Y18948661D01*
X26303000Y18318229D01*
X26303000Y18284512D01*
X26309129Y18269716D01*
X26326099Y18135382D01*
X26606468Y17365076D01*
X26823044Y17029016D01*
X26850611Y16962463D01*
X26893709Y16919365D01*
X27050529Y16676028D01*
X27636213Y16102484D01*
X27829502Y15983572D01*
X27862463Y15950611D01*
X27925567Y15924472D01*
X28334410Y15672951D01*
X29110418Y15408776D01*
X29925670Y15323090D01*
X30595821Y15403000D01*
X30615488Y15403000D01*
X30623438Y15406293D01*
X30739646Y15420150D01*
X31511891Y15695134D01*
X31871085Y15923086D01*
X31937537Y15950611D01*
X31977622Y15990696D01*
X32204022Y16134374D01*
X32781641Y16716040D01*
X32912693Y16925767D01*
X32949389Y16962463D01*
X32976457Y17027811D01*
X33216038Y17411221D01*
X33485624Y18185366D01*
X33496650Y18283668D01*
X33497000Y18284512D01*
X33497000Y18286785D01*
X33571241Y18948661D01*
X37223358Y18948661D01*
X37303000Y18318229D01*
X37303000Y18284512D01*
X37309129Y18269716D01*
X37326099Y18135382D01*
X37606468Y17365076D01*
X37823044Y17029016D01*
X37850611Y16962463D01*
X37893709Y16919365D01*
X38050529Y16676028D01*
X38636213Y16102484D01*
X38829502Y15983572D01*
X38862463Y15950611D01*
X38925567Y15924472D01*
X39334410Y15672951D01*
X40110418Y15408776D01*
X40925670Y15323090D01*
X41595821Y15403000D01*
X41615488Y15403000D01*
X41623438Y15406293D01*
X41739646Y15420150D01*
X42511891Y15695134D01*
X42871085Y15923086D01*
X42937537Y15950611D01*
X42977622Y15990696D01*
X43204022Y16134374D01*
X43781641Y16716040D01*
X43912693Y16925767D01*
X43949389Y16962463D01*
X43976457Y17027811D01*
X44216038Y17411221D01*
X44485624Y18185366D01*
X44496650Y18283668D01*
X44497000Y18284512D01*
X44497000Y18286785D01*
X44571241Y18948661D01*
X48223358Y18948661D01*
X48303000Y18318229D01*
X48303000Y18284512D01*
X48309129Y18269716D01*
X48326099Y18135382D01*
X48606468Y17365076D01*
X48823044Y17029016D01*
X48850611Y16962463D01*
X48893709Y16919365D01*
X49050529Y16676028D01*
X49636213Y16102484D01*
X49829502Y15983572D01*
X49862463Y15950611D01*
X49925567Y15924472D01*
X50334410Y15672951D01*
X51110418Y15408776D01*
X51925670Y15323090D01*
X52595821Y15403000D01*
X52615488Y15403000D01*
X52623438Y15406293D01*
X52739646Y15420150D01*
X53511891Y15695134D01*
X53871085Y15923086D01*
X53937537Y15950611D01*
X53977622Y15990696D01*
X54204022Y16134374D01*
X54781641Y16716040D01*
X54912693Y16925767D01*
X54949389Y16962463D01*
X54976457Y17027811D01*
X55216038Y17411221D01*
X55485624Y18185366D01*
X55496650Y18283668D01*
X55497000Y18284512D01*
X55497000Y18286785D01*
X55571241Y18948661D01*
X59223358Y18948661D01*
X59303000Y18318229D01*
X59303000Y18284512D01*
X59309129Y18269716D01*
X59326099Y18135382D01*
X59606468Y17365076D01*
X59823044Y17029016D01*
X59850611Y16962463D01*
X59893709Y16919365D01*
X60050529Y16676028D01*
X60636213Y16102484D01*
X60829502Y15983572D01*
X60862463Y15950611D01*
X60925567Y15924472D01*
X61334410Y15672951D01*
X62110418Y15408776D01*
X62925670Y15323090D01*
X63595821Y15403000D01*
X63615488Y15403000D01*
X63623438Y15406293D01*
X63739646Y15420150D01*
X64511891Y15695134D01*
X64871085Y15923086D01*
X64937537Y15950611D01*
X64977622Y15990696D01*
X65204022Y16134374D01*
X65781641Y16716040D01*
X65912693Y16925767D01*
X65949389Y16962463D01*
X65976457Y17027811D01*
X66216038Y17411221D01*
X66485624Y18185366D01*
X66496650Y18283668D01*
X66497000Y18284512D01*
X66497000Y18286785D01*
X66577000Y19000000D01*
X66575566Y19102668D01*
X66497000Y19661695D01*
X66497000Y19715488D01*
X66485557Y19743113D01*
X66461480Y19914433D01*
X66170384Y20680749D01*
X65975969Y20973366D01*
X65949389Y21037537D01*
X65901551Y21085375D01*
X65716745Y21363530D01*
X65123111Y21928841D01*
X64962108Y22024818D01*
X64937537Y22049389D01*
X64882982Y22071986D01*
X64418985Y22348584D01*
X63639364Y22601898D01*
X62822995Y22676194D01*
X62229468Y22597000D01*
X62184512Y22597000D01*
X62163149Y22588151D01*
X62010453Y22567777D01*
X61242123Y22282038D01*
X60928224Y22076628D01*
X60862463Y22049389D01*
X60816766Y22003692D01*
X60556192Y21833177D01*
X59986751Y21243504D01*
X59879522Y21066448D01*
X59850611Y21037537D01*
X59825937Y20977968D01*
X59562102Y20542325D01*
X59303351Y19764491D01*
X59223358Y18948661D01*
X55571241Y18948661D01*
X55577000Y19000000D01*
X55575566Y19102668D01*
X55497000Y19661695D01*
X55497000Y19715488D01*
X55485557Y19743113D01*
X55461480Y19914433D01*
X55170384Y20680749D01*
X54975969Y20973366D01*
X54949389Y21037537D01*
X54901551Y21085375D01*
X54716745Y21363530D01*
X54123111Y21928841D01*
X53962108Y22024818D01*
X53937537Y22049389D01*
X53882982Y22071986D01*
X53418985Y22348584D01*
X52639364Y22601898D01*
X51822995Y22676194D01*
X51229468Y22597000D01*
X51184512Y22597000D01*
X51163149Y22588151D01*
X51010453Y22567777D01*
X50242123Y22282038D01*
X49928224Y22076628D01*
X49862463Y22049389D01*
X49816766Y22003692D01*
X49556192Y21833177D01*
X48986751Y21243504D01*
X48879522Y21066448D01*
X48850611Y21037537D01*
X48825937Y20977968D01*
X48562102Y20542325D01*
X48303351Y19764491D01*
X48223358Y18948661D01*
X44571241Y18948661D01*
X44577000Y19000000D01*
X44575566Y19102668D01*
X44497000Y19661695D01*
X44497000Y19715488D01*
X44485557Y19743113D01*
X44461480Y19914433D01*
X44170384Y20680749D01*
X43975969Y20973366D01*
X43949389Y21037537D01*
X43901551Y21085375D01*
X43716745Y21363530D01*
X43123111Y21928841D01*
X42962108Y22024818D01*
X42937537Y22049389D01*
X42882982Y22071986D01*
X42418985Y22348584D01*
X41639364Y22601898D01*
X40822995Y22676194D01*
X40229468Y22597000D01*
X40184512Y22597000D01*
X40163149Y22588151D01*
X40010453Y22567777D01*
X39242123Y22282038D01*
X38928224Y22076628D01*
X38862463Y22049389D01*
X38816766Y22003692D01*
X38556192Y21833177D01*
X37986751Y21243504D01*
X37879522Y21066448D01*
X37850611Y21037537D01*
X37825937Y20977968D01*
X37562102Y20542325D01*
X37303351Y19764491D01*
X37223358Y18948661D01*
X33571241Y18948661D01*
X33577000Y19000000D01*
X33575566Y19102668D01*
X33497000Y19661695D01*
X33497000Y19715488D01*
X33485557Y19743113D01*
X33461480Y19914433D01*
X33170384Y20680749D01*
X32975969Y20973366D01*
X32949389Y21037537D01*
X32901551Y21085375D01*
X32716745Y21363530D01*
X32123111Y21928841D01*
X31962108Y22024818D01*
X31937537Y22049389D01*
X31882982Y22071986D01*
X31418985Y22348584D01*
X30639364Y22601898D01*
X29822995Y22676194D01*
X29229468Y22597000D01*
X29184512Y22597000D01*
X29163149Y22588151D01*
X29010453Y22567777D01*
X28242123Y22282038D01*
X27928224Y22076628D01*
X27862463Y22049389D01*
X27816766Y22003692D01*
X27556192Y21833177D01*
X26986751Y21243504D01*
X26879522Y21066448D01*
X26850611Y21037537D01*
X26825937Y20977968D01*
X26562102Y20542325D01*
X26303351Y19764491D01*
X26223358Y18948661D01*
X22571241Y18948661D01*
X22577000Y19000000D01*
X22575566Y19102668D01*
X22497000Y19661695D01*
X22497000Y19715488D01*
X22485557Y19743113D01*
X22461480Y19914433D01*
X22170384Y20680749D01*
X21975969Y20973366D01*
X21949389Y21037537D01*
X21901551Y21085375D01*
X21716745Y21363530D01*
X21123111Y21928841D01*
X20962108Y22024818D01*
X20937537Y22049389D01*
X20882982Y22071986D01*
X20418985Y22348584D01*
X19639364Y22601898D01*
X18822995Y22676194D01*
X18229468Y22597000D01*
X18184512Y22597000D01*
X18163149Y22588151D01*
X18010453Y22567777D01*
X17242123Y22282038D01*
X16928224Y22076628D01*
X16862463Y22049389D01*
X16816766Y22003692D01*
X16556192Y21833177D01*
X15986751Y21243504D01*
X15879522Y21066448D01*
X15850611Y21037537D01*
X15825937Y20977968D01*
X15562102Y20542325D01*
X15303351Y19764491D01*
X15223358Y18948661D01*
X11571241Y18948661D01*
X11577000Y19000000D01*
X11575566Y19102668D01*
X11497000Y19661695D01*
X11497000Y19715488D01*
X11485557Y19743113D01*
X11461480Y19914433D01*
X11170384Y20680749D01*
X10975969Y20973366D01*
X10949389Y21037537D01*
X10901551Y21085375D01*
X10716745Y21363530D01*
X10123111Y21928841D01*
X9962108Y22024818D01*
X9937537Y22049389D01*
X9882982Y22071986D01*
X9418985Y22348584D01*
X8639364Y22601898D01*
X7822995Y22676194D01*
X7229468Y22597000D01*
X7184512Y22597000D01*
X7163149Y22588151D01*
X7010453Y22567777D01*
X6242123Y22282038D01*
X5928224Y22076628D01*
X5862463Y22049389D01*
X5816766Y22003692D01*
X5556192Y21833177D01*
X4986751Y21243504D01*
X4879522Y21066448D01*
X4850611Y21037537D01*
X4825937Y20977968D01*
X4562102Y20542325D01*
X4303351Y19764491D01*
X4223358Y18948661D01*
X407000Y18948661D01*
X407000Y33948661D01*
X15223358Y33948661D01*
X15303000Y33318229D01*
X15303000Y33284512D01*
X15309129Y33269716D01*
X15326099Y33135382D01*
X15606468Y32365076D01*
X15823044Y32029016D01*
X15850611Y31962463D01*
X15893709Y31919365D01*
X16050529Y31676028D01*
X16636213Y31102484D01*
X16829502Y30983572D01*
X16862463Y30950611D01*
X16925567Y30924472D01*
X17334410Y30672951D01*
X18110418Y30408776D01*
X18925670Y30323090D01*
X19595821Y30403000D01*
X19615488Y30403000D01*
X19623438Y30406293D01*
X19739646Y30420150D01*
X20511891Y30695134D01*
X20871085Y30923086D01*
X20937537Y30950611D01*
X20977622Y30990696D01*
X21204022Y31134374D01*
X21781641Y31716040D01*
X21912693Y31925767D01*
X21949389Y31962463D01*
X21976457Y32027811D01*
X22216038Y32411221D01*
X22485624Y33185366D01*
X22496650Y33283668D01*
X22497000Y33284512D01*
X22497000Y33286785D01*
X22571241Y33948661D01*
X26223358Y33948661D01*
X26303000Y33318229D01*
X26303000Y33284512D01*
X26309129Y33269716D01*
X26326099Y33135382D01*
X26606468Y32365076D01*
X26823044Y32029016D01*
X26850611Y31962463D01*
X26893709Y31919365D01*
X27050529Y31676028D01*
X27636213Y31102484D01*
X27829502Y30983572D01*
X27862463Y30950611D01*
X27925567Y30924472D01*
X28334410Y30672951D01*
X29110418Y30408776D01*
X29925670Y30323090D01*
X30595821Y30403000D01*
X30615488Y30403000D01*
X30623438Y30406293D01*
X30739646Y30420150D01*
X31511891Y30695134D01*
X31871085Y30923086D01*
X31937537Y30950611D01*
X31977622Y30990696D01*
X32204022Y31134374D01*
X32781641Y31716040D01*
X32912693Y31925767D01*
X32949389Y31962463D01*
X32976457Y32027811D01*
X33216038Y32411221D01*
X33485624Y33185366D01*
X33496650Y33283668D01*
X33497000Y33284512D01*
X33497000Y33286785D01*
X33571241Y33948661D01*
X37223358Y33948661D01*
X37303000Y33318229D01*
X37303000Y33284512D01*
X37309129Y33269716D01*
X37326099Y33135382D01*
X37606468Y32365076D01*
X37823044Y32029016D01*
X37850611Y31962463D01*
X37893709Y31919365D01*
X38050529Y31676028D01*
X38636213Y31102484D01*
X38829502Y30983572D01*
X38862463Y30950611D01*
X38925567Y30924472D01*
X39334410Y30672951D01*
X40110418Y30408776D01*
X40925670Y30323090D01*
X41595821Y30403000D01*
X41615488Y30403000D01*
X41623438Y30406293D01*
X41739646Y30420150D01*
X42511891Y30695134D01*
X42871085Y30923086D01*
X42937537Y30950611D01*
X42977622Y30990696D01*
X43204022Y31134374D01*
X43781641Y31716040D01*
X43912693Y31925767D01*
X43949389Y31962463D01*
X43976457Y32027811D01*
X44216038Y32411221D01*
X44485624Y33185366D01*
X44496650Y33283668D01*
X44497000Y33284512D01*
X44497000Y33286785D01*
X44571241Y33948661D01*
X48223358Y33948661D01*
X48303000Y33318229D01*
X48303000Y33284512D01*
X48309129Y33269716D01*
X48326099Y33135382D01*
X48606468Y32365076D01*
X48823044Y32029016D01*
X48850611Y31962463D01*
X48893709Y31919365D01*
X49050529Y31676028D01*
X49636213Y31102484D01*
X49829502Y30983572D01*
X49862463Y30950611D01*
X49925567Y30924472D01*
X50334410Y30672951D01*
X51110418Y30408776D01*
X51925670Y30323090D01*
X52595821Y30403000D01*
X52615488Y30403000D01*
X52623438Y30406293D01*
X52739646Y30420150D01*
X53511891Y30695134D01*
X53871085Y30923086D01*
X53937537Y30950611D01*
X53977622Y30990696D01*
X54204022Y31134374D01*
X54781641Y31716040D01*
X54912693Y31925767D01*
X54949389Y31962463D01*
X54976457Y32027811D01*
X55216038Y32411221D01*
X55485624Y33185366D01*
X55496650Y33283668D01*
X55497000Y33284512D01*
X55497000Y33286785D01*
X55577000Y34000000D01*
X55575566Y34102668D01*
X55497000Y34661695D01*
X55497000Y34715488D01*
X55485557Y34743113D01*
X55461480Y34914433D01*
X55170384Y35680749D01*
X54975969Y35973366D01*
X54949389Y36037537D01*
X54901551Y36085375D01*
X54716745Y36363530D01*
X54123111Y36928841D01*
X53962108Y37024818D01*
X53937537Y37049389D01*
X53882982Y37071986D01*
X53418985Y37348584D01*
X52639364Y37601898D01*
X51822995Y37676194D01*
X51229468Y37597000D01*
X51184512Y37597000D01*
X51163149Y37588151D01*
X51010453Y37567777D01*
X50242123Y37282038D01*
X49928224Y37076628D01*
X49862463Y37049389D01*
X49816766Y37003692D01*
X49556192Y36833177D01*
X48986751Y36243504D01*
X48879522Y36066448D01*
X48850611Y36037537D01*
X48825937Y35977968D01*
X48562102Y35542325D01*
X48303351Y34764491D01*
X48223358Y33948661D01*
X44571241Y33948661D01*
X44577000Y34000000D01*
X44575566Y34102668D01*
X44497000Y34661695D01*
X44497000Y34715488D01*
X44485557Y34743113D01*
X44461480Y34914433D01*
X44170384Y35680749D01*
X43975969Y35973366D01*
X43949389Y36037537D01*
X43901551Y36085375D01*
X43716745Y36363530D01*
X43123111Y36928841D01*
X42962108Y37024818D01*
X42937537Y37049389D01*
X42882982Y37071986D01*
X42418985Y37348584D01*
X41639364Y37601898D01*
X40822995Y37676194D01*
X40229468Y37597000D01*
X40184512Y37597000D01*
X40163149Y37588151D01*
X40010453Y37567777D01*
X39242123Y37282038D01*
X38928224Y37076628D01*
X38862463Y37049389D01*
X38816766Y37003692D01*
X38556192Y36833177D01*
X37986751Y36243504D01*
X37879522Y36066448D01*
X37850611Y36037537D01*
X37825937Y35977968D01*
X37562102Y35542325D01*
X37303351Y34764491D01*
X37223358Y33948661D01*
X33571241Y33948661D01*
X33577000Y34000000D01*
X33575566Y34102668D01*
X33497000Y34661695D01*
X33497000Y34715488D01*
X33485557Y34743113D01*
X33461480Y34914433D01*
X33170384Y35680749D01*
X32975969Y35973366D01*
X32949389Y36037537D01*
X32901551Y36085375D01*
X32716745Y36363530D01*
X32123111Y36928841D01*
X31962108Y37024818D01*
X31937537Y37049389D01*
X31882982Y37071986D01*
X31418985Y37348584D01*
X30639364Y37601898D01*
X29822995Y37676194D01*
X29229468Y37597000D01*
X29184512Y37597000D01*
X29163149Y37588151D01*
X29010453Y37567777D01*
X28242123Y37282038D01*
X27928224Y37076628D01*
X27862463Y37049389D01*
X27816766Y37003692D01*
X27556192Y36833177D01*
X26986751Y36243504D01*
X26879522Y36066448D01*
X26850611Y36037537D01*
X26825937Y35977968D01*
X26562102Y35542325D01*
X26303351Y34764491D01*
X26223358Y33948661D01*
X22571241Y33948661D01*
X22577000Y34000000D01*
X22575566Y34102668D01*
X22497000Y34661695D01*
X22497000Y34715488D01*
X22485557Y34743113D01*
X22461480Y34914433D01*
X22170384Y35680749D01*
X21975969Y35973366D01*
X21949389Y36037537D01*
X21901551Y36085375D01*
X21716745Y36363530D01*
X21123111Y36928841D01*
X20962108Y37024818D01*
X20937537Y37049389D01*
X20882982Y37071986D01*
X20418985Y37348584D01*
X19639364Y37601898D01*
X18822995Y37676194D01*
X18229468Y37597000D01*
X18184512Y37597000D01*
X18163149Y37588151D01*
X18010453Y37567777D01*
X17242123Y37282038D01*
X16928224Y37076628D01*
X16862463Y37049389D01*
X16816766Y37003692D01*
X16556192Y36833177D01*
X15986751Y36243504D01*
X15879522Y36066448D01*
X15850611Y36037537D01*
X15825937Y35977968D01*
X15562102Y35542325D01*
X15303351Y34764491D01*
X15223358Y33948661D01*
X407000Y33948661D01*
X407000Y52000000D01*
X8723000Y52000000D01*
X8803000Y51238847D01*
X8803000Y51185056D01*
X8810576Y51166766D01*
X8814277Y51131553D01*
X9084121Y50301061D01*
X9385089Y49779769D01*
X9426731Y49679236D01*
X9465535Y49640432D01*
X9520736Y49544821D01*
X10105041Y48895884D01*
X10489166Y48616801D01*
X10579236Y48526731D01*
X10658097Y48494066D01*
X10811500Y48382612D01*
X11609236Y48027437D01*
X11969522Y47950856D01*
X12085056Y47903000D01*
X12194666Y47903000D01*
X12463385Y47845882D01*
X13336615Y47845882D01*
X13605334Y47903000D01*
X13714944Y47903000D01*
X13830478Y47950856D01*
X14190764Y48027437D01*
X14988500Y48382612D01*
X15141903Y48494066D01*
X15220764Y48526731D01*
X15310834Y48616801D01*
X15694959Y48895884D01*
X16279264Y49544821D01*
X16334465Y49640432D01*
X16373269Y49679236D01*
X16414911Y49779769D01*
X16715879Y50301061D01*
X16985723Y51131553D01*
X16989424Y51166766D01*
X16997000Y51185056D01*
X16997000Y51238847D01*
X17077000Y52000000D01*
X53723000Y52000000D01*
X53803000Y51238847D01*
X53803000Y51185056D01*
X53810576Y51166766D01*
X53814277Y51131553D01*
X54084121Y50301061D01*
X54385089Y49779769D01*
X54426731Y49679236D01*
X54465535Y49640432D01*
X54520736Y49544821D01*
X55105041Y48895884D01*
X55489166Y48616801D01*
X55579236Y48526731D01*
X55658097Y48494066D01*
X55811500Y48382612D01*
X56609236Y48027437D01*
X56969522Y47950856D01*
X57085056Y47903000D01*
X57194666Y47903000D01*
X57463385Y47845882D01*
X58336615Y47845882D01*
X58605334Y47903000D01*
X58714944Y47903000D01*
X58830478Y47950856D01*
X59190764Y48027437D01*
X59988500Y48382612D01*
X60141903Y48494066D01*
X60220764Y48526731D01*
X60310834Y48616801D01*
X60694959Y48895884D01*
X61279264Y49544821D01*
X61334465Y49640432D01*
X61373269Y49679236D01*
X61414911Y49779769D01*
X61715879Y50301061D01*
X61985723Y51131553D01*
X61989424Y51166766D01*
X61997000Y51185056D01*
X61997000Y51238847D01*
X62077000Y52000000D01*
X61997000Y52761153D01*
X61997000Y52814944D01*
X61989424Y52833234D01*
X61985723Y52868447D01*
X61715879Y53698939D01*
X61414911Y54220231D01*
X61373269Y54320764D01*
X61334465Y54359568D01*
X61279264Y54455179D01*
X60694959Y55104116D01*
X60310834Y55383199D01*
X60220764Y55473269D01*
X60141903Y55505934D01*
X59988500Y55617388D01*
X59190764Y55972563D01*
X58830478Y56049144D01*
X58714944Y56097000D01*
X58605334Y56097000D01*
X58336615Y56154118D01*
X57463385Y56154118D01*
X57194666Y56097000D01*
X57085056Y56097000D01*
X56969522Y56049144D01*
X56609236Y55972563D01*
X55811500Y55617388D01*
X55658097Y55505934D01*
X55579236Y55473269D01*
X55489166Y55383199D01*
X55105041Y55104116D01*
X54520736Y54455179D01*
X54465535Y54359568D01*
X54426731Y54320764D01*
X54385089Y54220231D01*
X54084121Y53698939D01*
X53814277Y52868447D01*
X53810576Y52833234D01*
X53803000Y52814944D01*
X53803000Y52761153D01*
X53723000Y52000000D01*
X17077000Y52000000D01*
X16997000Y52761153D01*
X16997000Y52814944D01*
X16989424Y52833234D01*
X16985723Y52868447D01*
X16715879Y53698939D01*
X16414911Y54220231D01*
X16373269Y54320764D01*
X16334465Y54359568D01*
X16279264Y54455179D01*
X15694959Y55104116D01*
X15310834Y55383199D01*
X15220764Y55473269D01*
X15141903Y55505934D01*
X14988500Y55617388D01*
X14190764Y55972563D01*
X13830478Y56049144D01*
X13714944Y56097000D01*
X13605334Y56097000D01*
X13336615Y56154118D01*
X12463385Y56154118D01*
X12194666Y56097000D01*
X12085056Y56097000D01*
X11969522Y56049144D01*
X11609236Y55972563D01*
X10811500Y55617388D01*
X10658097Y55505934D01*
X10579236Y55473269D01*
X10489166Y55383199D01*
X10105041Y55104116D01*
X9520736Y54455179D01*
X9465535Y54359568D01*
X9426731Y54320764D01*
X9385089Y54220231D01*
X9084121Y53698939D01*
X8814277Y52868447D01*
X8810576Y52833234D01*
X8803000Y52814944D01*
X8803000Y52761153D01*
X8723000Y52000000D01*
X407000Y52000000D01*
X407000Y64500000D01*
X31223000Y64500000D01*
X31303000Y63738847D01*
X31303000Y63685056D01*
X31310576Y63666766D01*
X31314277Y63631553D01*
X31584121Y62801061D01*
X31885089Y62279769D01*
X31926731Y62179236D01*
X31965535Y62140432D01*
X32020736Y62044821D01*
X32605041Y61395884D01*
X32989166Y61116801D01*
X33079236Y61026731D01*
X33158097Y60994066D01*
X33311500Y60882612D01*
X34109236Y60527437D01*
X34469522Y60450856D01*
X34585056Y60403000D01*
X34694666Y60403000D01*
X34963385Y60345882D01*
X35836615Y60345882D01*
X36105334Y60403000D01*
X36214944Y60403000D01*
X36330478Y60450856D01*
X36690764Y60527437D01*
X37488500Y60882612D01*
X37641903Y60994066D01*
X37720764Y61026731D01*
X37810834Y61116801D01*
X38194959Y61395884D01*
X38779264Y62044821D01*
X38834465Y62140432D01*
X38873269Y62179236D01*
X38914911Y62279769D01*
X39215879Y62801061D01*
X39485723Y63631553D01*
X39489424Y63666766D01*
X39497000Y63685056D01*
X39497000Y63738847D01*
X39577000Y64500000D01*
X39497000Y65261153D01*
X39497000Y65314944D01*
X39489424Y65333234D01*
X39485723Y65368447D01*
X39215879Y66198939D01*
X38914911Y66720231D01*
X38873269Y66820764D01*
X38834465Y66859568D01*
X38779264Y66955179D01*
X38194959Y67604116D01*
X37810834Y67883199D01*
X37720764Y67973269D01*
X37641903Y68005934D01*
X37488500Y68117388D01*
X36690764Y68472563D01*
X36330478Y68549144D01*
X36214944Y68597000D01*
X36105334Y68597000D01*
X35836615Y68654118D01*
X34963385Y68654118D01*
X34694666Y68597000D01*
X34585056Y68597000D01*
X34469522Y68549144D01*
X34109236Y68472563D01*
X33311500Y68117388D01*
X33158097Y68005934D01*
X33079236Y67973269D01*
X32989166Y67883199D01*
X32605041Y67604116D01*
X32020736Y66955179D01*
X31965535Y66859568D01*
X31926731Y66820764D01*
X31885089Y66720231D01*
X31584121Y66198939D01*
X31314277Y65368447D01*
X31310576Y65333234D01*
X31303000Y65314944D01*
X31303000Y65261153D01*
X31223000Y64500000D01*
X407000Y64500000D01*
X407000Y77000000D01*
X8723000Y77000000D01*
X8803000Y76238847D01*
X8803000Y76185056D01*
X8810576Y76166766D01*
X8814277Y76131553D01*
X9084121Y75301061D01*
X9385089Y74779769D01*
X9426731Y74679236D01*
X9465535Y74640432D01*
X9520736Y74544821D01*
X10105041Y73895884D01*
X10489166Y73616801D01*
X10579236Y73526731D01*
X10658097Y73494066D01*
X10811500Y73382612D01*
X11609236Y73027437D01*
X11969522Y72950856D01*
X12085056Y72903000D01*
X12194666Y72903000D01*
X12463385Y72845882D01*
X13336615Y72845882D01*
X13605334Y72903000D01*
X13714944Y72903000D01*
X13830478Y72950856D01*
X14190764Y73027437D01*
X14988500Y73382612D01*
X15141903Y73494066D01*
X15220764Y73526731D01*
X15310834Y73616801D01*
X15694959Y73895884D01*
X16279264Y74544821D01*
X16334465Y74640432D01*
X16373269Y74679236D01*
X16414911Y74779769D01*
X16715879Y75301061D01*
X16985723Y76131553D01*
X16989424Y76166766D01*
X16997000Y76185056D01*
X16997000Y76238847D01*
X17077000Y77000000D01*
X53723000Y77000000D01*
X53803000Y76238847D01*
X53803000Y76185056D01*
X53810576Y76166766D01*
X53814277Y76131553D01*
X54084121Y75301061D01*
X54385089Y74779769D01*
X54426731Y74679236D01*
X54465535Y74640432D01*
X54520736Y74544821D01*
X55105041Y73895884D01*
X55489166Y73616801D01*
X55579236Y73526731D01*
X55658097Y73494066D01*
X55811500Y73382612D01*
X56609236Y73027437D01*
X56969522Y72950856D01*
X57085056Y72903000D01*
X57194666Y72903000D01*
X57463385Y72845882D01*
X58336615Y72845882D01*
X58605334Y72903000D01*
X58714944Y72903000D01*
X58830478Y72950856D01*
X59190764Y73027437D01*
X59988500Y73382612D01*
X60141903Y73494066D01*
X60220764Y73526731D01*
X60310834Y73616801D01*
X60694959Y73895884D01*
X61279264Y74544821D01*
X61334465Y74640432D01*
X61373269Y74679236D01*
X61414911Y74779769D01*
X61715879Y75301061D01*
X61985723Y76131553D01*
X61989424Y76166766D01*
X61997000Y76185056D01*
X61997000Y76238847D01*
X62077000Y77000000D01*
X61997000Y77761153D01*
X61997000Y77814944D01*
X61989424Y77833234D01*
X61985723Y77868447D01*
X61715879Y78698939D01*
X61414911Y79220231D01*
X61373269Y79320764D01*
X61334465Y79359568D01*
X61279264Y79455179D01*
X60694959Y80104116D01*
X60310834Y80383199D01*
X60220764Y80473269D01*
X60141903Y80505934D01*
X59988500Y80617388D01*
X59190764Y80972563D01*
X58830478Y81049144D01*
X58714944Y81097000D01*
X58605334Y81097000D01*
X58336615Y81154118D01*
X57463385Y81154118D01*
X57194666Y81097000D01*
X57085056Y81097000D01*
X56969522Y81049144D01*
X56609236Y80972563D01*
X55811500Y80617388D01*
X55658097Y80505934D01*
X55579236Y80473269D01*
X55489166Y80383199D01*
X55105041Y80104116D01*
X54520736Y79455179D01*
X54465535Y79359568D01*
X54426731Y79320764D01*
X54385089Y79220231D01*
X54084121Y78698939D01*
X53814277Y77868447D01*
X53810576Y77833234D01*
X53803000Y77814944D01*
X53803000Y77761153D01*
X53723000Y77000000D01*
X17077000Y77000000D01*
X16997000Y77761153D01*
X16997000Y77814944D01*
X16989424Y77833234D01*
X16985723Y77868447D01*
X16715879Y78698939D01*
X16414911Y79220231D01*
X16373269Y79320764D01*
X16334465Y79359568D01*
X16279264Y79455179D01*
X15694959Y80104116D01*
X15310834Y80383199D01*
X15220764Y80473269D01*
X15141903Y80505934D01*
X14988500Y80617388D01*
X14190764Y80972563D01*
X13830478Y81049144D01*
X13714944Y81097000D01*
X13605334Y81097000D01*
X13336615Y81154118D01*
X12463385Y81154118D01*
X12194666Y81097000D01*
X12085056Y81097000D01*
X11969522Y81049144D01*
X11609236Y80972563D01*
X10811500Y80617388D01*
X10658097Y80505934D01*
X10579236Y80473269D01*
X10489166Y80383199D01*
X10105041Y80104116D01*
X9520736Y79455179D01*
X9465535Y79359568D01*
X9426731Y79320764D01*
X9385089Y79220231D01*
X9084121Y78698939D01*
X8814277Y77868447D01*
X8810576Y77833234D01*
X8803000Y77814944D01*
X8803000Y77761153D01*
X8723000Y77000000D01*
X407000Y77000000D01*
X407000Y95948661D01*
X9223358Y95948661D01*
X9303000Y95318229D01*
X9303000Y95284512D01*
X9309129Y95269716D01*
X9326099Y95135382D01*
X9606468Y94365076D01*
X9823044Y94029016D01*
X9850611Y93962463D01*
X9893709Y93919365D01*
X10050529Y93676028D01*
X10636213Y93102484D01*
X10829502Y92983572D01*
X10862463Y92950611D01*
X10925567Y92924472D01*
X11334410Y92672951D01*
X12110418Y92408776D01*
X12925670Y92323090D01*
X13595821Y92403000D01*
X13615488Y92403000D01*
X13623438Y92406293D01*
X13739646Y92420150D01*
X14511891Y92695134D01*
X14871085Y92923086D01*
X14937537Y92950611D01*
X14977622Y92990696D01*
X15204022Y93134374D01*
X15781641Y93716040D01*
X15912693Y93925767D01*
X15949389Y93962463D01*
X15976457Y94027811D01*
X16216038Y94411221D01*
X16485624Y95185366D01*
X16496650Y95283668D01*
X16497000Y95284512D01*
X16497000Y95286785D01*
X16571241Y95948661D01*
X54223358Y95948661D01*
X54303000Y95318229D01*
X54303000Y95284512D01*
X54309129Y95269716D01*
X54326099Y95135382D01*
X54606468Y94365076D01*
X54823044Y94029016D01*
X54850611Y93962463D01*
X54893709Y93919365D01*
X55050529Y93676028D01*
X55636213Y93102484D01*
X55829502Y92983572D01*
X55862463Y92950611D01*
X55925567Y92924472D01*
X56334410Y92672951D01*
X57110418Y92408776D01*
X57925670Y92323090D01*
X58595821Y92403000D01*
X58615488Y92403000D01*
X58623438Y92406293D01*
X58739646Y92420150D01*
X59511891Y92695134D01*
X59871085Y92923086D01*
X59937537Y92950611D01*
X59977622Y92990696D01*
X60204022Y93134374D01*
X60781641Y93716040D01*
X60912693Y93925767D01*
X60949389Y93962463D01*
X60976457Y94027811D01*
X61216038Y94411221D01*
X61485624Y95185366D01*
X61496650Y95283668D01*
X61497000Y95284512D01*
X61497000Y95286785D01*
X61577000Y96000000D01*
X61575566Y96102668D01*
X61497000Y96661695D01*
X61497000Y96715488D01*
X61485557Y96743113D01*
X61461480Y96914433D01*
X61170384Y97680749D01*
X60975969Y97973366D01*
X60949389Y98037537D01*
X60901551Y98085375D01*
X60716745Y98363530D01*
X60123111Y98928841D01*
X59962108Y99024818D01*
X59937537Y99049389D01*
X59882982Y99071986D01*
X59418985Y99348584D01*
X58639364Y99601898D01*
X57822995Y99676194D01*
X57229468Y99597000D01*
X57184512Y99597000D01*
X57163149Y99588151D01*
X57010453Y99567777D01*
X56242123Y99282038D01*
X55928224Y99076628D01*
X55862463Y99049389D01*
X55816766Y99003692D01*
X55556192Y98833177D01*
X54986751Y98243504D01*
X54879522Y98066448D01*
X54850611Y98037537D01*
X54825937Y97977968D01*
X54562102Y97542325D01*
X54303351Y96764491D01*
X54223358Y95948661D01*
X16571241Y95948661D01*
X16577000Y96000000D01*
X16575566Y96102668D01*
X16497000Y96661695D01*
X16497000Y96715488D01*
X16485557Y96743113D01*
X16461480Y96914433D01*
X16170384Y97680749D01*
X15975969Y97973366D01*
X15949389Y98037537D01*
X15901551Y98085375D01*
X15716745Y98363530D01*
X15123111Y98928841D01*
X14962108Y99024818D01*
X14937537Y99049389D01*
X14882982Y99071986D01*
X14418985Y99348584D01*
X13639364Y99601898D01*
X12822995Y99676194D01*
X12229468Y99597000D01*
X12184512Y99597000D01*
X12163149Y99588151D01*
X12010453Y99567777D01*
X11242123Y99282038D01*
X10928224Y99076628D01*
X10862463Y99049389D01*
X10816766Y99003692D01*
X10556192Y98833177D01*
X9986751Y98243504D01*
X9879522Y98066448D01*
X9850611Y98037537D01*
X9825937Y97977968D01*
X9562102Y97542325D01*
X9303351Y96764491D01*
X9223358Y95948661D01*
X407000Y95948661D01*
X407000Y105000000D01*
X31223000Y105000000D01*
X31303000Y104238847D01*
X31303000Y104185056D01*
X31310576Y104166766D01*
X31314277Y104131553D01*
X31584121Y103301061D01*
X31885089Y102779769D01*
X31926731Y102679236D01*
X31965535Y102640432D01*
X32020736Y102544821D01*
X32605041Y101895884D01*
X32989166Y101616801D01*
X33079236Y101526731D01*
X33158097Y101494066D01*
X33311500Y101382612D01*
X34109236Y101027437D01*
X34469522Y100950856D01*
X34585056Y100903000D01*
X34694666Y100903000D01*
X34963385Y100845882D01*
X35836615Y100845882D01*
X36105334Y100903000D01*
X36214944Y100903000D01*
X36330478Y100950856D01*
X36690764Y101027437D01*
X37488500Y101382612D01*
X37641903Y101494066D01*
X37720764Y101526731D01*
X37810834Y101616801D01*
X38194959Y101895884D01*
X38779264Y102544821D01*
X38834465Y102640432D01*
X38873269Y102679236D01*
X38914911Y102779769D01*
X39215879Y103301061D01*
X39485723Y104131553D01*
X39489424Y104166766D01*
X39497000Y104185056D01*
X39497000Y104238847D01*
X39577000Y105000000D01*
X39497000Y105761153D01*
X39497000Y105814944D01*
X39489424Y105833234D01*
X39485723Y105868447D01*
X39215879Y106698939D01*
X38914911Y107220231D01*
X38873269Y107320764D01*
X38834465Y107359568D01*
X38779264Y107455179D01*
X38194959Y108104116D01*
X37810834Y108383199D01*
X37720764Y108473269D01*
X37641903Y108505934D01*
X37488500Y108617388D01*
X36690764Y108972563D01*
X36330478Y109049144D01*
X36214944Y109097000D01*
X36105334Y109097000D01*
X35836615Y109154118D01*
X34963385Y109154118D01*
X34694666Y109097000D01*
X34585056Y109097000D01*
X34469522Y109049144D01*
X34109236Y108972563D01*
X33311500Y108617388D01*
X33158097Y108505934D01*
X33079236Y108473269D01*
X32989166Y108383199D01*
X32605041Y108104116D01*
X32020736Y107455179D01*
X31965535Y107359568D01*
X31926731Y107320764D01*
X31885089Y107220231D01*
X31584121Y106698939D01*
X31314277Y105868447D01*
X31310576Y105833234D01*
X31303000Y105814944D01*
X31303000Y105761153D01*
X31223000Y105000000D01*
X407000Y105000000D01*
X407000Y112000000D01*
X16373000Y112000000D01*
X16472208Y111373623D01*
X16760123Y110808559D01*
X17208559Y110360123D01*
X17773623Y110072208D01*
X18400000Y109973000D01*
X19026377Y110072208D01*
X19591441Y110360123D01*
X20039877Y110808559D01*
X20327792Y111373623D01*
X20427000Y112000000D01*
X50373000Y112000000D01*
X50472208Y111373623D01*
X50760123Y110808559D01*
X51208559Y110360123D01*
X51773623Y110072208D01*
X52400000Y109973000D01*
X53026377Y110072208D01*
X53591441Y110360123D01*
X54039877Y110808559D01*
X54327792Y111373623D01*
X54427000Y112000000D01*
X54327792Y112626377D01*
X54039877Y113191441D01*
X53591441Y113639877D01*
X53026377Y113927792D01*
X52400000Y114027000D01*
X51773623Y113927792D01*
X51208559Y113639877D01*
X50760123Y113191441D01*
X50472208Y112626377D01*
X50373000Y112000000D01*
X20427000Y112000000D01*
X20327792Y112626377D01*
X20039877Y113191441D01*
X19591441Y113639877D01*
X19026377Y113927792D01*
X18400000Y114027000D01*
X17773623Y113927792D01*
X17208559Y113639877D01*
X16760123Y113191441D01*
X16472208Y112626377D01*
X16373000Y112000000D01*
X407000Y112000000D01*
X407000Y125563669D01*
X4598011Y125563669D01*
X4598011Y125436331D01*
X4676321Y124941905D01*
X4676321Y124941904D01*
X4715670Y124820799D01*
X4942933Y124374770D01*
X5017781Y124271752D01*
X5371752Y123917780D01*
X5474770Y123842933D01*
X5920799Y123615670D01*
X6041904Y123576321D01*
X6528449Y123499259D01*
X6559917Y123493000D01*
X8440083Y123493000D01*
X8471551Y123499259D01*
X8958096Y123576321D01*
X9079201Y123615670D01*
X9525230Y123842933D01*
X9628248Y123917781D01*
X9982220Y124271752D01*
X10057067Y124374770D01*
X10284330Y124820799D01*
X10323679Y124941904D01*
X10323679Y124941905D01*
X10401989Y125436331D01*
X10401989Y125563669D01*
X60498011Y125563669D01*
X60498011Y125436331D01*
X60576321Y124941905D01*
X60576321Y124941904D01*
X60615670Y124820799D01*
X60842933Y124374770D01*
X60917781Y124271752D01*
X61271752Y123917780D01*
X61374770Y123842933D01*
X61820799Y123615670D01*
X61941904Y123576321D01*
X62428449Y123499259D01*
X62459917Y123493000D01*
X64340083Y123493000D01*
X64371551Y123499259D01*
X64858096Y123576321D01*
X64979201Y123615670D01*
X65425230Y123842933D01*
X65528248Y123917781D01*
X65882220Y124271752D01*
X65957067Y124374770D01*
X66184330Y124820799D01*
X66223679Y124941904D01*
X66223679Y124941905D01*
X66301989Y125436331D01*
X66301989Y125563669D01*
X66223679Y126058096D01*
X66217272Y126077816D01*
X66184330Y126179201D01*
X65957067Y126625230D01*
X65904188Y126698011D01*
X65882220Y126728248D01*
X65528248Y127082219D01*
X65425230Y127157067D01*
X64979201Y127384330D01*
X64858096Y127423679D01*
X64371551Y127500741D01*
X64340083Y127507000D01*
X62459917Y127507000D01*
X62428449Y127500741D01*
X61941904Y127423679D01*
X61820799Y127384330D01*
X61374770Y127157067D01*
X61271752Y127082220D01*
X60917781Y126728248D01*
X60842933Y126625230D01*
X60615670Y126179201D01*
X60576321Y126058096D01*
X60498011Y125563669D01*
X10401989Y125563669D01*
X10323679Y126058096D01*
X10317272Y126077816D01*
X10284330Y126179201D01*
X10057067Y126625230D01*
X10004188Y126698011D01*
X9982220Y126728248D01*
X9628248Y127082219D01*
X9525230Y127157067D01*
X9079201Y127384330D01*
X8958096Y127423679D01*
X8471551Y127500741D01*
X8440083Y127507000D01*
X6559917Y127507000D01*
X6528449Y127500741D01*
X6041904Y127423679D01*
X5920799Y127384330D01*
X5474770Y127157067D01*
X5371752Y127082220D01*
X5017781Y126728248D01*
X4942933Y126625230D01*
X4715670Y126179201D01*
X4676321Y126058096D01*
X4598011Y125563669D01*
X407000Y125563669D01*
X406999Y128093000D01*
X70393001Y128093000D01*
X70393000Y407000D01*
X70393000Y407000D01*
G37*
X70393000Y407000D02*
X407000Y407000D01*
X407000Y3063669D01*
X4598011Y3063669D01*
X4598011Y2936331D01*
X4676321Y2441905D01*
X4676321Y2441904D01*
X4715670Y2320799D01*
X4942933Y1874770D01*
X5017781Y1771752D01*
X5371752Y1417780D01*
X5474770Y1342933D01*
X5920799Y1115670D01*
X6041904Y1076321D01*
X6528449Y999259D01*
X6559917Y993000D01*
X8440083Y993000D01*
X8471551Y999259D01*
X8958096Y1076321D01*
X9079201Y1115670D01*
X9525230Y1342933D01*
X9628248Y1417781D01*
X9982220Y1771752D01*
X10057067Y1874770D01*
X10284330Y2320799D01*
X10323679Y2441904D01*
X10323679Y2441905D01*
X10401989Y2936331D01*
X10401989Y3063669D01*
X60498011Y3063669D01*
X60498011Y2936331D01*
X60576321Y2441905D01*
X60576321Y2441904D01*
X60615670Y2320799D01*
X60842933Y1874770D01*
X60917781Y1771752D01*
X61271752Y1417780D01*
X61374770Y1342933D01*
X61820799Y1115670D01*
X61941904Y1076321D01*
X62428449Y999259D01*
X62459917Y993000D01*
X64340083Y993000D01*
X64371551Y999259D01*
X64858096Y1076321D01*
X64979201Y1115670D01*
X65425230Y1342933D01*
X65528248Y1417781D01*
X65882220Y1771752D01*
X65957067Y1874770D01*
X66184330Y2320799D01*
X66223679Y2441904D01*
X66223679Y2441905D01*
X66301989Y2936331D01*
X66301989Y3063669D01*
X66223679Y3558096D01*
X66217272Y3577816D01*
X66184330Y3679201D01*
X65957067Y4125230D01*
X65904188Y4198011D01*
X65882220Y4228248D01*
X65528248Y4582219D01*
X65425230Y4657067D01*
X64979201Y4884330D01*
X64858096Y4923679D01*
X64371551Y5000741D01*
X64340083Y5007000D01*
X62459917Y5007000D01*
X62428449Y5000741D01*
X61941904Y4923679D01*
X61820799Y4884330D01*
X61374770Y4657067D01*
X61271752Y4582220D01*
X60917781Y4228248D01*
X60842933Y4125230D01*
X60615670Y3679201D01*
X60576321Y3558096D01*
X60498011Y3063669D01*
X10401989Y3063669D01*
X10323679Y3558096D01*
X10317272Y3577816D01*
X10284330Y3679201D01*
X10057067Y4125230D01*
X10004188Y4198011D01*
X9982220Y4228248D01*
X9628248Y4582219D01*
X9525230Y4657067D01*
X9079201Y4884330D01*
X8958096Y4923679D01*
X8471551Y5000741D01*
X8440083Y5007000D01*
X6559917Y5007000D01*
X6528449Y5000741D01*
X6041904Y4923679D01*
X5920799Y4884330D01*
X5474770Y4657067D01*
X5371752Y4582220D01*
X5017781Y4228248D01*
X4942933Y4125230D01*
X4715670Y3679201D01*
X4676321Y3558096D01*
X4598011Y3063669D01*
X407000Y3063669D01*
X407000Y18948661D01*
X4223358Y18948661D01*
X4303000Y18318229D01*
X4303000Y18284512D01*
X4309129Y18269716D01*
X4326099Y18135382D01*
X4606468Y17365076D01*
X4823044Y17029016D01*
X4850611Y16962463D01*
X4893709Y16919365D01*
X5050529Y16676028D01*
X5636213Y16102484D01*
X5829502Y15983572D01*
X5862463Y15950611D01*
X5925567Y15924472D01*
X6334410Y15672951D01*
X7110418Y15408776D01*
X7925670Y15323090D01*
X8595821Y15403000D01*
X8615488Y15403000D01*
X8623438Y15406293D01*
X8739646Y15420150D01*
X9511891Y15695134D01*
X9871085Y15923086D01*
X9937537Y15950611D01*
X9977622Y15990696D01*
X10204022Y16134374D01*
X10781641Y16716040D01*
X10912693Y16925767D01*
X10949389Y16962463D01*
X10976457Y17027811D01*
X11216038Y17411221D01*
X11485624Y18185366D01*
X11496650Y18283668D01*
X11497000Y18284512D01*
X11497000Y18286785D01*
X11571241Y18948661D01*
X15223358Y18948661D01*
X15303000Y18318229D01*
X15303000Y18284512D01*
X15309129Y18269716D01*
X15326099Y18135382D01*
X15606468Y17365076D01*
X15823044Y17029016D01*
X15850611Y16962463D01*
X15893709Y16919365D01*
X16050529Y16676028D01*
X16636213Y16102484D01*
X16829502Y15983572D01*
X16862463Y15950611D01*
X16925567Y15924472D01*
X17334410Y15672951D01*
X18110418Y15408776D01*
X18925670Y15323090D01*
X19595821Y15403000D01*
X19615488Y15403000D01*
X19623438Y15406293D01*
X19739646Y15420150D01*
X20511891Y15695134D01*
X20871085Y15923086D01*
X20937537Y15950611D01*
X20977622Y15990696D01*
X21204022Y16134374D01*
X21781641Y16716040D01*
X21912693Y16925767D01*
X21949389Y16962463D01*
X21976457Y17027811D01*
X22216038Y17411221D01*
X22485624Y18185366D01*
X22496650Y18283668D01*
X22497000Y18284512D01*
X22497000Y18286785D01*
X22571241Y18948661D01*
X26223358Y18948661D01*
X26303000Y18318229D01*
X26303000Y18284512D01*
X26309129Y18269716D01*
X26326099Y18135382D01*
X26606468Y17365076D01*
X26823044Y17029016D01*
X26850611Y16962463D01*
X26893709Y16919365D01*
X27050529Y16676028D01*
X27636213Y16102484D01*
X27829502Y15983572D01*
X27862463Y15950611D01*
X27925567Y15924472D01*
X28334410Y15672951D01*
X29110418Y15408776D01*
X29925670Y15323090D01*
X30595821Y15403000D01*
X30615488Y15403000D01*
X30623438Y15406293D01*
X30739646Y15420150D01*
X31511891Y15695134D01*
X31871085Y15923086D01*
X31937537Y15950611D01*
X31977622Y15990696D01*
X32204022Y16134374D01*
X32781641Y16716040D01*
X32912693Y16925767D01*
X32949389Y16962463D01*
X32976457Y17027811D01*
X33216038Y17411221D01*
X33485624Y18185366D01*
X33496650Y18283668D01*
X33497000Y18284512D01*
X33497000Y18286785D01*
X33571241Y18948661D01*
X37223358Y18948661D01*
X37303000Y18318229D01*
X37303000Y18284512D01*
X37309129Y18269716D01*
X37326099Y18135382D01*
X37606468Y17365076D01*
X37823044Y17029016D01*
X37850611Y16962463D01*
X37893709Y16919365D01*
X38050529Y16676028D01*
X38636213Y16102484D01*
X38829502Y15983572D01*
X38862463Y15950611D01*
X38925567Y15924472D01*
X39334410Y15672951D01*
X40110418Y15408776D01*
X40925670Y15323090D01*
X41595821Y15403000D01*
X41615488Y15403000D01*
X41623438Y15406293D01*
X41739646Y15420150D01*
X42511891Y15695134D01*
X42871085Y15923086D01*
X42937537Y15950611D01*
X42977622Y15990696D01*
X43204022Y16134374D01*
X43781641Y16716040D01*
X43912693Y16925767D01*
X43949389Y16962463D01*
X43976457Y17027811D01*
X44216038Y17411221D01*
X44485624Y18185366D01*
X44496650Y18283668D01*
X44497000Y18284512D01*
X44497000Y18286785D01*
X44571241Y18948661D01*
X48223358Y18948661D01*
X48303000Y18318229D01*
X48303000Y18284512D01*
X48309129Y18269716D01*
X48326099Y18135382D01*
X48606468Y17365076D01*
X48823044Y17029016D01*
X48850611Y16962463D01*
X48893709Y16919365D01*
X49050529Y16676028D01*
X49636213Y16102484D01*
X49829502Y15983572D01*
X49862463Y15950611D01*
X49925567Y15924472D01*
X50334410Y15672951D01*
X51110418Y15408776D01*
X51925670Y15323090D01*
X52595821Y15403000D01*
X52615488Y15403000D01*
X52623438Y15406293D01*
X52739646Y15420150D01*
X53511891Y15695134D01*
X53871085Y15923086D01*
X53937537Y15950611D01*
X53977622Y15990696D01*
X54204022Y16134374D01*
X54781641Y16716040D01*
X54912693Y16925767D01*
X54949389Y16962463D01*
X54976457Y17027811D01*
X55216038Y17411221D01*
X55485624Y18185366D01*
X55496650Y18283668D01*
X55497000Y18284512D01*
X55497000Y18286785D01*
X55571241Y18948661D01*
X59223358Y18948661D01*
X59303000Y18318229D01*
X59303000Y18284512D01*
X59309129Y18269716D01*
X59326099Y18135382D01*
X59606468Y17365076D01*
X59823044Y17029016D01*
X59850611Y16962463D01*
X59893709Y16919365D01*
X60050529Y16676028D01*
X60636213Y16102484D01*
X60829502Y15983572D01*
X60862463Y15950611D01*
X60925567Y15924472D01*
X61334410Y15672951D01*
X62110418Y15408776D01*
X62925670Y15323090D01*
X63595821Y15403000D01*
X63615488Y15403000D01*
X63623438Y15406293D01*
X63739646Y15420150D01*
X64511891Y15695134D01*
X64871085Y15923086D01*
X64937537Y15950611D01*
X64977622Y15990696D01*
X65204022Y16134374D01*
X65781641Y16716040D01*
X65912693Y16925767D01*
X65949389Y16962463D01*
X65976457Y17027811D01*
X66216038Y17411221D01*
X66485624Y18185366D01*
X66496650Y18283668D01*
X66497000Y18284512D01*
X66497000Y18286785D01*
X66577000Y19000000D01*
X66575566Y19102668D01*
X66497000Y19661695D01*
X66497000Y19715488D01*
X66485557Y19743113D01*
X66461480Y19914433D01*
X66170384Y20680749D01*
X65975969Y20973366D01*
X65949389Y21037537D01*
X65901551Y21085375D01*
X65716745Y21363530D01*
X65123111Y21928841D01*
X64962108Y22024818D01*
X64937537Y22049389D01*
X64882982Y22071986D01*
X64418985Y22348584D01*
X63639364Y22601898D01*
X62822995Y22676194D01*
X62229468Y22597000D01*
X62184512Y22597000D01*
X62163149Y22588151D01*
X62010453Y22567777D01*
X61242123Y22282038D01*
X60928224Y22076628D01*
X60862463Y22049389D01*
X60816766Y22003692D01*
X60556192Y21833177D01*
X59986751Y21243504D01*
X59879522Y21066448D01*
X59850611Y21037537D01*
X59825937Y20977968D01*
X59562102Y20542325D01*
X59303351Y19764491D01*
X59223358Y18948661D01*
X55571241Y18948661D01*
X55577000Y19000000D01*
X55575566Y19102668D01*
X55497000Y19661695D01*
X55497000Y19715488D01*
X55485557Y19743113D01*
X55461480Y19914433D01*
X55170384Y20680749D01*
X54975969Y20973366D01*
X54949389Y21037537D01*
X54901551Y21085375D01*
X54716745Y21363530D01*
X54123111Y21928841D01*
X53962108Y22024818D01*
X53937537Y22049389D01*
X53882982Y22071986D01*
X53418985Y22348584D01*
X52639364Y22601898D01*
X51822995Y22676194D01*
X51229468Y22597000D01*
X51184512Y22597000D01*
X51163149Y22588151D01*
X51010453Y22567777D01*
X50242123Y22282038D01*
X49928224Y22076628D01*
X49862463Y22049389D01*
X49816766Y22003692D01*
X49556192Y21833177D01*
X48986751Y21243504D01*
X48879522Y21066448D01*
X48850611Y21037537D01*
X48825937Y20977968D01*
X48562102Y20542325D01*
X48303351Y19764491D01*
X48223358Y18948661D01*
X44571241Y18948661D01*
X44577000Y19000000D01*
X44575566Y19102668D01*
X44497000Y19661695D01*
X44497000Y19715488D01*
X44485557Y19743113D01*
X44461480Y19914433D01*
X44170384Y20680749D01*
X43975969Y20973366D01*
X43949389Y21037537D01*
X43901551Y21085375D01*
X43716745Y21363530D01*
X43123111Y21928841D01*
X42962108Y22024818D01*
X42937537Y22049389D01*
X42882982Y22071986D01*
X42418985Y22348584D01*
X41639364Y22601898D01*
X40822995Y22676194D01*
X40229468Y22597000D01*
X40184512Y22597000D01*
X40163149Y22588151D01*
X40010453Y22567777D01*
X39242123Y22282038D01*
X38928224Y22076628D01*
X38862463Y22049389D01*
X38816766Y22003692D01*
X38556192Y21833177D01*
X37986751Y21243504D01*
X37879522Y21066448D01*
X37850611Y21037537D01*
X37825937Y20977968D01*
X37562102Y20542325D01*
X37303351Y19764491D01*
X37223358Y18948661D01*
X33571241Y18948661D01*
X33577000Y19000000D01*
X33575566Y19102668D01*
X33497000Y19661695D01*
X33497000Y19715488D01*
X33485557Y19743113D01*
X33461480Y19914433D01*
X33170384Y20680749D01*
X32975969Y20973366D01*
X32949389Y21037537D01*
X32901551Y21085375D01*
X32716745Y21363530D01*
X32123111Y21928841D01*
X31962108Y22024818D01*
X31937537Y22049389D01*
X31882982Y22071986D01*
X31418985Y22348584D01*
X30639364Y22601898D01*
X29822995Y22676194D01*
X29229468Y22597000D01*
X29184512Y22597000D01*
X29163149Y22588151D01*
X29010453Y22567777D01*
X28242123Y22282038D01*
X27928224Y22076628D01*
X27862463Y22049389D01*
X27816766Y22003692D01*
X27556192Y21833177D01*
X26986751Y21243504D01*
X26879522Y21066448D01*
X26850611Y21037537D01*
X26825937Y20977968D01*
X26562102Y20542325D01*
X26303351Y19764491D01*
X26223358Y18948661D01*
X22571241Y18948661D01*
X22577000Y19000000D01*
X22575566Y19102668D01*
X22497000Y19661695D01*
X22497000Y19715488D01*
X22485557Y19743113D01*
X22461480Y19914433D01*
X22170384Y20680749D01*
X21975969Y20973366D01*
X21949389Y21037537D01*
X21901551Y21085375D01*
X21716745Y21363530D01*
X21123111Y21928841D01*
X20962108Y22024818D01*
X20937537Y22049389D01*
X20882982Y22071986D01*
X20418985Y22348584D01*
X19639364Y22601898D01*
X18822995Y22676194D01*
X18229468Y22597000D01*
X18184512Y22597000D01*
X18163149Y22588151D01*
X18010453Y22567777D01*
X17242123Y22282038D01*
X16928224Y22076628D01*
X16862463Y22049389D01*
X16816766Y22003692D01*
X16556192Y21833177D01*
X15986751Y21243504D01*
X15879522Y21066448D01*
X15850611Y21037537D01*
X15825937Y20977968D01*
X15562102Y20542325D01*
X15303351Y19764491D01*
X15223358Y18948661D01*
X11571241Y18948661D01*
X11577000Y19000000D01*
X11575566Y19102668D01*
X11497000Y19661695D01*
X11497000Y19715488D01*
X11485557Y19743113D01*
X11461480Y19914433D01*
X11170384Y20680749D01*
X10975969Y20973366D01*
X10949389Y21037537D01*
X10901551Y21085375D01*
X10716745Y21363530D01*
X10123111Y21928841D01*
X9962108Y22024818D01*
X9937537Y22049389D01*
X9882982Y22071986D01*
X9418985Y22348584D01*
X8639364Y22601898D01*
X7822995Y22676194D01*
X7229468Y22597000D01*
X7184512Y22597000D01*
X7163149Y22588151D01*
X7010453Y22567777D01*
X6242123Y22282038D01*
X5928224Y22076628D01*
X5862463Y22049389D01*
X5816766Y22003692D01*
X5556192Y21833177D01*
X4986751Y21243504D01*
X4879522Y21066448D01*
X4850611Y21037537D01*
X4825937Y20977968D01*
X4562102Y20542325D01*
X4303351Y19764491D01*
X4223358Y18948661D01*
X407000Y18948661D01*
X407000Y33948661D01*
X15223358Y33948661D01*
X15303000Y33318229D01*
X15303000Y33284512D01*
X15309129Y33269716D01*
X15326099Y33135382D01*
X15606468Y32365076D01*
X15823044Y32029016D01*
X15850611Y31962463D01*
X15893709Y31919365D01*
X16050529Y31676028D01*
X16636213Y31102484D01*
X16829502Y30983572D01*
X16862463Y30950611D01*
X16925567Y30924472D01*
X17334410Y30672951D01*
X18110418Y30408776D01*
X18925670Y30323090D01*
X19595821Y30403000D01*
X19615488Y30403000D01*
X19623438Y30406293D01*
X19739646Y30420150D01*
X20511891Y30695134D01*
X20871085Y30923086D01*
X20937537Y30950611D01*
X20977622Y30990696D01*
X21204022Y31134374D01*
X21781641Y31716040D01*
X21912693Y31925767D01*
X21949389Y31962463D01*
X21976457Y32027811D01*
X22216038Y32411221D01*
X22485624Y33185366D01*
X22496650Y33283668D01*
X22497000Y33284512D01*
X22497000Y33286785D01*
X22571241Y33948661D01*
X26223358Y33948661D01*
X26303000Y33318229D01*
X26303000Y33284512D01*
X26309129Y33269716D01*
X26326099Y33135382D01*
X26606468Y32365076D01*
X26823044Y32029016D01*
X26850611Y31962463D01*
X26893709Y31919365D01*
X27050529Y31676028D01*
X27636213Y31102484D01*
X27829502Y30983572D01*
X27862463Y30950611D01*
X27925567Y30924472D01*
X28334410Y30672951D01*
X29110418Y30408776D01*
X29925670Y30323090D01*
X30595821Y30403000D01*
X30615488Y30403000D01*
X30623438Y30406293D01*
X30739646Y30420150D01*
X31511891Y30695134D01*
X31871085Y30923086D01*
X31937537Y30950611D01*
X31977622Y30990696D01*
X32204022Y31134374D01*
X32781641Y31716040D01*
X32912693Y31925767D01*
X32949389Y31962463D01*
X32976457Y32027811D01*
X33216038Y32411221D01*
X33485624Y33185366D01*
X33496650Y33283668D01*
X33497000Y33284512D01*
X33497000Y33286785D01*
X33571241Y33948661D01*
X37223358Y33948661D01*
X37303000Y33318229D01*
X37303000Y33284512D01*
X37309129Y33269716D01*
X37326099Y33135382D01*
X37606468Y32365076D01*
X37823044Y32029016D01*
X37850611Y31962463D01*
X37893709Y31919365D01*
X38050529Y31676028D01*
X38636213Y31102484D01*
X38829502Y30983572D01*
X38862463Y30950611D01*
X38925567Y30924472D01*
X39334410Y30672951D01*
X40110418Y30408776D01*
X40925670Y30323090D01*
X41595821Y30403000D01*
X41615488Y30403000D01*
X41623438Y30406293D01*
X41739646Y30420150D01*
X42511891Y30695134D01*
X42871085Y30923086D01*
X42937537Y30950611D01*
X42977622Y30990696D01*
X43204022Y31134374D01*
X43781641Y31716040D01*
X43912693Y31925767D01*
X43949389Y31962463D01*
X43976457Y32027811D01*
X44216038Y32411221D01*
X44485624Y33185366D01*
X44496650Y33283668D01*
X44497000Y33284512D01*
X44497000Y33286785D01*
X44571241Y33948661D01*
X48223358Y33948661D01*
X48303000Y33318229D01*
X48303000Y33284512D01*
X48309129Y33269716D01*
X48326099Y33135382D01*
X48606468Y32365076D01*
X48823044Y32029016D01*
X48850611Y31962463D01*
X48893709Y31919365D01*
X49050529Y31676028D01*
X49636213Y31102484D01*
X49829502Y30983572D01*
X49862463Y30950611D01*
X49925567Y30924472D01*
X50334410Y30672951D01*
X51110418Y30408776D01*
X51925670Y30323090D01*
X52595821Y30403000D01*
X52615488Y30403000D01*
X52623438Y30406293D01*
X52739646Y30420150D01*
X53511891Y30695134D01*
X53871085Y30923086D01*
X53937537Y30950611D01*
X53977622Y30990696D01*
X54204022Y31134374D01*
X54781641Y31716040D01*
X54912693Y31925767D01*
X54949389Y31962463D01*
X54976457Y32027811D01*
X55216038Y32411221D01*
X55485624Y33185366D01*
X55496650Y33283668D01*
X55497000Y33284512D01*
X55497000Y33286785D01*
X55577000Y34000000D01*
X55575566Y34102668D01*
X55497000Y34661695D01*
X55497000Y34715488D01*
X55485557Y34743113D01*
X55461480Y34914433D01*
X55170384Y35680749D01*
X54975969Y35973366D01*
X54949389Y36037537D01*
X54901551Y36085375D01*
X54716745Y36363530D01*
X54123111Y36928841D01*
X53962108Y37024818D01*
X53937537Y37049389D01*
X53882982Y37071986D01*
X53418985Y37348584D01*
X52639364Y37601898D01*
X51822995Y37676194D01*
X51229468Y37597000D01*
X51184512Y37597000D01*
X51163149Y37588151D01*
X51010453Y37567777D01*
X50242123Y37282038D01*
X49928224Y37076628D01*
X49862463Y37049389D01*
X49816766Y37003692D01*
X49556192Y36833177D01*
X48986751Y36243504D01*
X48879522Y36066448D01*
X48850611Y36037537D01*
X48825937Y35977968D01*
X48562102Y35542325D01*
X48303351Y34764491D01*
X48223358Y33948661D01*
X44571241Y33948661D01*
X44577000Y34000000D01*
X44575566Y34102668D01*
X44497000Y34661695D01*
X44497000Y34715488D01*
X44485557Y34743113D01*
X44461480Y34914433D01*
X44170384Y35680749D01*
X43975969Y35973366D01*
X43949389Y36037537D01*
X43901551Y36085375D01*
X43716745Y36363530D01*
X43123111Y36928841D01*
X42962108Y37024818D01*
X42937537Y37049389D01*
X42882982Y37071986D01*
X42418985Y37348584D01*
X41639364Y37601898D01*
X40822995Y37676194D01*
X40229468Y37597000D01*
X40184512Y37597000D01*
X40163149Y37588151D01*
X40010453Y37567777D01*
X39242123Y37282038D01*
X38928224Y37076628D01*
X38862463Y37049389D01*
X38816766Y37003692D01*
X38556192Y36833177D01*
X37986751Y36243504D01*
X37879522Y36066448D01*
X37850611Y36037537D01*
X37825937Y35977968D01*
X37562102Y35542325D01*
X37303351Y34764491D01*
X37223358Y33948661D01*
X33571241Y33948661D01*
X33577000Y34000000D01*
X33575566Y34102668D01*
X33497000Y34661695D01*
X33497000Y34715488D01*
X33485557Y34743113D01*
X33461480Y34914433D01*
X33170384Y35680749D01*
X32975969Y35973366D01*
X32949389Y36037537D01*
X32901551Y36085375D01*
X32716745Y36363530D01*
X32123111Y36928841D01*
X31962108Y37024818D01*
X31937537Y37049389D01*
X31882982Y37071986D01*
X31418985Y37348584D01*
X30639364Y37601898D01*
X29822995Y37676194D01*
X29229468Y37597000D01*
X29184512Y37597000D01*
X29163149Y37588151D01*
X29010453Y37567777D01*
X28242123Y37282038D01*
X27928224Y37076628D01*
X27862463Y37049389D01*
X27816766Y37003692D01*
X27556192Y36833177D01*
X26986751Y36243504D01*
X26879522Y36066448D01*
X26850611Y36037537D01*
X26825937Y35977968D01*
X26562102Y35542325D01*
X26303351Y34764491D01*
X26223358Y33948661D01*
X22571241Y33948661D01*
X22577000Y34000000D01*
X22575566Y34102668D01*
X22497000Y34661695D01*
X22497000Y34715488D01*
X22485557Y34743113D01*
X22461480Y34914433D01*
X22170384Y35680749D01*
X21975969Y35973366D01*
X21949389Y36037537D01*
X21901551Y36085375D01*
X21716745Y36363530D01*
X21123111Y36928841D01*
X20962108Y37024818D01*
X20937537Y37049389D01*
X20882982Y37071986D01*
X20418985Y37348584D01*
X19639364Y37601898D01*
X18822995Y37676194D01*
X18229468Y37597000D01*
X18184512Y37597000D01*
X18163149Y37588151D01*
X18010453Y37567777D01*
X17242123Y37282038D01*
X16928224Y37076628D01*
X16862463Y37049389D01*
X16816766Y37003692D01*
X16556192Y36833177D01*
X15986751Y36243504D01*
X15879522Y36066448D01*
X15850611Y36037537D01*
X15825937Y35977968D01*
X15562102Y35542325D01*
X15303351Y34764491D01*
X15223358Y33948661D01*
X407000Y33948661D01*
X407000Y52000000D01*
X8723000Y52000000D01*
X8803000Y51238847D01*
X8803000Y51185056D01*
X8810576Y51166766D01*
X8814277Y51131553D01*
X9084121Y50301061D01*
X9385089Y49779769D01*
X9426731Y49679236D01*
X9465535Y49640432D01*
X9520736Y49544821D01*
X10105041Y48895884D01*
X10489166Y48616801D01*
X10579236Y48526731D01*
X10658097Y48494066D01*
X10811500Y48382612D01*
X11609236Y48027437D01*
X11969522Y47950856D01*
X12085056Y47903000D01*
X12194666Y47903000D01*
X12463385Y47845882D01*
X13336615Y47845882D01*
X13605334Y47903000D01*
X13714944Y47903000D01*
X13830478Y47950856D01*
X14190764Y48027437D01*
X14988500Y48382612D01*
X15141903Y48494066D01*
X15220764Y48526731D01*
X15310834Y48616801D01*
X15694959Y48895884D01*
X16279264Y49544821D01*
X16334465Y49640432D01*
X16373269Y49679236D01*
X16414911Y49779769D01*
X16715879Y50301061D01*
X16985723Y51131553D01*
X16989424Y51166766D01*
X16997000Y51185056D01*
X16997000Y51238847D01*
X17077000Y52000000D01*
X53723000Y52000000D01*
X53803000Y51238847D01*
X53803000Y51185056D01*
X53810576Y51166766D01*
X53814277Y51131553D01*
X54084121Y50301061D01*
X54385089Y49779769D01*
X54426731Y49679236D01*
X54465535Y49640432D01*
X54520736Y49544821D01*
X55105041Y48895884D01*
X55489166Y48616801D01*
X55579236Y48526731D01*
X55658097Y48494066D01*
X55811500Y48382612D01*
X56609236Y48027437D01*
X56969522Y47950856D01*
X57085056Y47903000D01*
X57194666Y47903000D01*
X57463385Y47845882D01*
X58336615Y47845882D01*
X58605334Y47903000D01*
X58714944Y47903000D01*
X58830478Y47950856D01*
X59190764Y48027437D01*
X59988500Y48382612D01*
X60141903Y48494066D01*
X60220764Y48526731D01*
X60310834Y48616801D01*
X60694959Y48895884D01*
X61279264Y49544821D01*
X61334465Y49640432D01*
X61373269Y49679236D01*
X61414911Y49779769D01*
X61715879Y50301061D01*
X61985723Y51131553D01*
X61989424Y51166766D01*
X61997000Y51185056D01*
X61997000Y51238847D01*
X62077000Y52000000D01*
X61997000Y52761153D01*
X61997000Y52814944D01*
X61989424Y52833234D01*
X61985723Y52868447D01*
X61715879Y53698939D01*
X61414911Y54220231D01*
X61373269Y54320764D01*
X61334465Y54359568D01*
X61279264Y54455179D01*
X60694959Y55104116D01*
X60310834Y55383199D01*
X60220764Y55473269D01*
X60141903Y55505934D01*
X59988500Y55617388D01*
X59190764Y55972563D01*
X58830478Y56049144D01*
X58714944Y56097000D01*
X58605334Y56097000D01*
X58336615Y56154118D01*
X57463385Y56154118D01*
X57194666Y56097000D01*
X57085056Y56097000D01*
X56969522Y56049144D01*
X56609236Y55972563D01*
X55811500Y55617388D01*
X55658097Y55505934D01*
X55579236Y55473269D01*
X55489166Y55383199D01*
X55105041Y55104116D01*
X54520736Y54455179D01*
X54465535Y54359568D01*
X54426731Y54320764D01*
X54385089Y54220231D01*
X54084121Y53698939D01*
X53814277Y52868447D01*
X53810576Y52833234D01*
X53803000Y52814944D01*
X53803000Y52761153D01*
X53723000Y52000000D01*
X17077000Y52000000D01*
X16997000Y52761153D01*
X16997000Y52814944D01*
X16989424Y52833234D01*
X16985723Y52868447D01*
X16715879Y53698939D01*
X16414911Y54220231D01*
X16373269Y54320764D01*
X16334465Y54359568D01*
X16279264Y54455179D01*
X15694959Y55104116D01*
X15310834Y55383199D01*
X15220764Y55473269D01*
X15141903Y55505934D01*
X14988500Y55617388D01*
X14190764Y55972563D01*
X13830478Y56049144D01*
X13714944Y56097000D01*
X13605334Y56097000D01*
X13336615Y56154118D01*
X12463385Y56154118D01*
X12194666Y56097000D01*
X12085056Y56097000D01*
X11969522Y56049144D01*
X11609236Y55972563D01*
X10811500Y55617388D01*
X10658097Y55505934D01*
X10579236Y55473269D01*
X10489166Y55383199D01*
X10105041Y55104116D01*
X9520736Y54455179D01*
X9465535Y54359568D01*
X9426731Y54320764D01*
X9385089Y54220231D01*
X9084121Y53698939D01*
X8814277Y52868447D01*
X8810576Y52833234D01*
X8803000Y52814944D01*
X8803000Y52761153D01*
X8723000Y52000000D01*
X407000Y52000000D01*
X407000Y64500000D01*
X31223000Y64500000D01*
X31303000Y63738847D01*
X31303000Y63685056D01*
X31310576Y63666766D01*
X31314277Y63631553D01*
X31584121Y62801061D01*
X31885089Y62279769D01*
X31926731Y62179236D01*
X31965535Y62140432D01*
X32020736Y62044821D01*
X32605041Y61395884D01*
X32989166Y61116801D01*
X33079236Y61026731D01*
X33158097Y60994066D01*
X33311500Y60882612D01*
X34109236Y60527437D01*
X34469522Y60450856D01*
X34585056Y60403000D01*
X34694666Y60403000D01*
X34963385Y60345882D01*
X35836615Y60345882D01*
X36105334Y60403000D01*
X36214944Y60403000D01*
X36330478Y60450856D01*
X36690764Y60527437D01*
X37488500Y60882612D01*
X37641903Y60994066D01*
X37720764Y61026731D01*
X37810834Y61116801D01*
X38194959Y61395884D01*
X38779264Y62044821D01*
X38834465Y62140432D01*
X38873269Y62179236D01*
X38914911Y62279769D01*
X39215879Y62801061D01*
X39485723Y63631553D01*
X39489424Y63666766D01*
X39497000Y63685056D01*
X39497000Y63738847D01*
X39577000Y64500000D01*
X39497000Y65261153D01*
X39497000Y65314944D01*
X39489424Y65333234D01*
X39485723Y65368447D01*
X39215879Y66198939D01*
X38914911Y66720231D01*
X38873269Y66820764D01*
X38834465Y66859568D01*
X38779264Y66955179D01*
X38194959Y67604116D01*
X37810834Y67883199D01*
X37720764Y67973269D01*
X37641903Y68005934D01*
X37488500Y68117388D01*
X36690764Y68472563D01*
X36330478Y68549144D01*
X36214944Y68597000D01*
X36105334Y68597000D01*
X35836615Y68654118D01*
X34963385Y68654118D01*
X34694666Y68597000D01*
X34585056Y68597000D01*
X34469522Y68549144D01*
X34109236Y68472563D01*
X33311500Y68117388D01*
X33158097Y68005934D01*
X33079236Y67973269D01*
X32989166Y67883199D01*
X32605041Y67604116D01*
X32020736Y66955179D01*
X31965535Y66859568D01*
X31926731Y66820764D01*
X31885089Y66720231D01*
X31584121Y66198939D01*
X31314277Y65368447D01*
X31310576Y65333234D01*
X31303000Y65314944D01*
X31303000Y65261153D01*
X31223000Y64500000D01*
X407000Y64500000D01*
X407000Y77000000D01*
X8723000Y77000000D01*
X8803000Y76238847D01*
X8803000Y76185056D01*
X8810576Y76166766D01*
X8814277Y76131553D01*
X9084121Y75301061D01*
X9385089Y74779769D01*
X9426731Y74679236D01*
X9465535Y74640432D01*
X9520736Y74544821D01*
X10105041Y73895884D01*
X10489166Y73616801D01*
X10579236Y73526731D01*
X10658097Y73494066D01*
X10811500Y73382612D01*
X11609236Y73027437D01*
X11969522Y72950856D01*
X12085056Y72903000D01*
X12194666Y72903000D01*
X12463385Y72845882D01*
X13336615Y72845882D01*
X13605334Y72903000D01*
X13714944Y72903000D01*
X13830478Y72950856D01*
X14190764Y73027437D01*
X14988500Y73382612D01*
X15141903Y73494066D01*
X15220764Y73526731D01*
X15310834Y73616801D01*
X15694959Y73895884D01*
X16279264Y74544821D01*
X16334465Y74640432D01*
X16373269Y74679236D01*
X16414911Y74779769D01*
X16715879Y75301061D01*
X16985723Y76131553D01*
X16989424Y76166766D01*
X16997000Y76185056D01*
X16997000Y76238847D01*
X17077000Y77000000D01*
X53723000Y77000000D01*
X53803000Y76238847D01*
X53803000Y76185056D01*
X53810576Y76166766D01*
X53814277Y76131553D01*
X54084121Y75301061D01*
X54385089Y74779769D01*
X54426731Y74679236D01*
X54465535Y74640432D01*
X54520736Y74544821D01*
X55105041Y73895884D01*
X55489166Y73616801D01*
X55579236Y73526731D01*
X55658097Y73494066D01*
X55811500Y73382612D01*
X56609236Y73027437D01*
X56969522Y72950856D01*
X57085056Y72903000D01*
X57194666Y72903000D01*
X57463385Y72845882D01*
X58336615Y72845882D01*
X58605334Y72903000D01*
X58714944Y72903000D01*
X58830478Y72950856D01*
X59190764Y73027437D01*
X59988500Y73382612D01*
X60141903Y73494066D01*
X60220764Y73526731D01*
X60310834Y73616801D01*
X60694959Y73895884D01*
X61279264Y74544821D01*
X61334465Y74640432D01*
X61373269Y74679236D01*
X61414911Y74779769D01*
X61715879Y75301061D01*
X61985723Y76131553D01*
X61989424Y76166766D01*
X61997000Y76185056D01*
X61997000Y76238847D01*
X62077000Y77000000D01*
X61997000Y77761153D01*
X61997000Y77814944D01*
X61989424Y77833234D01*
X61985723Y77868447D01*
X61715879Y78698939D01*
X61414911Y79220231D01*
X61373269Y79320764D01*
X61334465Y79359568D01*
X61279264Y79455179D01*
X60694959Y80104116D01*
X60310834Y80383199D01*
X60220764Y80473269D01*
X60141903Y80505934D01*
X59988500Y80617388D01*
X59190764Y80972563D01*
X58830478Y81049144D01*
X58714944Y81097000D01*
X58605334Y81097000D01*
X58336615Y81154118D01*
X57463385Y81154118D01*
X57194666Y81097000D01*
X57085056Y81097000D01*
X56969522Y81049144D01*
X56609236Y80972563D01*
X55811500Y80617388D01*
X55658097Y80505934D01*
X55579236Y80473269D01*
X55489166Y80383199D01*
X55105041Y80104116D01*
X54520736Y79455179D01*
X54465535Y79359568D01*
X54426731Y79320764D01*
X54385089Y79220231D01*
X54084121Y78698939D01*
X53814277Y77868447D01*
X53810576Y77833234D01*
X53803000Y77814944D01*
X53803000Y77761153D01*
X53723000Y77000000D01*
X17077000Y77000000D01*
X16997000Y77761153D01*
X16997000Y77814944D01*
X16989424Y77833234D01*
X16985723Y77868447D01*
X16715879Y78698939D01*
X16414911Y79220231D01*
X16373269Y79320764D01*
X16334465Y79359568D01*
X16279264Y79455179D01*
X15694959Y80104116D01*
X15310834Y80383199D01*
X15220764Y80473269D01*
X15141903Y80505934D01*
X14988500Y80617388D01*
X14190764Y80972563D01*
X13830478Y81049144D01*
X13714944Y81097000D01*
X13605334Y81097000D01*
X13336615Y81154118D01*
X12463385Y81154118D01*
X12194666Y81097000D01*
X12085056Y81097000D01*
X11969522Y81049144D01*
X11609236Y80972563D01*
X10811500Y80617388D01*
X10658097Y80505934D01*
X10579236Y80473269D01*
X10489166Y80383199D01*
X10105041Y80104116D01*
X9520736Y79455179D01*
X9465535Y79359568D01*
X9426731Y79320764D01*
X9385089Y79220231D01*
X9084121Y78698939D01*
X8814277Y77868447D01*
X8810576Y77833234D01*
X8803000Y77814944D01*
X8803000Y77761153D01*
X8723000Y77000000D01*
X407000Y77000000D01*
X407000Y95948661D01*
X9223358Y95948661D01*
X9303000Y95318229D01*
X9303000Y95284512D01*
X9309129Y95269716D01*
X9326099Y95135382D01*
X9606468Y94365076D01*
X9823044Y94029016D01*
X9850611Y93962463D01*
X9893709Y93919365D01*
X10050529Y93676028D01*
X10636213Y93102484D01*
X10829502Y92983572D01*
X10862463Y92950611D01*
X10925567Y92924472D01*
X11334410Y92672951D01*
X12110418Y92408776D01*
X12925670Y92323090D01*
X13595821Y92403000D01*
X13615488Y92403000D01*
X13623438Y92406293D01*
X13739646Y92420150D01*
X14511891Y92695134D01*
X14871085Y92923086D01*
X14937537Y92950611D01*
X14977622Y92990696D01*
X15204022Y93134374D01*
X15781641Y93716040D01*
X15912693Y93925767D01*
X15949389Y93962463D01*
X15976457Y94027811D01*
X16216038Y94411221D01*
X16485624Y95185366D01*
X16496650Y95283668D01*
X16497000Y95284512D01*
X16497000Y95286785D01*
X16571241Y95948661D01*
X54223358Y95948661D01*
X54303000Y95318229D01*
X54303000Y95284512D01*
X54309129Y95269716D01*
X54326099Y95135382D01*
X54606468Y94365076D01*
X54823044Y94029016D01*
X54850611Y93962463D01*
X54893709Y93919365D01*
X55050529Y93676028D01*
X55636213Y93102484D01*
X55829502Y92983572D01*
X55862463Y92950611D01*
X55925567Y92924472D01*
X56334410Y92672951D01*
X57110418Y92408776D01*
X57925670Y92323090D01*
X58595821Y92403000D01*
X58615488Y92403000D01*
X58623438Y92406293D01*
X58739646Y92420150D01*
X59511891Y92695134D01*
X59871085Y92923086D01*
X59937537Y92950611D01*
X59977622Y92990696D01*
X60204022Y93134374D01*
X60781641Y93716040D01*
X60912693Y93925767D01*
X60949389Y93962463D01*
X60976457Y94027811D01*
X61216038Y94411221D01*
X61485624Y95185366D01*
X61496650Y95283668D01*
X61497000Y95284512D01*
X61497000Y95286785D01*
X61577000Y96000000D01*
X61575566Y96102668D01*
X61497000Y96661695D01*
X61497000Y96715488D01*
X61485557Y96743113D01*
X61461480Y96914433D01*
X61170384Y97680749D01*
X60975969Y97973366D01*
X60949389Y98037537D01*
X60901551Y98085375D01*
X60716745Y98363530D01*
X60123111Y98928841D01*
X59962108Y99024818D01*
X59937537Y99049389D01*
X59882982Y99071986D01*
X59418985Y99348584D01*
X58639364Y99601898D01*
X57822995Y99676194D01*
X57229468Y99597000D01*
X57184512Y99597000D01*
X57163149Y99588151D01*
X57010453Y99567777D01*
X56242123Y99282038D01*
X55928224Y99076628D01*
X55862463Y99049389D01*
X55816766Y99003692D01*
X55556192Y98833177D01*
X54986751Y98243504D01*
X54879522Y98066448D01*
X54850611Y98037537D01*
X54825937Y97977968D01*
X54562102Y97542325D01*
X54303351Y96764491D01*
X54223358Y95948661D01*
X16571241Y95948661D01*
X16577000Y96000000D01*
X16575566Y96102668D01*
X16497000Y96661695D01*
X16497000Y96715488D01*
X16485557Y96743113D01*
X16461480Y96914433D01*
X16170384Y97680749D01*
X15975969Y97973366D01*
X15949389Y98037537D01*
X15901551Y98085375D01*
X15716745Y98363530D01*
X15123111Y98928841D01*
X14962108Y99024818D01*
X14937537Y99049389D01*
X14882982Y99071986D01*
X14418985Y99348584D01*
X13639364Y99601898D01*
X12822995Y99676194D01*
X12229468Y99597000D01*
X12184512Y99597000D01*
X12163149Y99588151D01*
X12010453Y99567777D01*
X11242123Y99282038D01*
X10928224Y99076628D01*
X10862463Y99049389D01*
X10816766Y99003692D01*
X10556192Y98833177D01*
X9986751Y98243504D01*
X9879522Y98066448D01*
X9850611Y98037537D01*
X9825937Y97977968D01*
X9562102Y97542325D01*
X9303351Y96764491D01*
X9223358Y95948661D01*
X407000Y95948661D01*
X407000Y105000000D01*
X31223000Y105000000D01*
X31303000Y104238847D01*
X31303000Y104185056D01*
X31310576Y104166766D01*
X31314277Y104131553D01*
X31584121Y103301061D01*
X31885089Y102779769D01*
X31926731Y102679236D01*
X31965535Y102640432D01*
X32020736Y102544821D01*
X32605041Y101895884D01*
X32989166Y101616801D01*
X33079236Y101526731D01*
X33158097Y101494066D01*
X33311500Y101382612D01*
X34109236Y101027437D01*
X34469522Y100950856D01*
X34585056Y100903000D01*
X34694666Y100903000D01*
X34963385Y100845882D01*
X35836615Y100845882D01*
X36105334Y100903000D01*
X36214944Y100903000D01*
X36330478Y100950856D01*
X36690764Y101027437D01*
X37488500Y101382612D01*
X37641903Y101494066D01*
X37720764Y101526731D01*
X37810834Y101616801D01*
X38194959Y101895884D01*
X38779264Y102544821D01*
X38834465Y102640432D01*
X38873269Y102679236D01*
X38914911Y102779769D01*
X39215879Y103301061D01*
X39485723Y104131553D01*
X39489424Y104166766D01*
X39497000Y104185056D01*
X39497000Y104238847D01*
X39577000Y105000000D01*
X39497000Y105761153D01*
X39497000Y105814944D01*
X39489424Y105833234D01*
X39485723Y105868447D01*
X39215879Y106698939D01*
X38914911Y107220231D01*
X38873269Y107320764D01*
X38834465Y107359568D01*
X38779264Y107455179D01*
X38194959Y108104116D01*
X37810834Y108383199D01*
X37720764Y108473269D01*
X37641903Y108505934D01*
X37488500Y108617388D01*
X36690764Y108972563D01*
X36330478Y109049144D01*
X36214944Y109097000D01*
X36105334Y109097000D01*
X35836615Y109154118D01*
X34963385Y109154118D01*
X34694666Y109097000D01*
X34585056Y109097000D01*
X34469522Y109049144D01*
X34109236Y108972563D01*
X33311500Y108617388D01*
X33158097Y108505934D01*
X33079236Y108473269D01*
X32989166Y108383199D01*
X32605041Y108104116D01*
X32020736Y107455179D01*
X31965535Y107359568D01*
X31926731Y107320764D01*
X31885089Y107220231D01*
X31584121Y106698939D01*
X31314277Y105868447D01*
X31310576Y105833234D01*
X31303000Y105814944D01*
X31303000Y105761153D01*
X31223000Y105000000D01*
X407000Y105000000D01*
X407000Y112000000D01*
X16373000Y112000000D01*
X16472208Y111373623D01*
X16760123Y110808559D01*
X17208559Y110360123D01*
X17773623Y110072208D01*
X18400000Y109973000D01*
X19026377Y110072208D01*
X19591441Y110360123D01*
X20039877Y110808559D01*
X20327792Y111373623D01*
X20427000Y112000000D01*
X50373000Y112000000D01*
X50472208Y111373623D01*
X50760123Y110808559D01*
X51208559Y110360123D01*
X51773623Y110072208D01*
X52400000Y109973000D01*
X53026377Y110072208D01*
X53591441Y110360123D01*
X54039877Y110808559D01*
X54327792Y111373623D01*
X54427000Y112000000D01*
X54327792Y112626377D01*
X54039877Y113191441D01*
X53591441Y113639877D01*
X53026377Y113927792D01*
X52400000Y114027000D01*
X51773623Y113927792D01*
X51208559Y113639877D01*
X50760123Y113191441D01*
X50472208Y112626377D01*
X50373000Y112000000D01*
X20427000Y112000000D01*
X20327792Y112626377D01*
X20039877Y113191441D01*
X19591441Y113639877D01*
X19026377Y113927792D01*
X18400000Y114027000D01*
X17773623Y113927792D01*
X17208559Y113639877D01*
X16760123Y113191441D01*
X16472208Y112626377D01*
X16373000Y112000000D01*
X407000Y112000000D01*
X407000Y125563669D01*
X4598011Y125563669D01*
X4598011Y125436331D01*
X4676321Y124941905D01*
X4676321Y124941904D01*
X4715670Y124820799D01*
X4942933Y124374770D01*
X5017781Y124271752D01*
X5371752Y123917780D01*
X5474770Y123842933D01*
X5920799Y123615670D01*
X6041904Y123576321D01*
X6528449Y123499259D01*
X6559917Y123493000D01*
X8440083Y123493000D01*
X8471551Y123499259D01*
X8958096Y123576321D01*
X9079201Y123615670D01*
X9525230Y123842933D01*
X9628248Y123917781D01*
X9982220Y124271752D01*
X10057067Y124374770D01*
X10284330Y124820799D01*
X10323679Y124941904D01*
X10323679Y124941905D01*
X10401989Y125436331D01*
X10401989Y125563669D01*
X60498011Y125563669D01*
X60498011Y125436331D01*
X60576321Y124941905D01*
X60576321Y124941904D01*
X60615670Y124820799D01*
X60842933Y124374770D01*
X60917781Y124271752D01*
X61271752Y123917780D01*
X61374770Y123842933D01*
X61820799Y123615670D01*
X61941904Y123576321D01*
X62428449Y123499259D01*
X62459917Y123493000D01*
X64340083Y123493000D01*
X64371551Y123499259D01*
X64858096Y123576321D01*
X64979201Y123615670D01*
X65425230Y123842933D01*
X65528248Y123917781D01*
X65882220Y124271752D01*
X65957067Y124374770D01*
X66184330Y124820799D01*
X66223679Y124941904D01*
X66223679Y124941905D01*
X66301989Y125436331D01*
X66301989Y125563669D01*
X66223679Y126058096D01*
X66217272Y126077816D01*
X66184330Y126179201D01*
X65957067Y126625230D01*
X65904188Y126698011D01*
X65882220Y126728248D01*
X65528248Y127082219D01*
X65425230Y127157067D01*
X64979201Y127384330D01*
X64858096Y127423679D01*
X64371551Y127500741D01*
X64340083Y127507000D01*
X62459917Y127507000D01*
X62428449Y127500741D01*
X61941904Y127423679D01*
X61820799Y127384330D01*
X61374770Y127157067D01*
X61271752Y127082220D01*
X60917781Y126728248D01*
X60842933Y126625230D01*
X60615670Y126179201D01*
X60576321Y126058096D01*
X60498011Y125563669D01*
X10401989Y125563669D01*
X10323679Y126058096D01*
X10317272Y126077816D01*
X10284330Y126179201D01*
X10057067Y126625230D01*
X10004188Y126698011D01*
X9982220Y126728248D01*
X9628248Y127082219D01*
X9525230Y127157067D01*
X9079201Y127384330D01*
X8958096Y127423679D01*
X8471551Y127500741D01*
X8440083Y127507000D01*
X6559917Y127507000D01*
X6528449Y127500741D01*
X6041904Y127423679D01*
X5920799Y127384330D01*
X5474770Y127157067D01*
X5371752Y127082220D01*
X5017781Y126728248D01*
X4942933Y126625230D01*
X4715670Y126179201D01*
X4676321Y126058096D01*
X4598011Y125563669D01*
X407000Y125563669D01*
X406999Y128093000D01*
X70393001Y128093000D01*
X70393000Y407000D01*
M02*
