G04 #@! TF.FileFunction,Legend,Bot*
%FSLAX46Y46*%
G04 Gerber Fmt 4.6, Leading zero omitted, Abs format (unit mm)*
G04 Created by KiCad (PCBNEW (2016-08-20 BZR 7083)-product) date Thu Jun  8 07:23:42 2017*
%MOMM*%
%LPD*%
G01*
G04 APERTURE LIST*
%ADD10C,0.100000*%
%ADD11C,0.700000*%
%ADD12C,0.200000*%
%ADD13C,0.150000*%
G04 APERTURE END LIST*
D10*
D11*
X68100000Y90200000D02*
X1400000Y90200000D01*
D10*
X14050000Y104650000D02*
X13916666Y104183334D01*
X13783333Y104516667D01*
X13650000Y104183334D01*
X13516666Y104650000D01*
X13316666Y104650000D02*
X13183333Y104183334D01*
X13050000Y104516667D01*
X12916666Y104183334D01*
X12783333Y104650000D01*
X12583333Y104650000D02*
X12450000Y104183334D01*
X12316666Y104516667D01*
X12183333Y104183334D01*
X12050000Y104650000D01*
X11783333Y104250000D02*
X11750000Y104216667D01*
X11783333Y104183334D01*
X11816666Y104216667D01*
X11783333Y104250000D01*
X11783333Y104183334D01*
X11183333Y104216667D02*
X11250000Y104183334D01*
X11383333Y104183334D01*
X11450000Y104216667D01*
X11483333Y104283334D01*
X11483333Y104550000D01*
X11450000Y104616667D01*
X11383333Y104650000D01*
X11250000Y104650000D01*
X11183333Y104616667D01*
X11150000Y104550000D01*
X11150000Y104483334D01*
X11483333Y104416667D01*
X10850000Y104183334D02*
X10850000Y104650000D01*
X10850000Y104516667D02*
X10816666Y104583334D01*
X10783333Y104616667D01*
X10716666Y104650000D01*
X10650000Y104650000D01*
X10416666Y104183334D02*
X10416666Y104650000D01*
X10416666Y104883334D02*
X10450000Y104850000D01*
X10416666Y104816667D01*
X10383333Y104850000D01*
X10416666Y104883334D01*
X10416666Y104816667D01*
X9783333Y104216667D02*
X9850000Y104183334D01*
X9983333Y104183334D01*
X10050000Y104216667D01*
X10083333Y104250000D01*
X10116666Y104316667D01*
X10116666Y104516667D01*
X10083333Y104583334D01*
X10050000Y104616667D01*
X9983333Y104650000D01*
X9850000Y104650000D01*
X9783333Y104616667D01*
X9183333Y104183334D02*
X9183333Y104550000D01*
X9216666Y104616667D01*
X9283333Y104650000D01*
X9416666Y104650000D01*
X9483333Y104616667D01*
X9183333Y104216667D02*
X9250000Y104183334D01*
X9416666Y104183334D01*
X9483333Y104216667D01*
X9516666Y104283334D01*
X9516666Y104350000D01*
X9483333Y104416667D01*
X9416666Y104450000D01*
X9250000Y104450000D01*
X9183333Y104483334D01*
X8883333Y104216667D02*
X8816666Y104183334D01*
X8683333Y104183334D01*
X8616666Y104216667D01*
X8583333Y104283334D01*
X8583333Y104316667D01*
X8616666Y104383334D01*
X8683333Y104416667D01*
X8783333Y104416667D01*
X8850000Y104450000D01*
X8883333Y104516667D01*
X8883333Y104550000D01*
X8850000Y104616667D01*
X8783333Y104650000D01*
X8683333Y104650000D01*
X8616666Y104616667D01*
X8350000Y104650000D02*
X8183333Y104183334D01*
X8016666Y104650000D02*
X8183333Y104183334D01*
X8250000Y104016667D01*
X8283333Y103983334D01*
X8350000Y103950000D01*
X7750000Y104650000D02*
X7750000Y104183334D01*
X7750000Y104583334D02*
X7716666Y104616667D01*
X7650000Y104650000D01*
X7550000Y104650000D01*
X7483333Y104616667D01*
X7450000Y104550000D01*
X7450000Y104183334D01*
X7216666Y104650000D02*
X6950000Y104650000D01*
X7116666Y104883334D02*
X7116666Y104283334D01*
X7083333Y104216667D01*
X7016666Y104183334D01*
X6950000Y104183334D01*
X6716666Y104183334D02*
X6716666Y104883334D01*
X6416666Y104183334D02*
X6416666Y104550000D01*
X6450000Y104616667D01*
X6516666Y104650000D01*
X6616666Y104650000D01*
X6683333Y104616667D01*
X6716666Y104583334D01*
X6116666Y104216667D02*
X6050000Y104183334D01*
X5916666Y104183334D01*
X5850000Y104216667D01*
X5816666Y104283334D01*
X5816666Y104316667D01*
X5850000Y104383334D01*
X5916666Y104416667D01*
X6016666Y104416667D01*
X6083333Y104450000D01*
X6116666Y104516667D01*
X6116666Y104550000D01*
X6083333Y104616667D01*
X6016666Y104650000D01*
X5916666Y104650000D01*
X5850000Y104616667D01*
X5516666Y104250000D02*
X5483333Y104216667D01*
X5516666Y104183334D01*
X5550000Y104216667D01*
X5516666Y104250000D01*
X5516666Y104183334D01*
X5083333Y104183334D02*
X5150000Y104216667D01*
X5183333Y104283334D01*
X5183333Y104883334D01*
X4883333Y104650000D02*
X4716666Y104183334D01*
X4550000Y104650000D01*
D12*
X68114285Y103357143D02*
X67200000Y103357143D01*
X66000000Y102595239D02*
X66685714Y102595239D01*
X66342857Y102595239D02*
X66342857Y104595239D01*
X66457142Y104309524D01*
X66571428Y104119048D01*
X66685714Y104023810D01*
X65542857Y104404762D02*
X65485714Y104500000D01*
X65371428Y104595239D01*
X65085714Y104595239D01*
X64971428Y104500000D01*
X64914285Y104404762D01*
X64857142Y104214286D01*
X64857142Y104023810D01*
X64914285Y103738096D01*
X65600000Y102595239D01*
X64857142Y102595239D01*
X64514285Y104595239D02*
X64114285Y102595239D01*
X63714285Y104595239D01*
X58314285Y103457143D02*
X57400000Y103457143D01*
X57857142Y102695239D02*
X57857142Y104219048D01*
X56200000Y102695239D02*
X56885714Y102695239D01*
X56542857Y102695239D02*
X56542857Y104695239D01*
X56657142Y104409524D01*
X56771428Y104219048D01*
X56885714Y104123810D01*
X55742857Y104504762D02*
X55685714Y104600000D01*
X55571428Y104695239D01*
X55285714Y104695239D01*
X55171428Y104600000D01*
X55114285Y104504762D01*
X55057142Y104314286D01*
X55057142Y104123810D01*
X55114285Y103838096D01*
X55800000Y102695239D01*
X55057142Y102695239D01*
X54714285Y104695239D02*
X54314285Y102695239D01*
X53914285Y104695239D01*
D13*
X49876190Y64407143D02*
X49542857Y64407143D01*
X49400000Y63621429D02*
X49876190Y63621429D01*
X49876190Y65121429D01*
X49400000Y65121429D01*
X48971428Y63621429D02*
X48971428Y64621429D01*
X48971428Y64335715D02*
X48923809Y64478572D01*
X48876190Y64550000D01*
X48780952Y64621429D01*
X48685714Y64621429D01*
X48352380Y63621429D02*
X48352380Y64621429D01*
X48352380Y65121429D02*
X48400000Y65050000D01*
X48352380Y64978572D01*
X48304761Y65050000D01*
X48352380Y65121429D01*
X48352380Y64978572D01*
X47447619Y63692858D02*
X47542857Y63621429D01*
X47733333Y63621429D01*
X47828571Y63692858D01*
X47876190Y63764286D01*
X47923809Y63907143D01*
X47923809Y64335715D01*
X47876190Y64478572D01*
X47828571Y64550000D01*
X47733333Y64621429D01*
X47542857Y64621429D01*
X47447619Y64550000D01*
X46590476Y63621429D02*
X46590476Y64407143D01*
X46638095Y64550000D01*
X46733333Y64621429D01*
X46923809Y64621429D01*
X47019047Y64550000D01*
X46590476Y63692858D02*
X46685714Y63621429D01*
X46923809Y63621429D01*
X47019047Y63692858D01*
X47066666Y63835715D01*
X47066666Y63978572D01*
X47019047Y64121429D01*
X46923809Y64192858D01*
X46685714Y64192858D01*
X46590476Y64264286D01*
X45400000Y63692858D02*
X45257142Y63621429D01*
X45019047Y63621429D01*
X44923809Y63692858D01*
X44876190Y63764286D01*
X44828571Y63907143D01*
X44828571Y64050000D01*
X44876190Y64192858D01*
X44923809Y64264286D01*
X45019047Y64335715D01*
X45209523Y64407143D01*
X45304761Y64478572D01*
X45352380Y64550000D01*
X45400000Y64692858D01*
X45400000Y64835715D01*
X45352380Y64978572D01*
X45304761Y65050000D01*
X45209523Y65121429D01*
X44971428Y65121429D01*
X44828571Y65050000D01*
X44495238Y64621429D02*
X44257142Y63621429D01*
X44019047Y64621429D02*
X44257142Y63621429D01*
X44352380Y63264286D01*
X44400000Y63192858D01*
X44495238Y63121429D01*
X43638095Y64621429D02*
X43638095Y63621429D01*
X43638095Y64478572D02*
X43590476Y64550000D01*
X43495238Y64621429D01*
X43352380Y64621429D01*
X43257142Y64550000D01*
X43209523Y64407143D01*
X43209523Y63621429D01*
X42876190Y64621429D02*
X42495238Y64621429D01*
X42733333Y65121429D02*
X42733333Y63835715D01*
X42685714Y63692858D01*
X42590476Y63621429D01*
X42495238Y63621429D01*
X42161904Y63621429D02*
X42161904Y65121429D01*
X41733333Y63621429D02*
X41733333Y64407143D01*
X41780952Y64550000D01*
X41876190Y64621429D01*
X42019047Y64621429D01*
X42114285Y64550000D01*
X42161904Y64478572D01*
X41304761Y63692858D02*
X41209523Y63621429D01*
X41019047Y63621429D01*
X40923809Y63692858D01*
X40876190Y63835715D01*
X40876190Y63907143D01*
X40923809Y64050000D01*
X41019047Y64121429D01*
X41161904Y64121429D01*
X41257142Y64192858D01*
X41304761Y64335715D01*
X41304761Y64407143D01*
X41257142Y64550000D01*
X41161904Y64621429D01*
X41019047Y64621429D01*
X40923809Y64550000D01*
X49257142Y61221429D02*
X49257142Y62721429D01*
X49019047Y62721429D01*
X48876190Y62650000D01*
X48780952Y62507143D01*
X48733333Y62364286D01*
X48685714Y62078572D01*
X48685714Y61864286D01*
X48733333Y61578572D01*
X48780952Y61435715D01*
X48876190Y61292858D01*
X49019047Y61221429D01*
X49257142Y61221429D01*
X48257142Y61221429D02*
X48257142Y62721429D01*
X47590476Y61935715D02*
X47590476Y61221429D01*
X47923809Y62721429D02*
X47590476Y61935715D01*
X47257142Y62721429D01*
X46209523Y61292858D02*
X46066666Y61221429D01*
X45828571Y61221429D01*
X45733333Y61292858D01*
X45685714Y61364286D01*
X45638095Y61507143D01*
X45638095Y61650000D01*
X45685714Y61792858D01*
X45733333Y61864286D01*
X45828571Y61935715D01*
X46019047Y62007143D01*
X46114285Y62078572D01*
X46161904Y62150000D01*
X46209523Y62292858D01*
X46209523Y62435715D01*
X46161904Y62578572D01*
X46114285Y62650000D01*
X46019047Y62721429D01*
X45780952Y62721429D01*
X45638095Y62650000D01*
X45304761Y62721429D02*
X45066666Y61221429D01*
X44876190Y62292858D01*
X44685714Y61221429D01*
X44447619Y62721429D01*
X44114285Y61650000D02*
X43638095Y61650000D01*
X44209523Y61221429D02*
X43876190Y62721429D01*
X43542857Y61221429D01*
X43209523Y61221429D02*
X43209523Y62721429D01*
X42876190Y61650000D01*
X42542857Y62721429D01*
X42542857Y61221429D01*
X42066666Y61221429D02*
X42066666Y62721429D01*
X41685714Y62721429D01*
X41590476Y62650000D01*
X41542857Y62578572D01*
X41495238Y62435715D01*
X41495238Y62221429D01*
X41542857Y62078572D01*
X41590476Y62007143D01*
X41685714Y61935715D01*
X42066666Y61935715D01*
X51209523Y59821429D02*
X50971428Y58821429D01*
X50733333Y59821429D01*
X49828571Y58821429D02*
X50400000Y58821429D01*
X50114285Y58821429D02*
X50114285Y60321429D01*
X50209523Y60107143D01*
X50304761Y59964286D01*
X50400000Y59892858D01*
X49400000Y58964286D02*
X49352380Y58892858D01*
X49400000Y58821429D01*
X49447619Y58892858D01*
X49400000Y58964286D01*
X49400000Y58821429D01*
X48400000Y58821429D02*
X48971428Y58821429D01*
X48685714Y58821429D02*
X48685714Y60321429D01*
X48780952Y60107143D01*
X48876190Y59964286D01*
X48971428Y59892858D01*
X46923809Y60321429D02*
X46923809Y59250000D01*
X46971428Y59035715D01*
X47066666Y58892858D01*
X47209523Y58821429D01*
X47304761Y58821429D01*
X46019047Y59821429D02*
X46019047Y58821429D01*
X46447619Y59821429D02*
X46447619Y59035715D01*
X46400000Y58892858D01*
X46304761Y58821429D01*
X46161904Y58821429D01*
X46066666Y58892858D01*
X46019047Y58964286D01*
X45542857Y59821429D02*
X45542857Y58821429D01*
X45542857Y59678572D02*
X45495238Y59750000D01*
X45400000Y59821429D01*
X45257142Y59821429D01*
X45161904Y59750000D01*
X45114285Y59607143D01*
X45114285Y58821429D01*
X44257142Y58892858D02*
X44352380Y58821429D01*
X44542857Y58821429D01*
X44638095Y58892858D01*
X44685714Y59035715D01*
X44685714Y59607143D01*
X44638095Y59750000D01*
X44542857Y59821429D01*
X44352380Y59821429D01*
X44257142Y59750000D01*
X44209523Y59607143D01*
X44209523Y59464286D01*
X44685714Y59321429D01*
X43066666Y60178572D02*
X43019047Y60250000D01*
X42923809Y60321429D01*
X42685714Y60321429D01*
X42590476Y60250000D01*
X42542857Y60178572D01*
X42495238Y60035715D01*
X42495238Y59892858D01*
X42542857Y59678572D01*
X43114285Y58821429D01*
X42495238Y58821429D01*
X41876190Y60321429D02*
X41780952Y60321429D01*
X41685714Y60250000D01*
X41638095Y60178572D01*
X41590476Y60035715D01*
X41542857Y59750000D01*
X41542857Y59392858D01*
X41590476Y59107143D01*
X41638095Y58964286D01*
X41685714Y58892858D01*
X41780952Y58821429D01*
X41876190Y58821429D01*
X41971428Y58892858D01*
X42019047Y58964286D01*
X42066666Y59107143D01*
X42114285Y59392858D01*
X42114285Y59750000D01*
X42066666Y60035715D01*
X42019047Y60178572D01*
X41971428Y60250000D01*
X41876190Y60321429D01*
X40590476Y58821429D02*
X41161904Y58821429D01*
X40876190Y58821429D02*
X40876190Y60321429D01*
X40971428Y60107143D01*
X41066666Y59964286D01*
X41161904Y59892858D01*
X40257142Y60321429D02*
X39590476Y60321429D01*
X40019047Y58821429D01*
D10*
G36*
X35932782Y50473353D02*
X35934600Y50303799D01*
X35943211Y50000886D01*
X35958139Y49780944D01*
X35981599Y49625429D01*
X36015808Y49515795D01*
X36032933Y49480751D01*
X36174904Y49319142D01*
X36383932Y49202781D01*
X36632090Y49140846D01*
X36891451Y49142517D01*
X36996094Y49164144D01*
X37172284Y49237983D01*
X37286256Y49337637D01*
X37321279Y49446498D01*
X37313590Y49479254D01*
X37267970Y49543717D01*
X37186493Y49556413D01*
X37048178Y49517482D01*
X36958147Y49481633D01*
X36797118Y49431146D01*
X36653616Y49436654D01*
X36576969Y49456466D01*
X36407877Y49525683D01*
X36308097Y49624488D01*
X36254312Y49751671D01*
X36238476Y49825415D01*
X36271282Y49841343D01*
X36375603Y49810023D01*
X36378453Y49809030D01*
X36590241Y49770459D01*
X36821540Y49782511D01*
X37032546Y49839427D01*
X37171723Y49923803D01*
X37282417Y50039707D01*
X37352569Y50155741D01*
X37394327Y50303226D01*
X37419837Y50513484D01*
X37424878Y50576596D01*
X37428625Y50847405D01*
X37393144Y51031332D01*
X37319300Y51125303D01*
X37267000Y51137600D01*
X37178116Y51092567D01*
X37120088Y50955903D01*
X37092155Y50725264D01*
X37089200Y50590014D01*
X37082733Y50384762D01*
X37059621Y50254443D01*
X37014300Y50172992D01*
X36996300Y50154874D01*
X36859085Y50089000D01*
X36677161Y50072327D01*
X36494219Y50103978D01*
X36371531Y50167424D01*
X36310566Y50228921D01*
X36272227Y50309807D01*
X36249543Y50435897D01*
X36235542Y50633011D01*
X36233355Y50679148D01*
X36218168Y50901418D01*
X36194684Y51039166D01*
X36159210Y51109364D01*
X36136506Y51124178D01*
X36056496Y51132381D01*
X35998366Y51080530D01*
X35959868Y50959494D01*
X35938756Y50760145D01*
X35932782Y50473353D01*
X35932782Y50473353D01*
X35932782Y50473353D01*
G37*
X35932782Y50473353D02*
X35934600Y50303799D01*
X35943211Y50000886D01*
X35958139Y49780944D01*
X35981599Y49625429D01*
X36015808Y49515795D01*
X36032933Y49480751D01*
X36174904Y49319142D01*
X36383932Y49202781D01*
X36632090Y49140846D01*
X36891451Y49142517D01*
X36996094Y49164144D01*
X37172284Y49237983D01*
X37286256Y49337637D01*
X37321279Y49446498D01*
X37313590Y49479254D01*
X37267970Y49543717D01*
X37186493Y49556413D01*
X37048178Y49517482D01*
X36958147Y49481633D01*
X36797118Y49431146D01*
X36653616Y49436654D01*
X36576969Y49456466D01*
X36407877Y49525683D01*
X36308097Y49624488D01*
X36254312Y49751671D01*
X36238476Y49825415D01*
X36271282Y49841343D01*
X36375603Y49810023D01*
X36378453Y49809030D01*
X36590241Y49770459D01*
X36821540Y49782511D01*
X37032546Y49839427D01*
X37171723Y49923803D01*
X37282417Y50039707D01*
X37352569Y50155741D01*
X37394327Y50303226D01*
X37419837Y50513484D01*
X37424878Y50576596D01*
X37428625Y50847405D01*
X37393144Y51031332D01*
X37319300Y51125303D01*
X37267000Y51137600D01*
X37178116Y51092567D01*
X37120088Y50955903D01*
X37092155Y50725264D01*
X37089200Y50590014D01*
X37082733Y50384762D01*
X37059621Y50254443D01*
X37014300Y50172992D01*
X36996300Y50154874D01*
X36859085Y50089000D01*
X36677161Y50072327D01*
X36494219Y50103978D01*
X36371531Y50167424D01*
X36310566Y50228921D01*
X36272227Y50309807D01*
X36249543Y50435897D01*
X36235542Y50633011D01*
X36233355Y50679148D01*
X36218168Y50901418D01*
X36194684Y51039166D01*
X36159210Y51109364D01*
X36136506Y51124178D01*
X36056496Y51132381D01*
X35998366Y51080530D01*
X35959868Y50959494D01*
X35938756Y50760145D01*
X35932782Y50473353D01*
X35932782Y50473353D01*
G36*
X37496540Y50221686D02*
X37537640Y50044341D01*
X37658457Y49895084D01*
X37851750Y49792140D01*
X38097172Y49740515D01*
X38374375Y49745211D01*
X38584481Y49786904D01*
X38785880Y49862646D01*
X38905138Y49951306D01*
X38935285Y50045506D01*
X38894974Y50115599D01*
X38812723Y50163248D01*
X38705334Y50138054D01*
X38697897Y50134715D01*
X38518060Y50075597D01*
X38319601Y50045455D01*
X38126919Y50043133D01*
X37964411Y50067474D01*
X37856475Y50117321D01*
X37825800Y50176055D01*
X37852671Y50215732D01*
X37943205Y50244497D01*
X38112285Y50265903D01*
X38243571Y50275790D01*
X38552557Y50315048D01*
X38770889Y50388529D01*
X38904643Y50499364D01*
X38959232Y50644812D01*
X38937602Y50832632D01*
X38828602Y50979863D01*
X38640204Y51081024D01*
X38380380Y51130635D01*
X38246532Y51134733D01*
X38007706Y51114999D01*
X37805942Y51066483D01*
X37654542Y50997112D01*
X37566812Y50914808D01*
X37556054Y50827497D01*
X37613823Y50757856D01*
X37693803Y50717173D01*
X37787186Y50726552D01*
X37878892Y50760832D01*
X38056827Y50811308D01*
X38254357Y50831747D01*
X38438197Y50822516D01*
X38575063Y50783980D01*
X38616414Y50752729D01*
X38649825Y50675900D01*
X38598446Y50622798D01*
X38457349Y50591415D01*
X38221608Y50579741D01*
X38191578Y50579578D01*
X37899052Y50554358D01*
X37681961Y50483240D01*
X37545920Y50370818D01*
X37496540Y50221686D01*
X37496540Y50221686D01*
X37496540Y50221686D01*
G37*
X37496540Y50221686D02*
X37537640Y50044341D01*
X37658457Y49895084D01*
X37851750Y49792140D01*
X38097172Y49740515D01*
X38374375Y49745211D01*
X38584481Y49786904D01*
X38785880Y49862646D01*
X38905138Y49951306D01*
X38935285Y50045506D01*
X38894974Y50115599D01*
X38812723Y50163248D01*
X38705334Y50138054D01*
X38697897Y50134715D01*
X38518060Y50075597D01*
X38319601Y50045455D01*
X38126919Y50043133D01*
X37964411Y50067474D01*
X37856475Y50117321D01*
X37825800Y50176055D01*
X37852671Y50215732D01*
X37943205Y50244497D01*
X38112285Y50265903D01*
X38243571Y50275790D01*
X38552557Y50315048D01*
X38770889Y50388529D01*
X38904643Y50499364D01*
X38959232Y50644812D01*
X38937602Y50832632D01*
X38828602Y50979863D01*
X38640204Y51081024D01*
X38380380Y51130635D01*
X38246532Y51134733D01*
X38007706Y51114999D01*
X37805942Y51066483D01*
X37654542Y50997112D01*
X37566812Y50914808D01*
X37556054Y50827497D01*
X37613823Y50757856D01*
X37693803Y50717173D01*
X37787186Y50726552D01*
X37878892Y50760832D01*
X38056827Y50811308D01*
X38254357Y50831747D01*
X38438197Y50822516D01*
X38575063Y50783980D01*
X38616414Y50752729D01*
X38649825Y50675900D01*
X38598446Y50622798D01*
X38457349Y50591415D01*
X38221608Y50579741D01*
X38191578Y50579578D01*
X37899052Y50554358D01*
X37681961Y50483240D01*
X37545920Y50370818D01*
X37496540Y50221686D01*
X37496540Y50221686D01*
G36*
X30232140Y50221686D02*
X30273240Y50044341D01*
X30394428Y49894735D01*
X30589215Y49791782D01*
X30838263Y49741083D01*
X31122234Y49748237D01*
X31232136Y49766639D01*
X31462480Y49829851D01*
X31599864Y49907461D01*
X31652492Y50004468D01*
X31653600Y50023382D01*
X31626824Y50117222D01*
X31539751Y50152602D01*
X31382266Y50131363D01*
X31258840Y50095192D01*
X31070155Y50053482D01*
X30880537Y50043979D01*
X30715544Y50063795D01*
X30600735Y50110042D01*
X30561400Y50174007D01*
X30586172Y50214561D01*
X30671107Y50243481D01*
X30832131Y50264699D01*
X30972146Y50275384D01*
X31271067Y50310924D01*
X31482354Y50375863D01*
X31617056Y50475442D01*
X31686005Y50614023D01*
X31682646Y50790626D01*
X31592821Y50946693D01*
X31431607Y51058300D01*
X31397886Y51071233D01*
X31189213Y51120100D01*
X30970340Y51133485D01*
X30757494Y51116269D01*
X30566902Y51073335D01*
X30414790Y51009563D01*
X30317386Y50929837D01*
X30290916Y50839037D01*
X30340046Y50752983D01*
X30404980Y50702304D01*
X30474366Y50704372D01*
X30577962Y50752030D01*
X30746968Y50807418D01*
X30949975Y50829884D01*
X31147221Y50819134D01*
X31298943Y50774875D01*
X31326391Y50757566D01*
X31385170Y50684056D01*
X31345476Y50629525D01*
X31208766Y50594623D01*
X30976500Y50580001D01*
X30927178Y50579578D01*
X30634652Y50554358D01*
X30417561Y50483240D01*
X30281520Y50370818D01*
X30232140Y50221686D01*
X30232140Y50221686D01*
X30232140Y50221686D01*
G37*
X30232140Y50221686D02*
X30273240Y50044341D01*
X30394428Y49894735D01*
X30589215Y49791782D01*
X30838263Y49741083D01*
X31122234Y49748237D01*
X31232136Y49766639D01*
X31462480Y49829851D01*
X31599864Y49907461D01*
X31652492Y50004468D01*
X31653600Y50023382D01*
X31626824Y50117222D01*
X31539751Y50152602D01*
X31382266Y50131363D01*
X31258840Y50095192D01*
X31070155Y50053482D01*
X30880537Y50043979D01*
X30715544Y50063795D01*
X30600735Y50110042D01*
X30561400Y50174007D01*
X30586172Y50214561D01*
X30671107Y50243481D01*
X30832131Y50264699D01*
X30972146Y50275384D01*
X31271067Y50310924D01*
X31482354Y50375863D01*
X31617056Y50475442D01*
X31686005Y50614023D01*
X31682646Y50790626D01*
X31592821Y50946693D01*
X31431607Y51058300D01*
X31397886Y51071233D01*
X31189213Y51120100D01*
X30970340Y51133485D01*
X30757494Y51116269D01*
X30566902Y51073335D01*
X30414790Y51009563D01*
X30317386Y50929837D01*
X30290916Y50839037D01*
X30340046Y50752983D01*
X30404980Y50702304D01*
X30474366Y50704372D01*
X30577962Y50752030D01*
X30746968Y50807418D01*
X30949975Y50829884D01*
X31147221Y50819134D01*
X31298943Y50774875D01*
X31326391Y50757566D01*
X31385170Y50684056D01*
X31345476Y50629525D01*
X31208766Y50594623D01*
X30976500Y50580001D01*
X30927178Y50579578D01*
X30634652Y50554358D01*
X30417561Y50483240D01*
X30281520Y50370818D01*
X30232140Y50221686D01*
X30232140Y50221686D01*
G36*
X34296741Y50082829D02*
X34315202Y49900841D01*
X34365652Y49800598D01*
X34450219Y49774102D01*
X34462096Y49775403D01*
X34517757Y49791586D01*
X34553735Y49834773D01*
X34576644Y49925801D01*
X34593101Y50085511D01*
X34602230Y50216794D01*
X34632384Y50483589D01*
X34688907Y50664242D01*
X34782192Y50772947D01*
X34922630Y50823897D01*
X35053249Y50832800D01*
X35239952Y50807450D01*
X35364760Y50723669D01*
X35436223Y50569859D01*
X35462890Y50334426D01*
X35463600Y50276176D01*
X35468740Y50040709D01*
X35488272Y49889331D01*
X35528367Y49804864D01*
X35595193Y49770131D01*
X35646836Y49766000D01*
X35768400Y49766000D01*
X35768400Y50427995D01*
X35766460Y50707121D01*
X35759486Y50900277D01*
X35745746Y51023037D01*
X35723510Y51090976D01*
X35691554Y51119478D01*
X35590461Y51115543D01*
X35542401Y51088959D01*
X35448288Y51055478D01*
X35368587Y51083275D01*
X35198584Y51130462D01*
X34986349Y51131260D01*
X34778449Y51088658D01*
X34666261Y51038236D01*
X34494408Y50901124D01*
X34384204Y50726064D01*
X34323085Y50489069D01*
X34308146Y50354559D01*
X34296741Y50082829D01*
X34296741Y50082829D01*
X34296741Y50082829D01*
G37*
X34296741Y50082829D02*
X34315202Y49900841D01*
X34365652Y49800598D01*
X34450219Y49774102D01*
X34462096Y49775403D01*
X34517757Y49791586D01*
X34553735Y49834773D01*
X34576644Y49925801D01*
X34593101Y50085511D01*
X34602230Y50216794D01*
X34632384Y50483589D01*
X34688907Y50664242D01*
X34782192Y50772947D01*
X34922630Y50823897D01*
X35053249Y50832800D01*
X35239952Y50807450D01*
X35364760Y50723669D01*
X35436223Y50569859D01*
X35462890Y50334426D01*
X35463600Y50276176D01*
X35468740Y50040709D01*
X35488272Y49889331D01*
X35528367Y49804864D01*
X35595193Y49770131D01*
X35646836Y49766000D01*
X35768400Y49766000D01*
X35768400Y50427995D01*
X35766460Y50707121D01*
X35759486Y50900277D01*
X35745746Y51023037D01*
X35723510Y51090976D01*
X35691554Y51119478D01*
X35590461Y51115543D01*
X35542401Y51088959D01*
X35448288Y51055478D01*
X35368587Y51083275D01*
X35198584Y51130462D01*
X34986349Y51131260D01*
X34778449Y51088658D01*
X34666261Y51038236D01*
X34494408Y50901124D01*
X34384204Y50726064D01*
X34323085Y50489069D01*
X34308146Y50354559D01*
X34296741Y50082829D01*
X34296741Y50082829D01*
G36*
X33355988Y49943561D02*
X33359959Y49848639D01*
X33431953Y49787297D01*
X33562098Y49765348D01*
X33715295Y49781853D01*
X33856444Y49835874D01*
X33895873Y49862960D01*
X33956975Y49924791D01*
X33996325Y50007014D01*
X34021014Y50135044D01*
X34038136Y50334296D01*
X34041200Y50383660D01*
X34056865Y50594122D01*
X34076019Y50720868D01*
X34103345Y50781779D01*
X34143529Y50794731D01*
X34148724Y50794030D01*
X34252216Y50819834D01*
X34317582Y50906483D01*
X34317182Y51001191D01*
X34246765Y51072212D01*
X34176605Y51096530D01*
X34113504Y51118513D01*
X34075582Y51178196D01*
X34052509Y51299999D01*
X34041200Y51416554D01*
X34020370Y51593331D01*
X33989496Y51691440D01*
X33939986Y51733802D01*
X33920288Y51739052D01*
X33826146Y51728072D01*
X33768005Y51644823D01*
X33740790Y51478718D01*
X33737178Y51357034D01*
X33731716Y51200704D01*
X33709145Y51118915D01*
X33658396Y51084790D01*
X33622100Y51077634D01*
X33524727Y51029873D01*
X33486499Y50946874D01*
X33511553Y50865559D01*
X33593682Y50824029D01*
X33655190Y50807882D01*
X33690364Y50765873D01*
X33706499Y50674865D01*
X33710884Y50511720D01*
X33711000Y50451800D01*
X33709140Y50265770D01*
X33697902Y50158169D01*
X33668802Y50105831D01*
X33613357Y50085589D01*
X33575018Y50080485D01*
X33430559Y50033158D01*
X33355988Y49943561D01*
X33355988Y49943561D01*
X33355988Y49943561D01*
G37*
X33355988Y49943561D02*
X33359959Y49848639D01*
X33431953Y49787297D01*
X33562098Y49765348D01*
X33715295Y49781853D01*
X33856444Y49835874D01*
X33895873Y49862960D01*
X33956975Y49924791D01*
X33996325Y50007014D01*
X34021014Y50135044D01*
X34038136Y50334296D01*
X34041200Y50383660D01*
X34056865Y50594122D01*
X34076019Y50720868D01*
X34103345Y50781779D01*
X34143529Y50794731D01*
X34148724Y50794030D01*
X34252216Y50819834D01*
X34317582Y50906483D01*
X34317182Y51001191D01*
X34246765Y51072212D01*
X34176605Y51096530D01*
X34113504Y51118513D01*
X34075582Y51178196D01*
X34052509Y51299999D01*
X34041200Y51416554D01*
X34020370Y51593331D01*
X33989496Y51691440D01*
X33939986Y51733802D01*
X33920288Y51739052D01*
X33826146Y51728072D01*
X33768005Y51644823D01*
X33740790Y51478718D01*
X33737178Y51357034D01*
X33731716Y51200704D01*
X33709145Y51118915D01*
X33658396Y51084790D01*
X33622100Y51077634D01*
X33524727Y51029873D01*
X33486499Y50946874D01*
X33511553Y50865559D01*
X33593682Y50824029D01*
X33655190Y50807882D01*
X33690364Y50765873D01*
X33706499Y50674865D01*
X33710884Y50511720D01*
X33711000Y50451800D01*
X33709140Y50265770D01*
X33697902Y50158169D01*
X33668802Y50105831D01*
X33613357Y50085589D01*
X33575018Y50080485D01*
X33430559Y50033158D01*
X33355988Y49943561D01*
X33355988Y49943561D01*
G36*
X31776506Y50063459D02*
X31806134Y49886294D01*
X31870940Y49790098D01*
X31954263Y49766000D01*
X32026666Y49792366D01*
X32074320Y49880015D01*
X32100885Y50041779D01*
X32110024Y50290487D01*
X32110107Y50312100D01*
X32130264Y50555294D01*
X32195531Y50715272D01*
X32314992Y50803815D01*
X32497730Y50832706D01*
X32511573Y50832800D01*
X32694425Y50814480D01*
X32821569Y50749877D01*
X32903819Y50624530D01*
X32951988Y50423976D01*
X32972171Y50216794D01*
X32988120Y50007570D01*
X33006882Y49879180D01*
X33034821Y49810920D01*
X33078301Y49782086D01*
X33107635Y49776015D01*
X33211068Y49797937D01*
X33247335Y49843669D01*
X33258137Y49920870D01*
X33267372Y50080442D01*
X33274363Y50303160D01*
X33278437Y50569798D01*
X33279200Y50751046D01*
X33275747Y51110880D01*
X33263875Y51379356D01*
X33241315Y51566529D01*
X33205798Y51682453D01*
X33155056Y51737185D01*
X33086819Y51740779D01*
X33057947Y51731649D01*
X33010910Y51691153D01*
X32984900Y51600554D01*
X32974983Y51438040D01*
X32974400Y51362360D01*
X32971736Y51183521D01*
X32959925Y51087075D01*
X32933244Y51053874D01*
X32885968Y51064767D01*
X32885500Y51064976D01*
X32686005Y51115911D01*
X32453091Y51120971D01*
X32238402Y51081168D01*
X32165212Y51050858D01*
X31991266Y50935816D01*
X31877439Y50792579D01*
X31811044Y50597421D01*
X31779570Y50329612D01*
X31776506Y50063459D01*
X31776506Y50063459D01*
X31776506Y50063459D01*
G37*
X31776506Y50063459D02*
X31806134Y49886294D01*
X31870940Y49790098D01*
X31954263Y49766000D01*
X32026666Y49792366D01*
X32074320Y49880015D01*
X32100885Y50041779D01*
X32110024Y50290487D01*
X32110107Y50312100D01*
X32130264Y50555294D01*
X32195531Y50715272D01*
X32314992Y50803815D01*
X32497730Y50832706D01*
X32511573Y50832800D01*
X32694425Y50814480D01*
X32821569Y50749877D01*
X32903819Y50624530D01*
X32951988Y50423976D01*
X32972171Y50216794D01*
X32988120Y50007570D01*
X33006882Y49879180D01*
X33034821Y49810920D01*
X33078301Y49782086D01*
X33107635Y49776015D01*
X33211068Y49797937D01*
X33247335Y49843669D01*
X33258137Y49920870D01*
X33267372Y50080442D01*
X33274363Y50303160D01*
X33278437Y50569798D01*
X33279200Y50751046D01*
X33275747Y51110880D01*
X33263875Y51379356D01*
X33241315Y51566529D01*
X33205798Y51682453D01*
X33155056Y51737185D01*
X33086819Y51740779D01*
X33057947Y51731649D01*
X33010910Y51691153D01*
X32984900Y51600554D01*
X32974983Y51438040D01*
X32974400Y51362360D01*
X32971736Y51183521D01*
X32959925Y51087075D01*
X32933244Y51053874D01*
X32885968Y51064767D01*
X32885500Y51064976D01*
X32686005Y51115911D01*
X32453091Y51120971D01*
X32238402Y51081168D01*
X32165212Y51050858D01*
X31991266Y50935816D01*
X31877439Y50792579D01*
X31811044Y50597421D01*
X31779570Y50329612D01*
X31776506Y50063459D01*
X31776506Y50063459D01*
G36*
X36450361Y53120121D02*
X36453241Y52970767D01*
X36514353Y52822795D01*
X36630528Y52720890D01*
X36751723Y52679969D01*
X36751723Y52992447D01*
X36754502Y53093005D01*
X36833214Y53168017D01*
X36964496Y53213455D01*
X37124986Y53225292D01*
X37291322Y53199501D01*
X37440140Y53132056D01*
X37463350Y53115113D01*
X37554771Y53030422D01*
X37596884Y52966207D01*
X37597200Y52962713D01*
X37550415Y52940874D01*
X37426050Y52924411D01*
X37248092Y52916093D01*
X37189206Y52915600D01*
X36973104Y52920074D01*
X36839711Y52935672D01*
X36770442Y52965659D01*
X36751723Y52992447D01*
X36751723Y52679969D01*
X36815135Y52658558D01*
X37081541Y52629303D01*
X37161883Y52626411D01*
X37397625Y52613083D01*
X37536650Y52585862D01*
X37583201Y52542248D01*
X37541521Y52479742D01*
X37483399Y52436977D01*
X37241266Y52334621D01*
X36979578Y52331933D01*
X36810056Y52379403D01*
X36634043Y52432506D01*
X36529442Y52425031D01*
X36484007Y52354051D01*
X36479600Y52300410D01*
X36525865Y52205726D01*
X36649198Y52131024D01*
X36826408Y52079836D01*
X37034304Y52055696D01*
X37249696Y52062134D01*
X37449391Y52102684D01*
X37540229Y52138864D01*
X37726381Y52281435D01*
X37846118Y52477481D01*
X37899182Y52703569D01*
X37885318Y52936267D01*
X37804268Y53152141D01*
X37655776Y53327759D01*
X37553980Y53394281D01*
X37316427Y53480675D01*
X37077291Y53505372D01*
X36853844Y53475020D01*
X36663359Y53396264D01*
X36523107Y53275749D01*
X36450361Y53120121D01*
X36450361Y53120121D01*
X36450361Y53120121D01*
G37*
X36450361Y53120121D02*
X36453241Y52970767D01*
X36514353Y52822795D01*
X36630528Y52720890D01*
X36751723Y52679969D01*
X36751723Y52992447D01*
X36754502Y53093005D01*
X36833214Y53168017D01*
X36964496Y53213455D01*
X37124986Y53225292D01*
X37291322Y53199501D01*
X37440140Y53132056D01*
X37463350Y53115113D01*
X37554771Y53030422D01*
X37596884Y52966207D01*
X37597200Y52962713D01*
X37550415Y52940874D01*
X37426050Y52924411D01*
X37248092Y52916093D01*
X37189206Y52915600D01*
X36973104Y52920074D01*
X36839711Y52935672D01*
X36770442Y52965659D01*
X36751723Y52992447D01*
X36751723Y52679969D01*
X36815135Y52658558D01*
X37081541Y52629303D01*
X37161883Y52626411D01*
X37397625Y52613083D01*
X37536650Y52585862D01*
X37583201Y52542248D01*
X37541521Y52479742D01*
X37483399Y52436977D01*
X37241266Y52334621D01*
X36979578Y52331933D01*
X36810056Y52379403D01*
X36634043Y52432506D01*
X36529442Y52425031D01*
X36484007Y52354051D01*
X36479600Y52300410D01*
X36525865Y52205726D01*
X36649198Y52131024D01*
X36826408Y52079836D01*
X37034304Y52055696D01*
X37249696Y52062134D01*
X37449391Y52102684D01*
X37540229Y52138864D01*
X37726381Y52281435D01*
X37846118Y52477481D01*
X37899182Y52703569D01*
X37885318Y52936267D01*
X37804268Y53152141D01*
X37655776Y53327759D01*
X37553980Y53394281D01*
X37316427Y53480675D01*
X37077291Y53505372D01*
X36853844Y53475020D01*
X36663359Y53396264D01*
X36523107Y53275749D01*
X36450361Y53120121D01*
X36450361Y53120121D01*
G36*
X34864635Y53234090D02*
X34880991Y53174541D01*
X34914581Y53138049D01*
X34978579Y53089333D01*
X35049275Y53093125D01*
X35149962Y53139630D01*
X35341789Y53201601D01*
X35551050Y53211565D01*
X35748787Y53174693D01*
X35906038Y53096154D01*
X35990844Y52989525D01*
X36007835Y52896590D01*
X36019566Y52739898D01*
X36023094Y52593946D01*
X36028366Y52406253D01*
X36041282Y52245216D01*
X36054419Y52166300D01*
X36118066Y52077337D01*
X36217171Y52050528D01*
X36293334Y52085867D01*
X36305897Y52146633D01*
X36316351Y52289016D01*
X36323737Y52493040D01*
X36327096Y52738728D01*
X36327200Y52791632D01*
X36325768Y53068090D01*
X36320104Y53259488D01*
X36308158Y53382342D01*
X36287881Y53453167D01*
X36257223Y53488481D01*
X36239641Y53497130D01*
X36136573Y53489033D01*
X36091404Y53447750D01*
X36014081Y53392734D01*
X35937664Y53413686D01*
X35725458Y53484266D01*
X35482195Y53503054D01*
X35240997Y53473345D01*
X35034984Y53398434D01*
X34921714Y53312623D01*
X34864635Y53234090D01*
X34864635Y53234090D01*
X34864635Y53234090D01*
G37*
X34864635Y53234090D02*
X34880991Y53174541D01*
X34914581Y53138049D01*
X34978579Y53089333D01*
X35049275Y53093125D01*
X35149962Y53139630D01*
X35341789Y53201601D01*
X35551050Y53211565D01*
X35748787Y53174693D01*
X35906038Y53096154D01*
X35990844Y52989525D01*
X36007835Y52896590D01*
X36019566Y52739898D01*
X36023094Y52593946D01*
X36028366Y52406253D01*
X36041282Y52245216D01*
X36054419Y52166300D01*
X36118066Y52077337D01*
X36217171Y52050528D01*
X36293334Y52085867D01*
X36305897Y52146633D01*
X36316351Y52289016D01*
X36323737Y52493040D01*
X36327096Y52738728D01*
X36327200Y52791632D01*
X36325768Y53068090D01*
X36320104Y53259488D01*
X36308158Y53382342D01*
X36287881Y53453167D01*
X36257223Y53488481D01*
X36239641Y53497130D01*
X36136573Y53489033D01*
X36091404Y53447750D01*
X36014081Y53392734D01*
X35937664Y53413686D01*
X35725458Y53484266D01*
X35482195Y53503054D01*
X35240997Y53473345D01*
X35034984Y53398434D01*
X34921714Y53312623D01*
X34864635Y53234090D01*
X34864635Y53234090D01*
G36*
X34505181Y53189917D02*
X34506150Y52969225D01*
X34509706Y52769930D01*
X34516145Y52492636D01*
X34524076Y52300726D01*
X34536286Y52177992D01*
X34555565Y52108228D01*
X34584699Y52075225D01*
X34626478Y52062776D01*
X34631479Y52062035D01*
X34727471Y52082538D01*
X34770485Y52163635D01*
X34783672Y52262255D01*
X34794265Y52435003D01*
X34800919Y52654418D01*
X34802507Y52816991D01*
X34795618Y53118682D01*
X34772187Y53328400D01*
X34729427Y53454834D01*
X34664550Y53506677D01*
X34584566Y53496595D01*
X34548849Y53473509D01*
X34524840Y53425644D01*
X34510848Y53336584D01*
X34505181Y53189917D01*
X34505181Y53189917D01*
X34505181Y53189917D01*
G37*
X34505181Y53189917D02*
X34506150Y52969225D01*
X34509706Y52769930D01*
X34516145Y52492636D01*
X34524076Y52300726D01*
X34536286Y52177992D01*
X34555565Y52108228D01*
X34584699Y52075225D01*
X34626478Y52062776D01*
X34631479Y52062035D01*
X34727471Y52082538D01*
X34770485Y52163635D01*
X34783672Y52262255D01*
X34794265Y52435003D01*
X34800919Y52654418D01*
X34802507Y52816991D01*
X34795618Y53118682D01*
X34772187Y53328400D01*
X34729427Y53454834D01*
X34664550Y53506677D01*
X34584566Y53496595D01*
X34548849Y53473509D01*
X34524840Y53425644D01*
X34510848Y53336584D01*
X34505181Y53189917D01*
X34505181Y53189917D01*
G36*
X32974400Y52300410D02*
X33020534Y52205315D01*
X33142933Y52130166D01*
X33317595Y52078512D01*
X33520518Y52053897D01*
X33727699Y52059870D01*
X33915137Y52099978D01*
X34015800Y52146517D01*
X34209924Y52292469D01*
X34323569Y52453491D01*
X34376555Y52660870D01*
X34382814Y52725888D01*
X34361757Y53001065D01*
X34257893Y53220844D01*
X34076896Y53379760D01*
X33824442Y53472349D01*
X33584000Y53495008D01*
X33344334Y53474044D01*
X33150527Y53415801D01*
X33022699Y53328391D01*
X32982958Y53252718D01*
X32990105Y53138118D01*
X33064159Y53095897D01*
X33197547Y53129327D01*
X33230976Y53145532D01*
X33410858Y53199999D01*
X33622371Y53209569D01*
X33824727Y53176939D01*
X33977139Y53104799D01*
X33988036Y53095541D01*
X34100187Y52935789D01*
X34127170Y52756685D01*
X34075667Y52582314D01*
X33952356Y52436762D01*
X33780975Y52348933D01*
X33634047Y52315590D01*
X33504587Y52321186D01*
X33340575Y52368659D01*
X33323137Y52374804D01*
X33141095Y52428234D01*
X33032368Y52427636D01*
X32982350Y52369895D01*
X32974400Y52300410D01*
X32974400Y52300410D01*
X32974400Y52300410D01*
G37*
X32974400Y52300410D02*
X33020534Y52205315D01*
X33142933Y52130166D01*
X33317595Y52078512D01*
X33520518Y52053897D01*
X33727699Y52059870D01*
X33915137Y52099978D01*
X34015800Y52146517D01*
X34209924Y52292469D01*
X34323569Y52453491D01*
X34376555Y52660870D01*
X34382814Y52725888D01*
X34361757Y53001065D01*
X34257893Y53220844D01*
X34076896Y53379760D01*
X33824442Y53472349D01*
X33584000Y53495008D01*
X33344334Y53474044D01*
X33150527Y53415801D01*
X33022699Y53328391D01*
X32982958Y53252718D01*
X32990105Y53138118D01*
X33064159Y53095897D01*
X33197547Y53129327D01*
X33230976Y53145532D01*
X33410858Y53199999D01*
X33622371Y53209569D01*
X33824727Y53176939D01*
X33977139Y53104799D01*
X33988036Y53095541D01*
X34100187Y52935789D01*
X34127170Y52756685D01*
X34075667Y52582314D01*
X33952356Y52436762D01*
X33780975Y52348933D01*
X33634047Y52315590D01*
X33504587Y52321186D01*
X33340575Y52368659D01*
X33323137Y52374804D01*
X33141095Y52428234D01*
X33032368Y52427636D01*
X32982350Y52369895D01*
X32974400Y52300410D01*
X32974400Y52300410D01*
G36*
X31290176Y52870202D02*
X31291600Y52635073D01*
X31301780Y52414329D01*
X31320682Y52231090D01*
X31348271Y52108474D01*
X31374847Y52070123D01*
X31474647Y52074666D01*
X31528752Y52104586D01*
X31579337Y52126790D01*
X31579337Y52826940D01*
X31636488Y52997334D01*
X31766610Y53132094D01*
X31806000Y53154665D01*
X32013718Y53217857D01*
X32225321Y53213185D01*
X32418164Y53150071D01*
X32569603Y53037935D01*
X32656989Y52886198D01*
X32669600Y52795388D01*
X32626677Y52587032D01*
X32508853Y52431435D01*
X32332554Y52336828D01*
X32114200Y52311442D01*
X31870216Y52363507D01*
X31835331Y52377284D01*
X31679798Y52489381D01*
X31594121Y52648444D01*
X31579337Y52826940D01*
X31579337Y52126790D01*
X31615589Y52142701D01*
X31730727Y52111615D01*
X31733695Y52110269D01*
X31884602Y52072197D01*
X32089592Y52057273D01*
X32303806Y52065566D01*
X32482382Y52097144D01*
X32517174Y52109072D01*
X32734351Y52247798D01*
X32884350Y52456089D01*
X32927274Y52573643D01*
X32956012Y52831729D01*
X32890566Y53063846D01*
X32764405Y53245778D01*
X32575509Y53390365D01*
X32331308Y53477642D01*
X32063585Y53502631D01*
X31804123Y53460352D01*
X31690501Y53414016D01*
X31583829Y53402957D01*
X31523931Y53444413D01*
X31430497Y53494537D01*
X31372730Y53492207D01*
X31338785Y53430720D01*
X31313734Y53291144D01*
X31297543Y53096599D01*
X31290176Y52870202D01*
X31290176Y52870202D01*
X31290176Y52870202D01*
G37*
X31290176Y52870202D02*
X31291600Y52635073D01*
X31301780Y52414329D01*
X31320682Y52231090D01*
X31348271Y52108474D01*
X31374847Y52070123D01*
X31474647Y52074666D01*
X31528752Y52104586D01*
X31579337Y52126790D01*
X31579337Y52826940D01*
X31636488Y52997334D01*
X31766610Y53132094D01*
X31806000Y53154665D01*
X32013718Y53217857D01*
X32225321Y53213185D01*
X32418164Y53150071D01*
X32569603Y53037935D01*
X32656989Y52886198D01*
X32669600Y52795388D01*
X32626677Y52587032D01*
X32508853Y52431435D01*
X32332554Y52336828D01*
X32114200Y52311442D01*
X31870216Y52363507D01*
X31835331Y52377284D01*
X31679798Y52489381D01*
X31594121Y52648444D01*
X31579337Y52826940D01*
X31579337Y52126790D01*
X31615589Y52142701D01*
X31730727Y52111615D01*
X31733695Y52110269D01*
X31884602Y52072197D01*
X32089592Y52057273D01*
X32303806Y52065566D01*
X32482382Y52097144D01*
X32517174Y52109072D01*
X32734351Y52247798D01*
X32884350Y52456089D01*
X32927274Y52573643D01*
X32956012Y52831729D01*
X32890566Y53063846D01*
X32764405Y53245778D01*
X32575509Y53390365D01*
X32331308Y53477642D01*
X32063585Y53502631D01*
X31804123Y53460352D01*
X31690501Y53414016D01*
X31583829Y53402957D01*
X31523931Y53444413D01*
X31430497Y53494537D01*
X31372730Y53492207D01*
X31338785Y53430720D01*
X31313734Y53291144D01*
X31297543Y53096599D01*
X31290176Y52870202D01*
X31290176Y52870202D01*
G36*
X34502311Y53928262D02*
X34541946Y53835025D01*
X34578755Y53810036D01*
X34657082Y53783474D01*
X34701833Y53800578D01*
X34742240Y53840160D01*
X34792823Y53943711D01*
X34769098Y54043901D01*
X34690929Y54108110D01*
X34581039Y54104842D01*
X34515471Y54034809D01*
X34502311Y53928262D01*
X34502311Y53928262D01*
X34502311Y53928262D01*
G37*
X34502311Y53928262D02*
X34541946Y53835025D01*
X34578755Y53810036D01*
X34657082Y53783474D01*
X34701833Y53800578D01*
X34742240Y53840160D01*
X34792823Y53943711D01*
X34769098Y54043901D01*
X34690929Y54108110D01*
X34581039Y54104842D01*
X34515471Y54034809D01*
X34502311Y53928262D01*
X34502311Y53928262D01*
G36*
X32236490Y59203810D02*
X32246312Y58764971D01*
X32263483Y58654440D01*
X32383955Y58242098D01*
X32582429Y57874293D01*
X32690717Y57748480D01*
X32690717Y58879063D01*
X32743320Y59213784D01*
X32863527Y59537085D01*
X33046452Y59825283D01*
X33152912Y59942078D01*
X33461098Y60173805D01*
X33829563Y60339732D01*
X34239424Y60437747D01*
X34671797Y60465733D01*
X35107799Y60421577D01*
X35528545Y60303165D01*
X35702768Y60227582D01*
X36024732Y60021709D01*
X36276141Y59760538D01*
X36453974Y59458744D01*
X36555208Y59131000D01*
X36576823Y58791981D01*
X36515797Y58456360D01*
X36369109Y58138811D01*
X36181775Y57901161D01*
X35817359Y57588418D01*
X35425249Y57364787D01*
X35015198Y57232435D01*
X34596963Y57193527D01*
X34180299Y57250230D01*
X33827926Y57378422D01*
X33550510Y57537683D01*
X33279137Y57740432D01*
X33040011Y57963762D01*
X32859336Y58184767D01*
X32807871Y58270083D01*
X32710605Y58556602D01*
X32690717Y58879063D01*
X32690717Y57748480D01*
X32848321Y57565368D01*
X33171046Y57329665D01*
X33283116Y57272724D01*
X33421536Y57204883D01*
X33512355Y57152051D01*
X33533200Y57132211D01*
X33492305Y57096068D01*
X33387325Y57031019D01*
X33296669Y56980946D01*
X33110658Y56874286D01*
X32923634Y56755010D01*
X32864869Y56714015D01*
X32741423Y56611917D01*
X32684204Y56516826D01*
X32669633Y56388234D01*
X32669600Y56378537D01*
X32711389Y56183668D01*
X32824678Y56040683D01*
X32991351Y55969100D01*
X33053875Y55964467D01*
X33180732Y55990804D01*
X33346827Y56057534D01*
X33457000Y56116000D01*
X33601698Y56197752D01*
X33712324Y56252826D01*
X33755314Y56267534D01*
X33772585Y56221097D01*
X33781199Y56096180D01*
X33780083Y55915619D01*
X33776204Y55823900D01*
X33751513Y55541882D01*
X33707154Y55326739D01*
X33636039Y55144530D01*
X33633051Y55138478D01*
X33555365Y54921952D01*
X33564953Y54746087D01*
X33664730Y54594923D01*
X33744678Y54527073D01*
X33889808Y54463371D01*
X33889808Y56246794D01*
X33892024Y56447996D01*
X33905785Y56627920D01*
X33931359Y56755981D01*
X33941388Y56779740D01*
X33972350Y56821192D01*
X34024729Y56849094D01*
X34116604Y56866074D01*
X34266054Y56874762D01*
X34491157Y56877786D01*
X34617028Y56878000D01*
X34938455Y56872639D01*
X35159624Y56856509D01*
X35281311Y56829541D01*
X35301041Y56817040D01*
X35327655Y56741588D01*
X35347550Y56594308D01*
X35359812Y56404805D01*
X35363528Y56202686D01*
X35357783Y56017557D01*
X35341665Y55879024D01*
X35331165Y55840755D01*
X35303382Y55806812D01*
X35239915Y55783738D01*
X35124521Y55769600D01*
X34940953Y55762466D01*
X34672966Y55760405D01*
X34655525Y55760400D01*
X34330649Y55765400D01*
X34105039Y55780506D01*
X33976849Y55805877D01*
X33949761Y55821360D01*
X33918944Y55902892D01*
X33898870Y56054898D01*
X33889808Y56246794D01*
X33889808Y54463371D01*
X33911571Y54453818D01*
X34076836Y54476485D01*
X34233254Y54589548D01*
X34373609Y54787483D01*
X34490681Y55064765D01*
X34504525Y55108688D01*
X34570581Y55299141D01*
X34628877Y55418097D01*
X34673460Y55458086D01*
X34698375Y55411639D01*
X34701600Y55355906D01*
X34730286Y55189286D01*
X34804153Y54984545D01*
X34904913Y54781409D01*
X35014282Y54619604D01*
X35063959Y54568709D01*
X35213732Y54469116D01*
X35353458Y54449329D01*
X35498380Y54490755D01*
X35639997Y54595778D01*
X35706447Y54757900D01*
X35695367Y54963353D01*
X35616000Y55176200D01*
X35561324Y55311482D01*
X35529532Y55471963D01*
X35515892Y55687939D01*
X35514400Y55826791D01*
X35514400Y56278099D01*
X35793031Y56120850D01*
X36053706Y56002220D01*
X36264604Y55969788D01*
X36429252Y56023262D01*
X36478308Y56063908D01*
X36596019Y56224887D01*
X36620784Y56383367D01*
X36550729Y56543336D01*
X36383980Y56708783D01*
X36118663Y56883699D01*
X36083896Y56903400D01*
X35916591Y56999914D01*
X35790149Y57078398D01*
X35725474Y57125676D01*
X35721234Y57132000D01*
X35763570Y57165419D01*
X35872580Y57225679D01*
X35986383Y57281512D01*
X36332657Y57497537D01*
X36616281Y57783990D01*
X36831121Y58126868D01*
X36971043Y58512169D01*
X37029914Y58925890D01*
X37001599Y59354029D01*
X36966408Y59518746D01*
X36812277Y59922779D01*
X36574042Y60276435D01*
X36260324Y60570867D01*
X35879743Y60797232D01*
X35623849Y60896391D01*
X35280936Y60977088D01*
X34888000Y61023593D01*
X34485074Y61034094D01*
X34112193Y61006778D01*
X33926900Y60973232D01*
X33465637Y60821185D01*
X33068524Y60601316D01*
X32741308Y60321636D01*
X32489733Y59990152D01*
X32319546Y59614874D01*
X32236490Y59203810D01*
X32236490Y59203810D01*
X32236490Y59203810D01*
G37*
X32236490Y59203810D02*
X32246312Y58764971D01*
X32263483Y58654440D01*
X32383955Y58242098D01*
X32582429Y57874293D01*
X32690717Y57748480D01*
X32690717Y58879063D01*
X32743320Y59213784D01*
X32863527Y59537085D01*
X33046452Y59825283D01*
X33152912Y59942078D01*
X33461098Y60173805D01*
X33829563Y60339732D01*
X34239424Y60437747D01*
X34671797Y60465733D01*
X35107799Y60421577D01*
X35528545Y60303165D01*
X35702768Y60227582D01*
X36024732Y60021709D01*
X36276141Y59760538D01*
X36453974Y59458744D01*
X36555208Y59131000D01*
X36576823Y58791981D01*
X36515797Y58456360D01*
X36369109Y58138811D01*
X36181775Y57901161D01*
X35817359Y57588418D01*
X35425249Y57364787D01*
X35015198Y57232435D01*
X34596963Y57193527D01*
X34180299Y57250230D01*
X33827926Y57378422D01*
X33550510Y57537683D01*
X33279137Y57740432D01*
X33040011Y57963762D01*
X32859336Y58184767D01*
X32807871Y58270083D01*
X32710605Y58556602D01*
X32690717Y58879063D01*
X32690717Y57748480D01*
X32848321Y57565368D01*
X33171046Y57329665D01*
X33283116Y57272724D01*
X33421536Y57204883D01*
X33512355Y57152051D01*
X33533200Y57132211D01*
X33492305Y57096068D01*
X33387325Y57031019D01*
X33296669Y56980946D01*
X33110658Y56874286D01*
X32923634Y56755010D01*
X32864869Y56714015D01*
X32741423Y56611917D01*
X32684204Y56516826D01*
X32669633Y56388234D01*
X32669600Y56378537D01*
X32711389Y56183668D01*
X32824678Y56040683D01*
X32991351Y55969100D01*
X33053875Y55964467D01*
X33180732Y55990804D01*
X33346827Y56057534D01*
X33457000Y56116000D01*
X33601698Y56197752D01*
X33712324Y56252826D01*
X33755314Y56267534D01*
X33772585Y56221097D01*
X33781199Y56096180D01*
X33780083Y55915619D01*
X33776204Y55823900D01*
X33751513Y55541882D01*
X33707154Y55326739D01*
X33636039Y55144530D01*
X33633051Y55138478D01*
X33555365Y54921952D01*
X33564953Y54746087D01*
X33664730Y54594923D01*
X33744678Y54527073D01*
X33889808Y54463371D01*
X33889808Y56246794D01*
X33892024Y56447996D01*
X33905785Y56627920D01*
X33931359Y56755981D01*
X33941388Y56779740D01*
X33972350Y56821192D01*
X34024729Y56849094D01*
X34116604Y56866074D01*
X34266054Y56874762D01*
X34491157Y56877786D01*
X34617028Y56878000D01*
X34938455Y56872639D01*
X35159624Y56856509D01*
X35281311Y56829541D01*
X35301041Y56817040D01*
X35327655Y56741588D01*
X35347550Y56594308D01*
X35359812Y56404805D01*
X35363528Y56202686D01*
X35357783Y56017557D01*
X35341665Y55879024D01*
X35331165Y55840755D01*
X35303382Y55806812D01*
X35239915Y55783738D01*
X35124521Y55769600D01*
X34940953Y55762466D01*
X34672966Y55760405D01*
X34655525Y55760400D01*
X34330649Y55765400D01*
X34105039Y55780506D01*
X33976849Y55805877D01*
X33949761Y55821360D01*
X33918944Y55902892D01*
X33898870Y56054898D01*
X33889808Y56246794D01*
X33889808Y54463371D01*
X33911571Y54453818D01*
X34076836Y54476485D01*
X34233254Y54589548D01*
X34373609Y54787483D01*
X34490681Y55064765D01*
X34504525Y55108688D01*
X34570581Y55299141D01*
X34628877Y55418097D01*
X34673460Y55458086D01*
X34698375Y55411639D01*
X34701600Y55355906D01*
X34730286Y55189286D01*
X34804153Y54984545D01*
X34904913Y54781409D01*
X35014282Y54619604D01*
X35063959Y54568709D01*
X35213732Y54469116D01*
X35353458Y54449329D01*
X35498380Y54490755D01*
X35639997Y54595778D01*
X35706447Y54757900D01*
X35695367Y54963353D01*
X35616000Y55176200D01*
X35561324Y55311482D01*
X35529532Y55471963D01*
X35515892Y55687939D01*
X35514400Y55826791D01*
X35514400Y56278099D01*
X35793031Y56120850D01*
X36053706Y56002220D01*
X36264604Y55969788D01*
X36429252Y56023262D01*
X36478308Y56063908D01*
X36596019Y56224887D01*
X36620784Y56383367D01*
X36550729Y56543336D01*
X36383980Y56708783D01*
X36118663Y56883699D01*
X36083896Y56903400D01*
X35916591Y56999914D01*
X35790149Y57078398D01*
X35725474Y57125676D01*
X35721234Y57132000D01*
X35763570Y57165419D01*
X35872580Y57225679D01*
X35986383Y57281512D01*
X36332657Y57497537D01*
X36616281Y57783990D01*
X36831121Y58126868D01*
X36971043Y58512169D01*
X37029914Y58925890D01*
X37001599Y59354029D01*
X36966408Y59518746D01*
X36812277Y59922779D01*
X36574042Y60276435D01*
X36260324Y60570867D01*
X35879743Y60797232D01*
X35623849Y60896391D01*
X35280936Y60977088D01*
X34888000Y61023593D01*
X34485074Y61034094D01*
X34112193Y61006778D01*
X33926900Y60973232D01*
X33465637Y60821185D01*
X33068524Y60601316D01*
X32741308Y60321636D01*
X32489733Y59990152D01*
X32319546Y59614874D01*
X32236490Y59203810D01*
X32236490Y59203810D01*
G36*
X34473420Y57595116D02*
X34480417Y57562791D01*
X34556427Y57478765D01*
X34669168Y57476683D01*
X34730317Y57509144D01*
X34789242Y57601206D01*
X34765574Y57702686D01*
X34670007Y57776407D01*
X34578360Y57766443D01*
X34501837Y57693624D01*
X34473420Y57595116D01*
X34473420Y57595116D01*
X34473420Y57595116D01*
G37*
X34473420Y57595116D02*
X34480417Y57562791D01*
X34556427Y57478765D01*
X34669168Y57476683D01*
X34730317Y57509144D01*
X34789242Y57601206D01*
X34765574Y57702686D01*
X34670007Y57776407D01*
X34578360Y57766443D01*
X34501837Y57693624D01*
X34473420Y57595116D01*
X34473420Y57595116D01*
G36*
X35048981Y58469528D02*
X35104308Y58266707D01*
X35127314Y58226360D01*
X35249150Y58117743D01*
X35401577Y58096641D01*
X35565056Y58162197D01*
X35667183Y58250010D01*
X35829322Y58486780D01*
X35929990Y58767506D01*
X35962659Y59060234D01*
X35920797Y59333014D01*
X35900038Y59389337D01*
X35800285Y59541779D01*
X35666753Y59598627D01*
X35496616Y59560878D01*
X35461675Y59544005D01*
X35311149Y59415340D01*
X35187439Y59215277D01*
X35097723Y58972097D01*
X35049178Y58714086D01*
X35048981Y58469528D01*
X35048981Y58469528D01*
X35048981Y58469528D01*
G37*
X35048981Y58469528D02*
X35104308Y58266707D01*
X35127314Y58226360D01*
X35249150Y58117743D01*
X35401577Y58096641D01*
X35565056Y58162197D01*
X35667183Y58250010D01*
X35829322Y58486780D01*
X35929990Y58767506D01*
X35962659Y59060234D01*
X35920797Y59333014D01*
X35900038Y59389337D01*
X35800285Y59541779D01*
X35666753Y59598627D01*
X35496616Y59560878D01*
X35461675Y59544005D01*
X35311149Y59415340D01*
X35187439Y59215277D01*
X35097723Y58972097D01*
X35049178Y58714086D01*
X35048981Y58469528D01*
X35048981Y58469528D01*
G36*
X33309535Y59106460D02*
X33349838Y58746549D01*
X33469170Y58444748D01*
X33594641Y58270643D01*
X33754901Y58138632D01*
X33915832Y58097294D01*
X34062939Y58148745D01*
X34113832Y58194858D01*
X34202663Y58362826D01*
X34231312Y58582160D01*
X34207013Y58828211D01*
X34137000Y59076333D01*
X34028508Y59301880D01*
X33888769Y59480205D01*
X33725019Y59586661D01*
X33703277Y59593671D01*
X33575057Y59583121D01*
X33451091Y59502003D01*
X33365193Y59413692D01*
X33322815Y59315725D01*
X33309812Y59168577D01*
X33309535Y59106460D01*
X33309535Y59106460D01*
X33309535Y59106460D01*
G37*
X33309535Y59106460D02*
X33349838Y58746549D01*
X33469170Y58444748D01*
X33594641Y58270643D01*
X33754901Y58138632D01*
X33915832Y58097294D01*
X34062939Y58148745D01*
X34113832Y58194858D01*
X34202663Y58362826D01*
X34231312Y58582160D01*
X34207013Y58828211D01*
X34137000Y59076333D01*
X34028508Y59301880D01*
X33888769Y59480205D01*
X33725019Y59586661D01*
X33703277Y59593671D01*
X33575057Y59583121D01*
X33451091Y59502003D01*
X33365193Y59413692D01*
X33322815Y59315725D01*
X33309812Y59168577D01*
X33309535Y59106460D01*
X33309535Y59106460D01*
D13*
X20400000Y75800000D02*
G75*
G03X20400000Y75800000I-1000000J0D01*
G01*
X40800000Y75800000D02*
G75*
G03X40800000Y75800000I-1000000J0D01*
G01*
X20400000Y68200000D02*
G75*
G03X20400000Y68200000I-1000000J0D01*
G01*
X11200000Y78000000D02*
G75*
G03X11200000Y78000000I-1000000J0D01*
G01*
X59700000Y80400000D02*
G75*
G03X59700000Y80400000I-1000000J0D01*
G01*
X19100000Y58300000D02*
G75*
G03X19100000Y58300000I-1000000J0D01*
G01*
D10*
X67671000Y90628000D02*
X68687000Y91644000D01*
X48113000Y90628000D02*
X67671000Y90628000D01*
X68687000Y99772000D02*
X68687000Y91644000D01*
X48113000Y99772000D02*
X48113000Y90628000D01*
X68687000Y99772000D02*
X48113000Y99772000D01*
X416500Y33536500D02*
X416500Y84463500D01*
X416500Y84463500D02*
X2448500Y84463500D01*
X2448500Y84463500D02*
X3083500Y83828500D01*
X3083500Y83828500D02*
X3083500Y33536500D01*
X3083500Y33536500D02*
X416500Y33536500D01*
X65916500Y33536500D02*
X65916500Y84463500D01*
X65916500Y84463500D02*
X67948500Y84463500D01*
X67948500Y84463500D02*
X68583500Y83828500D01*
X68583500Y83828500D02*
X68583500Y33536500D01*
X68583500Y33536500D02*
X65916500Y33536500D01*
X25331500Y97223500D02*
X29268500Y97223500D01*
X30480710Y99700000D02*
G75*
G03X30480710Y99700000I-3180710J0D01*
G01*
X35976500Y99731500D02*
X35976500Y103668500D01*
X36680710Y101700000D02*
G75*
G03X36680710Y101700000I-3180710J0D01*
G01*
X20283333Y74633334D02*
X19883333Y74633334D01*
X20083333Y73933334D02*
X20083333Y74633334D01*
X19650000Y73933334D02*
X19650000Y74633334D01*
X19383333Y74633334D01*
X19316666Y74600000D01*
X19283333Y74566667D01*
X19250000Y74500000D01*
X19250000Y74400000D01*
X19283333Y74333334D01*
X19316666Y74300000D01*
X19383333Y74266667D01*
X19650000Y74266667D01*
X18583333Y73933334D02*
X18983333Y73933334D01*
X18783333Y73933334D02*
X18783333Y74633334D01*
X18850000Y74533334D01*
X18916666Y74466667D01*
X18983333Y74433334D01*
X40683333Y74633334D02*
X40283333Y74633334D01*
X40483333Y73933334D02*
X40483333Y74633334D01*
X40050000Y73933334D02*
X40050000Y74633334D01*
X39783333Y74633334D01*
X39716666Y74600000D01*
X39683333Y74566667D01*
X39650000Y74500000D01*
X39650000Y74400000D01*
X39683333Y74333334D01*
X39716666Y74300000D01*
X39783333Y74266667D01*
X40050000Y74266667D01*
X39383333Y74566667D02*
X39350000Y74600000D01*
X39283333Y74633334D01*
X39116666Y74633334D01*
X39050000Y74600000D01*
X39016666Y74566667D01*
X38983333Y74500000D01*
X38983333Y74433334D01*
X39016666Y74333334D01*
X39416666Y73933334D01*
X38983333Y73933334D01*
X20283333Y70133334D02*
X19883333Y70133334D01*
X20083333Y69433334D02*
X20083333Y70133334D01*
X19650000Y69433334D02*
X19650000Y70133334D01*
X19383333Y70133334D01*
X19316666Y70100000D01*
X19283333Y70066667D01*
X19250000Y70000000D01*
X19250000Y69900000D01*
X19283333Y69833334D01*
X19316666Y69800000D01*
X19383333Y69766667D01*
X19650000Y69766667D01*
X18850000Y69833334D02*
X18916666Y69866667D01*
X18950000Y69900000D01*
X18983333Y69966667D01*
X18983333Y70000000D01*
X18950000Y70066667D01*
X18916666Y70100000D01*
X18850000Y70133334D01*
X18716666Y70133334D01*
X18650000Y70100000D01*
X18616666Y70066667D01*
X18583333Y70000000D01*
X18583333Y69966667D01*
X18616666Y69900000D01*
X18650000Y69866667D01*
X18716666Y69833334D01*
X18850000Y69833334D01*
X18916666Y69800000D01*
X18950000Y69766667D01*
X18983333Y69700000D01*
X18983333Y69566667D01*
X18950000Y69500000D01*
X18916666Y69466667D01*
X18850000Y69433334D01*
X18716666Y69433334D01*
X18650000Y69466667D01*
X18616666Y69500000D01*
X18583333Y69566667D01*
X18583333Y69700000D01*
X18616666Y69766667D01*
X18650000Y69800000D01*
X18716666Y69833334D01*
X11416666Y79933334D02*
X11016666Y79933334D01*
X11216666Y79233334D02*
X11216666Y79933334D01*
X10783333Y79233334D02*
X10783333Y79933334D01*
X10516666Y79933334D01*
X10450000Y79900000D01*
X10416666Y79866667D01*
X10383333Y79800000D01*
X10383333Y79700000D01*
X10416666Y79633334D01*
X10450000Y79600000D01*
X10516666Y79566667D01*
X10783333Y79566667D01*
X9716666Y79233334D02*
X10116666Y79233334D01*
X9916666Y79233334D02*
X9916666Y79933334D01*
X9983333Y79833334D01*
X10050000Y79766667D01*
X10116666Y79733334D01*
X9116666Y79933334D02*
X9250000Y79933334D01*
X9316666Y79900000D01*
X9350000Y79866667D01*
X9416666Y79766667D01*
X9450000Y79633334D01*
X9450000Y79366667D01*
X9416666Y79300000D01*
X9383333Y79266667D01*
X9316666Y79233334D01*
X9183333Y79233334D01*
X9116666Y79266667D01*
X9083333Y79300000D01*
X9050000Y79366667D01*
X9050000Y79533334D01*
X9083333Y79600000D01*
X9116666Y79633334D01*
X9183333Y79666667D01*
X9316666Y79666667D01*
X9383333Y79633334D01*
X9416666Y79600000D01*
X9450000Y79533334D01*
X57616666Y80683334D02*
X57216666Y80683334D01*
X57416666Y79983334D02*
X57416666Y80683334D01*
X56983333Y79983334D02*
X56983333Y80683334D01*
X56716666Y80683334D01*
X56650000Y80650000D01*
X56616666Y80616667D01*
X56583333Y80550000D01*
X56583333Y80450000D01*
X56616666Y80383334D01*
X56650000Y80350000D01*
X56716666Y80316667D01*
X56983333Y80316667D01*
X55916666Y79983334D02*
X56316666Y79983334D01*
X56116666Y79983334D02*
X56116666Y80683334D01*
X56183333Y80583334D01*
X56250000Y80516667D01*
X56316666Y80483334D01*
X55683333Y80683334D02*
X55216666Y80683334D01*
X55516666Y79983334D01*
X19316666Y60233334D02*
X18916666Y60233334D01*
X19116666Y59533334D02*
X19116666Y60233334D01*
X18683333Y59533334D02*
X18683333Y60233334D01*
X18416666Y60233334D01*
X18350000Y60200000D01*
X18316666Y60166667D01*
X18283333Y60100000D01*
X18283333Y60000000D01*
X18316666Y59933334D01*
X18350000Y59900000D01*
X18416666Y59866667D01*
X18683333Y59866667D01*
X17616666Y59533334D02*
X18016666Y59533334D01*
X17816666Y59533334D02*
X17816666Y60233334D01*
X17883333Y60133334D01*
X17950000Y60066667D01*
X18016666Y60033334D01*
X17216666Y59933334D02*
X17283333Y59966667D01*
X17316666Y60000000D01*
X17350000Y60066667D01*
X17350000Y60100000D01*
X17316666Y60166667D01*
X17283333Y60200000D01*
X17216666Y60233334D01*
X17083333Y60233334D01*
X17016666Y60200000D01*
X16983333Y60166667D01*
X16950000Y60100000D01*
X16950000Y60066667D01*
X16983333Y60000000D01*
X17016666Y59966667D01*
X17083333Y59933334D01*
X17216666Y59933334D01*
X17283333Y59900000D01*
X17316666Y59866667D01*
X17350000Y59800000D01*
X17350000Y59666667D01*
X17316666Y59600000D01*
X17283333Y59566667D01*
X17216666Y59533334D01*
X17083333Y59533334D01*
X17016666Y59566667D01*
X16983333Y59600000D01*
X16950000Y59666667D01*
X16950000Y59800000D01*
X16983333Y59866667D01*
X17016666Y59900000D01*
X17083333Y59933334D01*
X57916666Y100883334D02*
X57450000Y100183334D01*
X57450000Y100883334D02*
X57916666Y100183334D01*
X57183333Y100183334D02*
X57183333Y100883334D01*
X56916666Y100883334D01*
X56850000Y100850000D01*
X56816666Y100816667D01*
X56783333Y100750000D01*
X56783333Y100650000D01*
X56816666Y100583334D01*
X56850000Y100550000D01*
X56916666Y100516667D01*
X57183333Y100516667D01*
X56116666Y100183334D02*
X56516666Y100183334D01*
X56316666Y100183334D02*
X56316666Y100883334D01*
X56383333Y100783334D01*
X56450000Y100716667D01*
X56516666Y100683334D01*
X6133333Y61383334D02*
X5666666Y60683334D01*
X5666666Y61383334D02*
X6133333Y60683334D01*
X5433333Y60716667D02*
X5333333Y60683334D01*
X5166666Y60683334D01*
X5100000Y60716667D01*
X5066666Y60750000D01*
X5033333Y60816667D01*
X5033333Y60883334D01*
X5066666Y60950000D01*
X5100000Y60983334D01*
X5166666Y61016667D01*
X5300000Y61050000D01*
X5366666Y61083334D01*
X5400000Y61116667D01*
X5433333Y61183334D01*
X5433333Y61250000D01*
X5400000Y61316667D01*
X5366666Y61350000D01*
X5300000Y61383334D01*
X5133333Y61383334D01*
X5033333Y61350000D01*
X4366666Y60683334D02*
X4766666Y60683334D01*
X4566666Y60683334D02*
X4566666Y61383334D01*
X4633333Y61283334D01*
X4700000Y61216667D01*
X4766666Y61183334D01*
X3700000Y60683334D02*
X4100000Y60683334D01*
X3900000Y60683334D02*
X3900000Y61383334D01*
X3966666Y61283334D01*
X4033333Y61216667D01*
X4100000Y61183334D01*
X65633333Y59283334D02*
X65166666Y58583334D01*
X65166666Y59283334D02*
X65633333Y58583334D01*
X64933333Y58616667D02*
X64833333Y58583334D01*
X64666666Y58583334D01*
X64600000Y58616667D01*
X64566666Y58650000D01*
X64533333Y58716667D01*
X64533333Y58783334D01*
X64566666Y58850000D01*
X64600000Y58883334D01*
X64666666Y58916667D01*
X64800000Y58950000D01*
X64866666Y58983334D01*
X64900000Y59016667D01*
X64933333Y59083334D01*
X64933333Y59150000D01*
X64900000Y59216667D01*
X64866666Y59250000D01*
X64800000Y59283334D01*
X64633333Y59283334D01*
X64533333Y59250000D01*
X63866666Y58583334D02*
X64266666Y58583334D01*
X64066666Y58583334D02*
X64066666Y59283334D01*
X64133333Y59183334D01*
X64200000Y59116667D01*
X64266666Y59083334D01*
X63600000Y59216667D02*
X63566666Y59250000D01*
X63500000Y59283334D01*
X63333333Y59283334D01*
X63266666Y59250000D01*
X63233333Y59216667D01*
X63200000Y59150000D01*
X63200000Y59083334D01*
X63233333Y58983334D01*
X63633333Y58583334D01*
X63200000Y58583334D01*
X27266666Y96050000D02*
X27266666Y95583334D01*
X27433333Y96316667D02*
X27600000Y95816667D01*
X27166666Y95816667D01*
X26966666Y96283334D02*
X26500000Y96283334D01*
X26800000Y95583334D01*
X25933333Y96050000D02*
X25933333Y95583334D01*
X26233333Y96050000D02*
X26233333Y95683334D01*
X26200000Y95616667D01*
X26133333Y95583334D01*
X26033333Y95583334D01*
X25966666Y95616667D01*
X25933333Y95650000D01*
X25366666Y95950000D02*
X25600000Y95950000D01*
X25600000Y95583334D02*
X25600000Y96283334D01*
X25266666Y96283334D01*
X25066666Y95583334D02*
X24700000Y96050000D01*
X25066666Y96050000D02*
X24700000Y95583334D01*
X24466666Y96216667D02*
X24433333Y96250000D01*
X24366666Y96283334D01*
X24200000Y96283334D01*
X24133333Y96250000D01*
X24100000Y96216667D01*
X24066666Y96150000D01*
X24066666Y96083334D01*
X24100000Y95983334D01*
X24500000Y95583334D01*
X24066666Y95583334D01*
X23433333Y96283334D02*
X23766666Y96283334D01*
X23800000Y95950000D01*
X23766666Y95983334D01*
X23700000Y96016667D01*
X23533333Y96016667D01*
X23466666Y95983334D01*
X23433333Y95950000D01*
X23400000Y95883334D01*
X23400000Y95716667D01*
X23433333Y95650000D01*
X23466666Y95616667D01*
X23533333Y95583334D01*
X23700000Y95583334D01*
X23766666Y95616667D01*
X23800000Y95650000D01*
X23200000Y96283334D02*
X22966666Y95583334D01*
X22733333Y96283334D01*
X26216666Y94650000D02*
X26250000Y94616667D01*
X26350000Y94583334D01*
X26416666Y94583334D01*
X26516666Y94616667D01*
X26583333Y94683334D01*
X26616666Y94750000D01*
X26650000Y94883334D01*
X26650000Y94983334D01*
X26616666Y95116667D01*
X26583333Y95183334D01*
X26516666Y95250000D01*
X26416666Y95283334D01*
X26350000Y95283334D01*
X26250000Y95250000D01*
X26216666Y95216667D01*
X25950000Y95216667D02*
X25916666Y95250000D01*
X25850000Y95283334D01*
X25683333Y95283334D01*
X25616666Y95250000D01*
X25583333Y95216667D01*
X25550000Y95150000D01*
X25550000Y95083334D01*
X25583333Y94983334D01*
X25983333Y94583334D01*
X25550000Y94583334D01*
X35566666Y98150000D02*
X35566666Y97683334D01*
X35733333Y98416667D02*
X35900000Y97916667D01*
X35466666Y97916667D01*
X35266666Y98383334D02*
X34800000Y98383334D01*
X35100000Y97683334D01*
X34233333Y98150000D02*
X34233333Y97683334D01*
X34533333Y98150000D02*
X34533333Y97783334D01*
X34500000Y97716667D01*
X34433333Y97683334D01*
X34333333Y97683334D01*
X34266666Y97716667D01*
X34233333Y97750000D01*
X33666666Y98050000D02*
X33900000Y98050000D01*
X33900000Y97683334D02*
X33900000Y98383334D01*
X33566666Y98383334D01*
X33366666Y97683334D02*
X33000000Y98150000D01*
X33366666Y98150000D02*
X33000000Y97683334D01*
X32766666Y98316667D02*
X32733333Y98350000D01*
X32666666Y98383334D01*
X32500000Y98383334D01*
X32433333Y98350000D01*
X32400000Y98316667D01*
X32366666Y98250000D01*
X32366666Y98183334D01*
X32400000Y98083334D01*
X32800000Y97683334D01*
X32366666Y97683334D01*
X31733333Y98383334D02*
X32066666Y98383334D01*
X32100000Y98050000D01*
X32066666Y98083334D01*
X32000000Y98116667D01*
X31833333Y98116667D01*
X31766666Y98083334D01*
X31733333Y98050000D01*
X31700000Y97983334D01*
X31700000Y97816667D01*
X31733333Y97750000D01*
X31766666Y97716667D01*
X31833333Y97683334D01*
X32000000Y97683334D01*
X32066666Y97716667D01*
X32100000Y97750000D01*
X31500000Y98383334D02*
X31266666Y97683334D01*
X31033333Y98383334D01*
X33616666Y96850000D02*
X33650000Y96816667D01*
X33750000Y96783334D01*
X33816666Y96783334D01*
X33916666Y96816667D01*
X33983333Y96883334D01*
X34016666Y96950000D01*
X34050000Y97083334D01*
X34050000Y97183334D01*
X34016666Y97316667D01*
X33983333Y97383334D01*
X33916666Y97450000D01*
X33816666Y97483334D01*
X33750000Y97483334D01*
X33650000Y97450000D01*
X33616666Y97416667D01*
X33383333Y97483334D02*
X32950000Y97483334D01*
X33183333Y97216667D01*
X33083333Y97216667D01*
X33016666Y97183334D01*
X32983333Y97150000D01*
X32950000Y97083334D01*
X32950000Y96916667D01*
X32983333Y96850000D01*
X33016666Y96816667D01*
X33083333Y96783334D01*
X33283333Y96783334D01*
X33350000Y96816667D01*
X33383333Y96850000D01*
M02*
