G04 #@! TF.FileFunction,Soldermask,Top*
%FSLAX46Y46*%
G04 Gerber Fmt 4.6, Leading zero omitted, Abs format (unit mm)*
G04 Created by KiCad (PCBNEW (2016-08-20 BZR 7083)-product) date Thu Jun  8 07:23:42 2017*
%MOMM*%
%LPD*%
G01*
G04 APERTURE LIST*
%ADD10C,0.100000*%
%ADD11C,1.700000*%
%ADD12R,1.800000X2.400000*%
%ADD13O,1.800000X2.400000*%
%ADD14C,2.200000*%
%ADD15O,2.200000X3.200000*%
%ADD16C,1.800000*%
%ADD17O,2.800000X1.800000*%
%ADD18C,1.400000*%
%ADD19R,1.400000X1.400000*%
%ADD20C,6.200000*%
%ADD21R,1.800000X1.800000*%
G04 APERTURE END LIST*
D10*
D11*
X34540000Y85800000D03*
X29460000Y85800000D03*
X46300000Y97840000D03*
X46300000Y92760000D03*
X24660000Y104000000D03*
X29740000Y104000000D03*
X29560000Y65500000D03*
X34640000Y65500000D03*
X23760000Y78700000D03*
X28840000Y78700000D03*
X5300000Y34060000D03*
X5300000Y39140000D03*
D12*
X21980000Y68190000D03*
D13*
X24520000Y68190000D03*
X27060000Y68190000D03*
X29600000Y68190000D03*
X32140000Y68190000D03*
X34680000Y68190000D03*
X37220000Y68190000D03*
X37220000Y75810000D03*
X34680000Y75810000D03*
X32140000Y75810000D03*
X29600000Y75810000D03*
X27060000Y75810000D03*
X24520000Y75810000D03*
X21980000Y75810000D03*
D14*
X43600000Y87620000D03*
X43600000Y97780000D03*
X48380000Y104200000D03*
X38220000Y104200000D03*
D15*
X39500000Y95000000D03*
X29500000Y95000000D03*
D16*
X37000000Y88000000D03*
X34500000Y88000000D03*
X32000000Y88000000D03*
D15*
X17000000Y67000000D03*
X7000000Y67000000D03*
D16*
X14500000Y60000000D03*
X12000000Y60000000D03*
X9500000Y60000000D03*
D15*
X62000000Y67000000D03*
X52000000Y67000000D03*
D16*
X59500000Y60000000D03*
X57000000Y60000000D03*
X54500000Y60000000D03*
D15*
X39500000Y54500000D03*
X29500000Y54500000D03*
D16*
X37000000Y47500000D03*
X34500000Y47500000D03*
X32000000Y47500000D03*
D15*
X17000000Y42000000D03*
X7000000Y42000000D03*
D16*
X14500000Y35000000D03*
X12000000Y35000000D03*
X9500000Y35000000D03*
D15*
X62000000Y42000000D03*
X52000000Y42000000D03*
D16*
X59500000Y35000000D03*
X57000000Y35000000D03*
X54500000Y35000000D03*
D17*
X12000000Y88540000D03*
X12000000Y83460000D03*
X12000000Y86000000D03*
X57000000Y88540000D03*
X57000000Y83460000D03*
X57000000Y86000000D03*
D16*
X19400000Y75800000D03*
X39800000Y75800000D03*
X19400000Y68200000D03*
X10200000Y78000000D03*
X58700000Y80400000D03*
X18100000Y58300000D03*
D18*
X16230000Y102000000D03*
D19*
X18770000Y102000000D03*
D18*
X50230000Y102000000D03*
D19*
X52770000Y102000000D03*
D14*
X42320000Y85000000D03*
X52480000Y85000000D03*
X64600000Y78520000D03*
X64600000Y88680000D03*
D16*
X21000000Y44800000D03*
X21000000Y52400000D03*
X27300000Y44800000D03*
X27300000Y52400000D03*
X23100000Y52400000D03*
X23100000Y44800000D03*
X25200000Y52400000D03*
X25200000Y44800000D03*
X65300000Y29500000D03*
X57700000Y29500000D03*
X57700000Y27400000D03*
X65300000Y27400000D03*
X55500000Y48700000D03*
X55500000Y56300000D03*
X57600000Y56300000D03*
X57600000Y48700000D03*
X53400000Y48700000D03*
X53400000Y56300000D03*
X51300000Y56300000D03*
X51300000Y48700000D03*
X66700000Y19400000D03*
X59100000Y19400000D03*
X59100000Y21500000D03*
X66700000Y21500000D03*
X18900000Y44800000D03*
X18900000Y52400000D03*
X45000000Y48700000D03*
X45000000Y56300000D03*
X2000000Y22900000D03*
X9600000Y22900000D03*
X47100000Y48700000D03*
X47100000Y56300000D03*
X16800000Y56100000D03*
X16800000Y48500000D03*
X42900000Y56300000D03*
X42900000Y48700000D03*
X9600000Y25100000D03*
X2000000Y25100000D03*
X49200000Y56300000D03*
X49200000Y48700000D03*
X52150000Y87850000D03*
X47050000Y88750000D03*
X65750000Y101250000D03*
X60650000Y102150000D03*
D18*
X17535000Y97600000D03*
X16265000Y96330000D03*
X16265000Y98870000D03*
X46635000Y81000000D03*
X45365000Y79730000D03*
X45365000Y82270000D03*
D20*
X12500000Y53000000D03*
D21*
X63480000Y93930000D03*
D16*
X63480000Y96470000D03*
X60940000Y93930000D03*
X60940000Y96470000D03*
X58400000Y93930000D03*
X58400000Y96470000D03*
X55860000Y93930000D03*
X55860000Y96470000D03*
X53320000Y93930000D03*
X53320000Y96470000D03*
D14*
X18000000Y20698000D03*
X18000000Y28826000D03*
X18000000Y17650000D03*
X29000000Y20698000D03*
X29000000Y28826000D03*
X29000000Y17650000D03*
X40000000Y20698000D03*
X40000000Y28826000D03*
X40000000Y17650000D03*
X51000000Y20698000D03*
X51000000Y28826000D03*
X51000000Y17650000D03*
X7000000Y5698000D03*
X7000000Y13826000D03*
X7000000Y2650000D03*
X18000000Y5698000D03*
X18000000Y13826000D03*
X18000000Y2650000D03*
X29000000Y5698000D03*
X29000000Y13826000D03*
X29000000Y2650000D03*
X40000000Y5698000D03*
X40000000Y13826000D03*
X40000000Y2650000D03*
X51000000Y5698000D03*
X51000000Y13826000D03*
X51000000Y2650000D03*
X62000000Y5698000D03*
X62000000Y13826000D03*
X62000000Y2650000D03*
D16*
X1750000Y37410000D03*
X1750000Y47570000D03*
X1750000Y45030000D03*
X1750000Y42490000D03*
X1750000Y39950000D03*
X1750000Y34870000D03*
X1750000Y50110000D03*
X1750000Y52650000D03*
X1750000Y55190000D03*
X1750000Y57730000D03*
X1750000Y60270000D03*
X1750000Y62810000D03*
X1750000Y65350000D03*
X1750000Y67890000D03*
X1750000Y70430000D03*
X1750000Y72970000D03*
X1750000Y75510000D03*
X1750000Y78050000D03*
D21*
X1750000Y83130000D03*
D16*
X1750000Y80590000D03*
X67250000Y37410000D03*
X67250000Y47570000D03*
X67250000Y45030000D03*
X67250000Y42490000D03*
X67250000Y39950000D03*
X67250000Y34870000D03*
X67250000Y50110000D03*
X67250000Y52650000D03*
X67250000Y55190000D03*
X67250000Y57730000D03*
X67250000Y60270000D03*
X67250000Y62810000D03*
X67250000Y65350000D03*
X67250000Y67890000D03*
X67250000Y70430000D03*
X67250000Y72970000D03*
X67250000Y75510000D03*
X67250000Y78050000D03*
D21*
X67250000Y83130000D03*
D16*
X67250000Y80590000D03*
D21*
X27300000Y100950000D03*
D16*
X27300000Y98450000D03*
D21*
X32250000Y101700000D03*
D16*
X34750000Y101700000D03*
D14*
X12000000Y27900000D03*
X2000000Y27900000D03*
X30000000Y32200000D03*
X30000000Y42200000D03*
X55300000Y32000000D03*
X65300000Y32000000D03*
X26900000Y82300000D03*
X26900000Y92300000D03*
X23900000Y82300000D03*
X23900000Y92300000D03*
X12000000Y31000000D03*
X2000000Y31000000D03*
X27000000Y32200000D03*
X27000000Y42200000D03*
X41200000Y81800000D03*
X31200000Y81800000D03*
X31200000Y78800000D03*
X41200000Y78800000D03*
X7100000Y58700000D03*
X7100000Y48700000D03*
X48000000Y42200000D03*
X48000000Y32200000D03*
X20900000Y65500000D03*
X20900000Y55500000D03*
X45000000Y42200000D03*
X45000000Y32200000D03*
X66700000Y16900000D03*
X56700000Y16900000D03*
X7700000Y88000000D03*
X7700000Y78000000D03*
X4700000Y88000000D03*
X4700000Y78000000D03*
X49000000Y78100000D03*
X59000000Y78100000D03*
X61200000Y88100000D03*
X61200000Y78100000D03*
X23900000Y55500000D03*
X23900000Y65500000D03*
X26900000Y65500000D03*
X26900000Y55500000D03*
X24000000Y32200000D03*
X24000000Y42200000D03*
X36000000Y32200000D03*
X36000000Y42200000D03*
X12000000Y20300000D03*
X2000000Y20300000D03*
X39000000Y32200000D03*
X39000000Y42200000D03*
X21000000Y42200000D03*
X21000000Y32200000D03*
X33000000Y42200000D03*
X33000000Y32200000D03*
X2000000Y17100000D03*
X12000000Y17100000D03*
X42000000Y42200000D03*
X42000000Y32200000D03*
X13200000Y94600000D03*
X3200000Y94600000D03*
X3200000Y97600000D03*
X13200000Y97600000D03*
X46600000Y77200000D03*
X46600000Y67200000D03*
X43600000Y67200000D03*
X43600000Y77200000D03*
X21400000Y102300000D03*
X21400000Y92300000D03*
X48200000Y101300000D03*
X38200000Y101300000D03*
X29700000Y62800000D03*
X39700000Y62800000D03*
M02*
