M48
;DRILL file {KiCad (2016-08-20 BZR 7083)-product} date Thu Jun  8 07:23:43 2017
;FORMAT={3:3/ absolute / metric / suppress leading zeros}
FMAT,2
METRIC,TZ
T1C0.500
T2C0.700
T3C0.800
T4C0.900
T5C1.000
T6C1.100
T7C1.400
T8C3.200
%
G90
G05
M71
T1
X1000Y15100
X1500Y6100
X1700Y104100
X3100Y84700
X3100Y77000
X3700Y31900
X3700Y30100
X3800Y33300
X3900Y75300
X4100Y81800
X4200Y13200
X4400Y49900
X4400Y36100
X4900Y21000
X5200Y92100
X5200Y45300
X5200Y29900
X5400Y79700
X5400Y64100
X6300Y86400
X6300Y32900
X6400Y50700
X6600Y56600
X7000Y46200
X7400Y25500
X8200Y45300
X8400Y15800
X8700Y44300
X8800Y100000
X8900Y84700
X9500Y61900
X9600Y75100
X9700Y43300
X10500Y37300
X11400Y74800
X11500Y95900
X11500Y76900
X11900Y71400
X12100Y64700
X12200Y81800
X12700Y5800
X12900Y40800
X13200Y90400
X13200Y66000
X13200Y36500
X13600Y104300
X13800Y9200
X14000Y87300
X14000Y61900
X14100Y72100
X14100Y66900
X14200Y45800
X14200Y44500
X14400Y57700
X14600Y47600
X14700Y73500
X15200Y92100
X15200Y83300
X15500Y87800
X15500Y79000
X15500Y39100
X15600Y21800
X16100Y34500
X16500Y80100
X17200Y32000
X17300Y74500
X17300Y70900
X17500Y79000
X17600Y90200
X17600Y77600
X17800Y104300
X18100Y50700
X18500Y87800
X18500Y26800
X19100Y60100
X19500Y80100
X19500Y37100
X19600Y94800
X20000Y74200
X20100Y79000
X20100Y12400
X20400Y99600
X20400Y89200
X20600Y61000
X20600Y59400
X20900Y62700
X21200Y81500
X21500Y48000
X21900Y36200
X22100Y26600
X22200Y72900
X22700Y97700
X22800Y71000
X23200Y40400
X23300Y57800
X23500Y5500
X25800Y73000
X26900Y35600
X27000Y48900
X27000Y36900
X27000Y9200
X27200Y63300
X27300Y39500
X27300Y22000
X28400Y72900
X28500Y102600
X28700Y89300
X28800Y59400
X28900Y11800
X29200Y44700
X29400Y38500
X29500Y40500
X29800Y34300
X30100Y72900
X30100Y35600
X30400Y45900
X30700Y39900
X30800Y69900
X31000Y74100
X31000Y49400
X31500Y71700
X32100Y53300
X32200Y45700
X33300Y77700
X33300Y36600
X33400Y54300
X33400Y50500
X33800Y95000
X33800Y82200
X34000Y61000
X34400Y56900
X34400Y6000
X34600Y62100
X34700Y59200
X34900Y14200
X35100Y26600
X35200Y49400
X35600Y53000
X35700Y20400
X35800Y103700
X36400Y64500
X37500Y72300
X38300Y74100
X38400Y59400
X38600Y44300
X38800Y61000
X38900Y65100
X39000Y77700
X39300Y86200
X39900Y11900
X40000Y102900
X40000Y25700
X41600Y76000
X41700Y47300
X41800Y99600
X42200Y38700
X42500Y36600
X42700Y72900
X42700Y23300
X43200Y30300
X43800Y59600
X43800Y34400
X43900Y50400
X44100Y75100
X45100Y44300
X45400Y6000
X45700Y14300
X45800Y104500
X46000Y69500
X46100Y54500
X46400Y65200
X46500Y30800
X46500Y19600
X47400Y9200
X47800Y47000
X47900Y80000
X48500Y44300
X49000Y99300
X49100Y59400
X49200Y30500
X49300Y39400
X49500Y26900
X49800Y64200
X50000Y62700
X50200Y36800
X50800Y12000
X51000Y46800
X51000Y35100
X52800Y75400
X53300Y51300
X54000Y10800
X54300Y101800
X54400Y105100
X55200Y27200
X55600Y42900
X55700Y81300
X56200Y14800
X56500Y44500
X56600Y6100
X56700Y54700
X57000Y69900
X57100Y21200
X57300Y31200
X57500Y103300
X57600Y51300
X57700Y44500
X57900Y24800
X58800Y42800
X59100Y25700
X59400Y57500
X59600Y86700
X59900Y36600
X59900Y26600
X60000Y58500
X60200Y49400
X60200Y48000
X60500Y79700
X60500Y61600
X60700Y27900
X60700Y15400
X61300Y47500
X61400Y49400
X61400Y17600
X61800Y61000
X62000Y75600
X62050Y86450
X62200Y52200
X62400Y56300
X62500Y53900
X62800Y27500
X63000Y90500
X63100Y63600
X63400Y104900
X63700Y34300
X63800Y100900
X64600Y21100
X65200Y81800
X65300Y84500
X65900Y13400
X66100Y94900
X66300Y33600
X67300Y5800
X67500Y89700
X67800Y99000
X67800Y23200
X68100Y33500
X68100Y29200
X68200Y104200
T2
X16265Y98870
X16265Y96330
X17535Y97600
X45365Y82270
X45365Y79730
X46635Y81000
T3
X2000Y25100
X2000Y22900
X5300Y39140
X5300Y34060
X9600Y25100
X9600Y22900
X16230Y102000
X16800Y56100
X16800Y48500
X18770Y102000
X18900Y52400
X18900Y44800
X21000Y52400
X21000Y44800
X23100Y52400
X23100Y44800
X23760Y78700
X24660Y104000
X25200Y52400
X25200Y44800
X27300Y52400
X27300Y44800
X28840Y78700
X29460Y85800
X29560Y65500
X29740Y104000
X34540Y85800
X34640Y65500
X42900Y56300
X42900Y48700
X45000Y56300
X45000Y48700
X46300Y97840
X46300Y92760
X47050Y88750
X47100Y56300
X47100Y48700
X49200Y56300
X49200Y48700
X50230Y102000
X51300Y56300
X51300Y48700
X52150Y87850
X52770Y102000
X53400Y56300
X53400Y48700
X55500Y56300
X55500Y48700
X57600Y56300
X57600Y48700
X57700Y29500
X57700Y27400
X59100Y21500
X59100Y19400
X60650Y102150
X65300Y29500
X65300Y27400
X65750Y101250
X66700Y21500
X66700Y19400
T4
X10200Y78000
X18100Y58300
X19400Y75800
X19400Y68200
X21980Y75810
X21980Y68190
X24520Y75810
X24520Y68190
X27060Y75810
X27060Y68190
X27300Y100950
X27300Y98450
X29600Y75810
X29600Y68190
X32140Y75810
X32140Y68190
X32250Y101700
X34680Y75810
X34680Y68190
X34750Y101700
X37220Y75810
X37220Y68190
X39800Y75800
X58700Y80400
T5
X1750Y83130
X1750Y80590
X1750Y78050
X1750Y75510
X1750Y72970
X1750Y70430
X1750Y67890
X1750Y65350
X1750Y62810
X1750Y60270
X1750Y57730
X1750Y55190
X1750Y52650
X1750Y50110
X1750Y47570
X1750Y45030
X1750Y42490
X1750Y39950
X1750Y37410
X1750Y34870
X2000Y31000
X2000Y27900
X2000Y20300
X2000Y17100
X3200Y97600
X3200Y94600
X4700Y88000
X4700Y78000
X7100Y58700
X7100Y48700
X7700Y88000
X7700Y78000
X9500Y60000
X9500Y35000
X12000Y60000
X12000Y35000
X12000Y31000
X12000Y27900
X12000Y20300
X12000Y17100
X13200Y97600
X13200Y94600
X14500Y60000
X14500Y35000
X20900Y65500
X20900Y55500
X21000Y42200
X21000Y32200
X21400Y102300
X21400Y92300
X23900Y92300
X23900Y82300
X23900Y65500
X23900Y55500
X24000Y42200
X24000Y32200
X26900Y92300
X26900Y82300
X26900Y65500
X26900Y55500
X27000Y42200
X27000Y32200
X29700Y62800
X30000Y42200
X30000Y32200
X31200Y81800
X31200Y78800
X32000Y88000
X32000Y47500
X33000Y42200
X33000Y32200
X34500Y88000
X34500Y47500
X36000Y42200
X36000Y32200
X37000Y88000
X37000Y47500
X38200Y101300
X38220Y104200
X39000Y42200
X39000Y32200
X39700Y62800
X41200Y81800
X41200Y78800
X42000Y42200
X42000Y32200
X42320Y85000
X43600Y97780
X43600Y87620
X43600Y77200
X43600Y67200
X45000Y42200
X45000Y32200
X46600Y77200
X46600Y67200
X48000Y42200
X48000Y32200
X48200Y101300
X48380Y104200
X49000Y78100
X52480Y85000
X53320Y96470
X53320Y93930
X54500Y60000
X54500Y35000
X55300Y32000
X55860Y96470
X55860Y93930
X56700Y16900
X57000Y60000
X57000Y35000
X58400Y96470
X58400Y93930
X59000Y78100
X59500Y60000
X59500Y35000
X60940Y96470
X60940Y93930
X61200Y88100
X61200Y78100
X63480Y96470
X63480Y93930
X64600Y88680
X64600Y78520
X65300Y32000
X66700Y16900
X67250Y83130
X67250Y80590
X67250Y78050
X67250Y75510
X67250Y72970
X67250Y70430
X67250Y67890
X67250Y65350
X67250Y62810
X67250Y60270
X67250Y57730
X67250Y55190
X67250Y52650
X67250Y50110
X67250Y47570
X67250Y45030
X67250Y42490
X67250Y39950
X67250Y37410
X67250Y34870
T6
X7000Y13826
X7000Y5698
X7000Y2650
X18000Y28826
X18000Y20698
X18000Y17650
X18000Y13826
X18000Y5698
X18000Y2650
X29000Y28826
X29000Y20698
X29000Y17650
X29000Y13826
X29000Y5698
X29000Y2650
X40000Y28826
X40000Y20698
X40000Y17650
X40000Y13826
X40000Y5698
X40000Y2650
X51000Y28826
X51000Y20698
X51000Y17650
X51000Y13826
X51000Y5698
X51000Y2650
X62000Y13826
X62000Y5698
X62000Y2650
T7
X7000Y67000
X7000Y42000
X17000Y67000
X17000Y42000
X29500Y95000
X29500Y54500
X39500Y95000
X39500Y54500
X52000Y67000
X52000Y42000
X62000Y67000
X62000Y42000
T8
X12500Y53000
T4
X12400Y88540G85X11600Y88540
G05
X12400Y86000G85X11600Y86000
G05
X12400Y83460G85X11600Y83460
G05
X57400Y88540G85X56600Y88540
G05
X57400Y86000G85X56600Y86000
G05
X57400Y83460G85X56600Y83460
G05
T0
M30
