M48
;DRILL file {KiCad (2016-08-20 BZR 7083)-product} date Thu Jun 15 13:02:45 2017
;FORMAT={3:3/ absolute / metric / suppress leading zeros}
FMAT,2
METRIC,TZ
T1C0.500
T2C0.700
T3C0.800
T4C0.900
T5C1.000
T6C1.001
T7C3.200
%
G90
G05
M71
T1
X1400Y31700
X2000Y24000
X3800Y81700
X6200Y48200
X6400Y67100
X7400Y54800
X7800Y41000
X7800Y38900
X8300Y79600
X8300Y36300
X8700Y58600
X9600Y46200
X9600Y40700
X9900Y65300
X10800Y83700
X10900Y38900
X10900Y36300
X11300Y24400
X11400Y72000
X12300Y39100
X12300Y34800
X12300Y28500
X12600Y70700
X13100Y21800
X13100Y7400
X13200Y4900
X13400Y36400
X13700Y42100
X14500Y40600
X14500Y31100
X15200Y66200
X15600Y30500
X15700Y39300
X16700Y88500
X16700Y69400
X16700Y38000
X16700Y34900
X16800Y81600
X16800Y78600
X16900Y3400
X17000Y28500
X17000Y18900
X17200Y14300
X17700Y23300
X18600Y55500
X18800Y49000
X19700Y30300
X19800Y79700
X19900Y83500
X20200Y75600
X20200Y69300
X21200Y22700
X22000Y36100
X22100Y59300
X22300Y17900
X22700Y44400
X23600Y40100
X23700Y75900
X23700Y73400
X24700Y14200
X25300Y87400
X25300Y11400
X25900Y61000
X26600Y33700
X26900Y72300
X27300Y83100
X27400Y13400
X27600Y45200
X27900Y27800
X28000Y18500
X28100Y75600
X28100Y72300
X28700Y66400
X28900Y57800
X29100Y37800
X29600Y87100
X29600Y72400
X29600Y3700
X29900Y29200
X30100Y30600
X30200Y42600
X31600Y63500
X31800Y44900
X31800Y25200
X32200Y67500
X32200Y31500
X32400Y59300
X32400Y17200
X32600Y27700
X33000Y1000
X33200Y14900
X33600Y81100
X33700Y52800
X33800Y87100
X33800Y18600
X34700Y37700
X35200Y22700
X35200Y17500
X35200Y14000
X35400Y41300
X35400Y29200
X35700Y7600
X35800Y27800
X36600Y10800
X36900Y33800
X37200Y30300
X37200Y3600
X37700Y23300
X38100Y16300
X38500Y65250
X39100Y49600
X39400Y54600
X39700Y58800
X40000Y44800
X40100Y1000
X40300Y14300
X40800Y63000
X41000Y72400
X41000Y68300
X41100Y11900
X41300Y76500
X41600Y74300
X41800Y82300
X41900Y69200
X42200Y27800
X42700Y58200
X42800Y75100
X42800Y70500
X42800Y44800
X42900Y20400
X43100Y60800
X43200Y67900
X43300Y62900
X43500Y8600
X44000Y81800
X44100Y79300
X44100Y76700
X44200Y64600
X44300Y85900
X44700Y73700
X45000Y21200
X46600Y23200
X47000Y18700
X48100Y87800
X48300Y61500
X48800Y62500
X49000Y25100
X49200Y64500
X49800Y29500
X49900Y75300
X50000Y1700
X50400Y38200
X50500Y41600
X51900Y10300
X51900Y7300
X52400Y65600
X52400Y22800
X52700Y72700
X53000Y12200
X53100Y10300
X53100Y7200
X53500Y80500
X54300Y6300
X54900Y8700
X55400Y16100
X55500Y47900
X55700Y85800
X55800Y38400
X56100Y35700
X56100Y31600
X56300Y55600
X56300Y53300
X56400Y60400
X56500Y64500
X56800Y67100
X57100Y80400
X58000Y58500
X58500Y80200
X58600Y81400
X59000Y70500
X59200Y58200
X59200Y25100
X59500Y69200
X59600Y6900
X59800Y22000
X60000Y9500
X60200Y71800
X61000Y65700
X61000Y60700
X61500Y80500
X61900Y7600
X62500Y37600
X62900Y24900
X63600Y83100
X64800Y36200
X65800Y84600
X66000Y73800
X66000Y69500
X66300Y31300
X66800Y24600
X67700Y88400
X67900Y10500
T2
X6930Y31035
X8200Y29765
X8230Y26465
X9470Y31035
X9500Y27735
X10770Y26465
X17165Y10700
X18435Y11970
X18435Y9430
T3
X2800Y7140
X2800Y2060
X6360Y75500
X7600Y10100
X7600Y2100
X11440Y75500
X15200Y10100
X15200Y2100
X20360Y53300
X21700Y12500
X22500Y7040
X22500Y1960
X22726Y14974
X22726Y10026
X24760Y77200
X25200Y16000
X25200Y9000
X25260Y18500
X25440Y53300
X27674Y14974
X27674Y10026
X27760Y5200
X28100Y87700
X28100Y85600
X28700Y12500
X29840Y77200
X30340Y18500
X30600Y55740
X30600Y50660
X31200Y13740
X31200Y8660
X32840Y5200
X34660Y64300
X35700Y87700
X35700Y85600
X38560Y87700
X39740Y64300
X41660Y64300
X42560Y14400
X43640Y87700
X46740Y64300
X47640Y14400
X47900Y49140
X47900Y44060
X50000Y49000
X50000Y46900
X50000Y44700
X51700Y67040
X51700Y61960
X57600Y49000
X57600Y46900
X57600Y44700
X60160Y14400
X64700Y66940
X64700Y61860
X65240Y14400
T4
X8600Y69550
X8600Y67050
X12300Y63050
X12300Y60550
X13700Y44800
X13700Y24800
X14590Y84820
X14590Y82280
X14590Y79740
X14590Y77200
X14590Y74660
X14590Y72120
X14590Y69580
X14600Y87400
X18700Y44800
X18700Y24800
X19300Y13900
X20390Y63410
X20390Y55790
X20600Y8600
X22200Y87400
X22210Y84820
X22210Y82280
X22210Y79740
X22210Y77200
X22210Y74660
X22210Y72120
X22210Y69580
X22300Y24800
X22930Y63410
X22930Y55790
X24700Y44800
X24700Y24800
X25470Y63410
X25470Y55790
X28010Y63410
X28010Y55790
X29700Y44800
X29700Y24800
X34200Y31300
X34200Y11300
X35200Y77200
X35850Y35700
X37490Y58390
X37490Y55850
X37490Y53310
X37490Y50770
X37490Y48230
X37490Y45690
X37490Y43150
X37490Y40610
X38350Y35700
X38490Y85090
X38490Y82550
X38490Y80010
X38490Y77470
X38490Y74930
X38490Y72390
X38490Y69850
X38490Y67310
X39200Y31300
X39200Y11300
X43800Y37050
X43800Y34550
X45110Y58390
X45110Y55850
X45110Y53310
X45110Y50770
X45110Y48230
X45110Y45690
X45110Y43150
X45110Y40610
X45200Y9900
X45200Y7500
X46000Y32000
X46110Y85090
X46110Y82550
X46110Y80010
X46110Y77470
X46110Y74930
X46110Y72390
X46110Y69850
X46110Y67310
X47700Y56900
X50090Y23420
X50090Y20880
X50090Y18340
X50090Y15800
X50090Y13260
X50090Y10720
X50090Y8180
X50800Y86850
X50800Y84350
X53000Y77500
X54490Y74620
X54490Y72080
X54490Y69540
X54490Y67000
X54490Y64460
X54490Y61920
X54490Y59380
X57710Y23420
X57710Y20880
X57710Y18340
X57710Y15800
X57710Y13260
X57710Y10720
X57710Y8180
X61350Y54600
X61350Y48000
X62110Y74620
X62110Y72080
X62110Y69540
X62110Y67000
X62110Y64460
X62110Y61920
X62110Y59380
X63850Y54600
X63850Y48000
X64700Y74600
T5
X1750Y83130
X1750Y80590
X1750Y78050
X1750Y75510
X1750Y72970
X1750Y70430
X1750Y67890
X1750Y65350
X1750Y62810
X1750Y60270
X1750Y57730
X1750Y55190
X1750Y52650
X1750Y50110
X1750Y47570
X1750Y45030
X1750Y42490
X1750Y39950
X1750Y37410
X1750Y34870
X4700Y56700
X4700Y46700
X4700Y44200
X4700Y34200
X5100Y87800
X5100Y77800
X5200Y21600
X5200Y18600
X5200Y15600
X5200Y12600
X5200Y7600
X5200Y4600
X7800Y56700
X7800Y46700
X7800Y44200
X7800Y34200
X8100Y87800
X8100Y77800
X10900Y47700
X11100Y87800
X11100Y77800
X13000Y66500
X15200Y21600
X15200Y18600
X15200Y15600
X15200Y12600
X15200Y7600
X15200Y4600
X17100Y63400
X17100Y53400
X17100Y50800
X18400Y21600
X20900Y47700
X23000Y66500
X24700Y47900
X25200Y82800
X25200Y79800
X25200Y74600
X25200Y71600
X25200Y68500
X27100Y50800
X28400Y21600
X33900Y60600
X33900Y50600
X34700Y47900
X35200Y82800
X35200Y79800
X35200Y74600
X35200Y71600
X35200Y68500
X35200Y5200
X35200Y2200
X36500Y61800
X44100Y29400
X44100Y26600
X44100Y16600
X45200Y5200
X45200Y2200
X46500Y61800
X47100Y26600
X47100Y16600
X47700Y5200
X47700Y2200
X48100Y54600
X48100Y51500
X48300Y41500
X48300Y38500
X48300Y35500
X48300Y32500
X49200Y68600
X49200Y58600
X49400Y81200
X49400Y71200
X54100Y29400
X55500Y87600
X55500Y77600
X56800Y29400
X57700Y5200
X57700Y2200
X58100Y54600
X58100Y51500
X58300Y41500
X58300Y38500
X58300Y35500
X58300Y32500
X58500Y87600
X58500Y77600
X60700Y12200
X60700Y2200
X60800Y26600
X60800Y16600
X61200Y43500
X61200Y33500
X61500Y87600
X61500Y77600
X63700Y12200
X63700Y2200
X63800Y26600
X63800Y16600
X64200Y43500
X64200Y33500
X64500Y87600
X64500Y77600
X66700Y12200
X66700Y2200
X66800Y29400
X66800Y26600
X66800Y16600
X67250Y83130
X67250Y80590
X67250Y78050
X67250Y75510
X67250Y72970
X67250Y70430
X67250Y67890
X67250Y65350
X67250Y62810
X67250Y60270
X67250Y57730
X67250Y55190
X67250Y52650
X67250Y50110
X67250Y47570
X67250Y45030
X67250Y42490
X67250Y39950
X67250Y37410
X67250Y34870
T6
X51660Y26400
X54200Y26400
X56740Y26400
T7
X12500Y53000
T0
M30
