G04 #@! TF.FileFunction,Soldermask,Bot*
%FSLAX46Y46*%
G04 Gerber Fmt 4.6, Leading zero omitted, Abs format (unit mm)*
G04 Created by KiCad (PCBNEW (2016-08-20 BZR 7083)-product) date Thu Jun 15 13:02:43 2017*
%MOMM*%
%LPD*%
G01*
G04 APERTURE LIST*
%ADD10C,0.100000*%
%ADD11C,2.200000*%
%ADD12C,1.700000*%
%ADD13R,2.400000X1.800000*%
%ADD14O,2.400000X1.800000*%
%ADD15C,1.600000*%
%ADD16R,1.800000X2.400000*%
%ADD17O,1.800000X2.400000*%
%ADD18R,1.800200X1.800200*%
%ADD19C,1.800200*%
%ADD20C,1.800000*%
%ADD21C,1.400000*%
%ADD22C,6.200000*%
%ADD23R,1.800000X1.800000*%
G04 APERTURE END LIST*
D10*
D11*
X39200000Y11300000D03*
X34200000Y11300000D03*
X39200000Y31300000D03*
X34200000Y31300000D03*
X29700000Y24800000D03*
X24700000Y24800000D03*
X29700000Y44800000D03*
X24700000Y44800000D03*
X18700000Y24800000D03*
X13700000Y24800000D03*
X18700000Y44800000D03*
X13700000Y44800000D03*
D12*
X64700000Y66940000D03*
X64700000Y61860000D03*
X51700000Y61960000D03*
X51700000Y67040000D03*
X60160000Y14400000D03*
X65240000Y14400000D03*
X42560000Y14400000D03*
X47640000Y14400000D03*
X24760000Y77200000D03*
X29840000Y77200000D03*
X6360000Y75500000D03*
X11440000Y75500000D03*
X22500000Y7040000D03*
X22500000Y1960000D03*
X30340000Y18500000D03*
X25260000Y18500000D03*
X32840000Y5200000D03*
X27760000Y5200000D03*
X2800000Y7140000D03*
X2800000Y2060000D03*
X41660000Y64300000D03*
X46740000Y64300000D03*
X39740000Y64300000D03*
X34660000Y64300000D03*
X43640000Y87700000D03*
X38560000Y87700000D03*
X31200000Y13740000D03*
X31200000Y8660000D03*
X47900000Y49140000D03*
X47900000Y44060000D03*
X30600000Y55740000D03*
X30600000Y50660000D03*
X20360000Y53300000D03*
X25440000Y53300000D03*
D13*
X62110000Y74620000D03*
D14*
X62110000Y72080000D03*
X62110000Y69540000D03*
X62110000Y67000000D03*
X62110000Y64460000D03*
X62110000Y61920000D03*
X62110000Y59380000D03*
X54490000Y59380000D03*
X54490000Y61920000D03*
X54490000Y64460000D03*
X54490000Y67000000D03*
X54490000Y69540000D03*
X54490000Y72080000D03*
X54490000Y74620000D03*
D13*
X57710000Y23420000D03*
D14*
X57710000Y20880000D03*
X57710000Y18340000D03*
X57710000Y15800000D03*
X57710000Y13260000D03*
X57710000Y10720000D03*
X57710000Y8180000D03*
X50090000Y8180000D03*
X50090000Y10720000D03*
X50090000Y13260000D03*
X50090000Y15800000D03*
X50090000Y18340000D03*
X50090000Y20880000D03*
X50090000Y23420000D03*
D13*
X22210000Y84820000D03*
D14*
X22210000Y82280000D03*
X22210000Y79740000D03*
X22210000Y77200000D03*
X22210000Y74660000D03*
X22210000Y72120000D03*
X22210000Y69580000D03*
X14590000Y69580000D03*
X14590000Y72120000D03*
X14590000Y74660000D03*
X14590000Y77200000D03*
X14590000Y79740000D03*
X14590000Y82280000D03*
X14590000Y84820000D03*
X46110000Y67310000D03*
X46110000Y69850000D03*
D13*
X38490000Y67310000D03*
D14*
X38490000Y69850000D03*
X38490000Y72390000D03*
X38490000Y74930000D03*
X38490000Y77470000D03*
X38490000Y80010000D03*
X38490000Y82550000D03*
X38490000Y85090000D03*
X46110000Y85090000D03*
X46110000Y82550000D03*
X46110000Y80010000D03*
X46110000Y77470000D03*
X46110000Y74930000D03*
X46110000Y72390000D03*
D15*
X25200000Y9000000D03*
X22726000Y10026000D03*
X21700000Y12500000D03*
X22726000Y14974000D03*
X25200000Y16000000D03*
X27674000Y14974000D03*
X28700000Y12500000D03*
X27674000Y10026000D03*
D16*
X20390000Y63410000D03*
D17*
X22930000Y63410000D03*
X25470000Y63410000D03*
X28010000Y63410000D03*
X28010000Y55790000D03*
X25470000Y55790000D03*
X22930000Y55790000D03*
X20390000Y55790000D03*
D18*
X51660000Y26400000D03*
D19*
X54200000Y26400000D03*
X56740000Y26400000D03*
D20*
X46000000Y32000000D03*
X45200000Y7500000D03*
X22300000Y24800000D03*
X20600000Y8600000D03*
X35200000Y77200000D03*
X19300000Y13900000D03*
X45200000Y9900000D03*
X47700000Y56900000D03*
X22200000Y87400000D03*
X14600000Y87400000D03*
X53000000Y77500000D03*
X64700000Y74600000D03*
X50000000Y44700000D03*
X57600000Y44700000D03*
X15200000Y2100000D03*
X7600000Y2100000D03*
X7600000Y10100000D03*
X15200000Y10100000D03*
X28100000Y85600000D03*
X35700000Y85600000D03*
X28100000Y87700000D03*
X35700000Y87700000D03*
X57600000Y49000000D03*
X50000000Y49000000D03*
X57600000Y46900000D03*
X50000000Y46900000D03*
D21*
X8200000Y29765000D03*
X9470000Y31035000D03*
X6930000Y31035000D03*
X9500000Y27735000D03*
X8230000Y26465000D03*
X10770000Y26465000D03*
X17165000Y10700000D03*
X18435000Y9430000D03*
X18435000Y11970000D03*
D14*
X37490000Y58390000D03*
X37490000Y55850000D03*
D13*
X45110000Y58390000D03*
D14*
X45110000Y55850000D03*
X45110000Y53310000D03*
X45110000Y50770000D03*
X45110000Y48230000D03*
X45110000Y45690000D03*
X45110000Y43150000D03*
X45110000Y40610000D03*
X37490000Y40610000D03*
X37490000Y43150000D03*
X37490000Y45690000D03*
X37490000Y48230000D03*
X37490000Y50770000D03*
X37490000Y53310000D03*
D22*
X12500000Y53000000D03*
D20*
X1750000Y34870000D03*
X1750000Y37410000D03*
X1750000Y39950000D03*
X1750000Y42490000D03*
X1750000Y45030000D03*
X1750000Y47570000D03*
X1750000Y50110000D03*
X1750000Y52650000D03*
X1750000Y55190000D03*
X1750000Y57730000D03*
X1750000Y60270000D03*
X1750000Y62810000D03*
X1750000Y65350000D03*
X1750000Y67890000D03*
X1750000Y70430000D03*
X1750000Y72970000D03*
X1750000Y75510000D03*
X1750000Y78050000D03*
D23*
X1750000Y83130000D03*
D20*
X1750000Y80590000D03*
X67250000Y34870000D03*
X67250000Y37410000D03*
X67250000Y39950000D03*
X67250000Y42490000D03*
X67250000Y45030000D03*
X67250000Y47570000D03*
X67250000Y50110000D03*
X67250000Y52650000D03*
X67250000Y55190000D03*
X67250000Y57730000D03*
X67250000Y60270000D03*
X67250000Y62810000D03*
X67250000Y65350000D03*
X67250000Y67890000D03*
X67250000Y70430000D03*
X67250000Y72970000D03*
X67250000Y75510000D03*
X67250000Y78050000D03*
D23*
X67250000Y83130000D03*
D20*
X67250000Y80590000D03*
D23*
X50800000Y86850000D03*
D20*
X50800000Y84350000D03*
D23*
X35850000Y35700000D03*
D20*
X38350000Y35700000D03*
D23*
X43800000Y37050000D03*
D20*
X43800000Y34550000D03*
D23*
X12300000Y63050000D03*
D20*
X12300000Y60550000D03*
D23*
X8600000Y69550000D03*
D20*
X8600000Y67050000D03*
D23*
X61350000Y54600000D03*
D20*
X63850000Y54600000D03*
D23*
X61350000Y48000000D03*
D20*
X63850000Y48000000D03*
D11*
X54100000Y29400000D03*
X44100000Y29400000D03*
X35200000Y2200000D03*
X45200000Y2200000D03*
X44100000Y16600000D03*
X44100000Y26600000D03*
X7800000Y56700000D03*
X7800000Y46700000D03*
X7800000Y34200000D03*
X7800000Y44200000D03*
X4700000Y56700000D03*
X4700000Y46700000D03*
X47100000Y16600000D03*
X47100000Y26600000D03*
X57700000Y2200000D03*
X47700000Y2200000D03*
X47700000Y5200000D03*
X57700000Y5200000D03*
X4700000Y34200000D03*
X4700000Y44200000D03*
X48300000Y38500000D03*
X58300000Y38500000D03*
X10900000Y47700000D03*
X20900000Y47700000D03*
X45200000Y5200000D03*
X35200000Y5200000D03*
X28400000Y21600000D03*
X18400000Y21600000D03*
X58300000Y41500000D03*
X48300000Y41500000D03*
X35200000Y74600000D03*
X25200000Y74600000D03*
X5200000Y4600000D03*
X15200000Y4600000D03*
X15200000Y7600000D03*
X5200000Y7600000D03*
X35200000Y71600000D03*
X25200000Y71600000D03*
X55500000Y77600000D03*
X55500000Y87600000D03*
X15200000Y12600000D03*
X5200000Y12600000D03*
X56800000Y29400000D03*
X66800000Y29400000D03*
X66800000Y16600000D03*
X66800000Y26600000D03*
X5200000Y15600000D03*
X15200000Y15600000D03*
X58300000Y35500000D03*
X48300000Y35500000D03*
X48300000Y32500000D03*
X58300000Y32500000D03*
X60800000Y16600000D03*
X60800000Y26600000D03*
X15200000Y21600000D03*
X5200000Y21600000D03*
X5200000Y18600000D03*
X15200000Y18600000D03*
X63800000Y16600000D03*
X63800000Y26600000D03*
X35200000Y68500000D03*
X25200000Y68500000D03*
X49400000Y71200000D03*
X49400000Y81200000D03*
X33900000Y50600000D03*
X33900000Y60600000D03*
X24700000Y47900000D03*
X34700000Y47900000D03*
X63700000Y2200000D03*
X63700000Y12200000D03*
X60700000Y12200000D03*
X60700000Y2200000D03*
X11100000Y87800000D03*
X11100000Y77800000D03*
X66700000Y2200000D03*
X66700000Y12200000D03*
X58500000Y87600000D03*
X58500000Y77600000D03*
X35200000Y79800000D03*
X25200000Y79800000D03*
X48100000Y54600000D03*
X58100000Y54600000D03*
X49200000Y58600000D03*
X49200000Y68600000D03*
X5100000Y87800000D03*
X5100000Y77800000D03*
X61500000Y87600000D03*
X61500000Y77600000D03*
X35200000Y82800000D03*
X25200000Y82800000D03*
X36500000Y61800000D03*
X46500000Y61800000D03*
X8100000Y77800000D03*
X8100000Y87800000D03*
X64500000Y87600000D03*
X64500000Y77600000D03*
X17100000Y50800000D03*
X27100000Y50800000D03*
X17100000Y63400000D03*
X17100000Y53400000D03*
X48100000Y51500000D03*
X58100000Y51500000D03*
X23000000Y66500000D03*
X13000000Y66500000D03*
X61200000Y33500000D03*
X61200000Y43500000D03*
X64200000Y33500000D03*
X64200000Y43500000D03*
M02*
